G04 EAGLE Gerber RS-274X export*
G75*
%MOMM*%
%FSLAX34Y34*%
%LPD*%
%INBottom Copper*%
%IPPOS*%
%AMOC8*
5,1,8,0,0,1.08239X$1,22.5*%
G01*
%ADD10C,1.943100*%
%ADD11C,1.879600*%
%ADD12P,1.649562X8X112.500000*%
%ADD13C,1.524000*%
%ADD14C,2.184400*%
%ADD15P,1.732040X8X112.500000*%
%ADD16C,1.600200*%
%ADD17C,1.800000*%
%ADD18C,0.756400*%
%ADD19C,0.406400*%
%ADD20C,1.016000*%
%ADD21C,1.016000*%
%ADD22C,2.540000*%

G36*
X646198Y10164D02*
X646198Y10164D01*
X646217Y10162D01*
X646319Y10184D01*
X646421Y10200D01*
X646438Y10210D01*
X646458Y10214D01*
X646547Y10267D01*
X646638Y10316D01*
X646652Y10330D01*
X646669Y10340D01*
X646736Y10419D01*
X646808Y10494D01*
X646816Y10512D01*
X646829Y10527D01*
X646868Y10623D01*
X646911Y10717D01*
X646913Y10737D01*
X646921Y10755D01*
X646939Y10922D01*
X646939Y446178D01*
X646936Y446198D01*
X646938Y446217D01*
X646916Y446319D01*
X646900Y446421D01*
X646890Y446438D01*
X646886Y446458D01*
X646833Y446547D01*
X646784Y446638D01*
X646770Y446652D01*
X646760Y446669D01*
X646681Y446736D01*
X646606Y446808D01*
X646588Y446816D01*
X646573Y446829D01*
X646477Y446868D01*
X646383Y446911D01*
X646363Y446913D01*
X646345Y446921D01*
X646178Y446939D01*
X61722Y446939D01*
X61702Y446936D01*
X61683Y446938D01*
X61581Y446916D01*
X61479Y446900D01*
X61462Y446890D01*
X61442Y446886D01*
X61353Y446833D01*
X61262Y446784D01*
X61248Y446770D01*
X61231Y446760D01*
X61164Y446681D01*
X61092Y446606D01*
X61084Y446588D01*
X61071Y446573D01*
X61032Y446477D01*
X60989Y446383D01*
X60987Y446363D01*
X60979Y446345D01*
X60961Y446178D01*
X60961Y10922D01*
X60964Y10902D01*
X60962Y10883D01*
X60984Y10781D01*
X61000Y10679D01*
X61010Y10662D01*
X61014Y10642D01*
X61067Y10553D01*
X61116Y10462D01*
X61130Y10448D01*
X61140Y10431D01*
X61219Y10364D01*
X61294Y10292D01*
X61312Y10284D01*
X61327Y10271D01*
X61423Y10232D01*
X61517Y10189D01*
X61537Y10187D01*
X61555Y10179D01*
X61722Y10161D01*
X646178Y10161D01*
X646198Y10164D01*
G37*
%LPC*%
G36*
X351749Y349249D02*
X351749Y349249D01*
X348388Y350641D01*
X345815Y353214D01*
X344423Y356575D01*
X344423Y360213D01*
X345815Y363574D01*
X347717Y365476D01*
X347759Y365534D01*
X347808Y365586D01*
X347830Y365633D01*
X347861Y365675D01*
X347882Y365744D01*
X347912Y365809D01*
X347918Y365861D01*
X347933Y365911D01*
X347931Y365982D01*
X347939Y366053D01*
X347928Y366104D01*
X347927Y366156D01*
X347902Y366224D01*
X347887Y366294D01*
X347860Y366339D01*
X347842Y366387D01*
X347797Y366443D01*
X347761Y366505D01*
X347721Y366539D01*
X347689Y366579D01*
X347628Y366618D01*
X347574Y366665D01*
X347525Y366684D01*
X347482Y366712D01*
X347412Y366730D01*
X347346Y366757D01*
X347274Y366765D01*
X347243Y366773D01*
X347220Y366771D01*
X347179Y366775D01*
X238471Y366775D01*
X233242Y368941D01*
X210231Y391952D01*
X210157Y392005D01*
X210087Y392065D01*
X210057Y392077D01*
X210031Y392096D01*
X209944Y392123D01*
X209859Y392157D01*
X209818Y392161D01*
X209796Y392168D01*
X209764Y392167D01*
X209693Y392175D01*
X158607Y392175D01*
X158517Y392161D01*
X158426Y392153D01*
X158397Y392141D01*
X158365Y392136D01*
X158284Y392093D01*
X158200Y392057D01*
X158168Y392031D01*
X158147Y392020D01*
X158125Y391997D01*
X158069Y391952D01*
X122358Y356241D01*
X117129Y354075D01*
X86071Y354075D01*
X80842Y356241D01*
X76951Y360132D01*
X76898Y360171D01*
X76851Y360216D01*
X76778Y360257D01*
X76751Y360276D01*
X76733Y360282D01*
X76704Y360297D01*
X76100Y360547D01*
X73527Y363120D01*
X72135Y366481D01*
X72135Y370119D01*
X73527Y373480D01*
X76100Y376053D01*
X76704Y376303D01*
X76760Y376337D01*
X76820Y376363D01*
X76885Y376415D01*
X76913Y376432D01*
X76925Y376447D01*
X76951Y376468D01*
X80842Y380359D01*
X84984Y382075D01*
X85067Y382126D01*
X85153Y382172D01*
X85171Y382191D01*
X85193Y382204D01*
X85255Y382279D01*
X85322Y382350D01*
X85333Y382374D01*
X85350Y382394D01*
X85385Y382485D01*
X85426Y382573D01*
X85429Y382599D01*
X85438Y382623D01*
X85442Y382721D01*
X85453Y382817D01*
X85447Y382843D01*
X85449Y382869D01*
X85421Y382963D01*
X85401Y383058D01*
X85387Y383080D01*
X85380Y383105D01*
X85325Y383185D01*
X85275Y383269D01*
X85255Y383286D01*
X85240Y383307D01*
X85162Y383366D01*
X85088Y383429D01*
X85063Y383439D01*
X85042Y383454D01*
X84950Y383484D01*
X84860Y383521D01*
X84827Y383524D01*
X84809Y383530D01*
X84776Y383530D01*
X84693Y383539D01*
X80480Y383539D01*
X78901Y383789D01*
X77380Y384284D01*
X75955Y385010D01*
X74661Y385950D01*
X73530Y387081D01*
X72590Y388375D01*
X71864Y389800D01*
X71369Y391321D01*
X71234Y392177D01*
X88138Y392177D01*
X88158Y392180D01*
X88177Y392178D01*
X88279Y392200D01*
X88381Y392217D01*
X88398Y392226D01*
X88418Y392230D01*
X88507Y392283D01*
X88598Y392332D01*
X88612Y392346D01*
X88629Y392356D01*
X88696Y392435D01*
X88767Y392510D01*
X88776Y392528D01*
X88789Y392543D01*
X88827Y392639D01*
X88871Y392733D01*
X88873Y392753D01*
X88881Y392771D01*
X88899Y392938D01*
X88899Y393701D01*
X88901Y393701D01*
X88901Y392938D01*
X88904Y392918D01*
X88902Y392899D01*
X88924Y392797D01*
X88941Y392695D01*
X88950Y392678D01*
X88954Y392658D01*
X89007Y392569D01*
X89056Y392478D01*
X89070Y392464D01*
X89080Y392447D01*
X89159Y392380D01*
X89234Y392309D01*
X89252Y392300D01*
X89267Y392287D01*
X89363Y392248D01*
X89457Y392205D01*
X89477Y392203D01*
X89495Y392195D01*
X89662Y392177D01*
X106566Y392177D01*
X106431Y391321D01*
X105936Y389800D01*
X105210Y388375D01*
X104270Y387081D01*
X103139Y385950D01*
X101845Y385010D01*
X100420Y384284D01*
X99578Y384010D01*
X99574Y384008D01*
X99570Y384007D01*
X99466Y383952D01*
X99359Y383897D01*
X99357Y383894D01*
X99353Y383892D01*
X99271Y383806D01*
X99188Y383721D01*
X99186Y383717D01*
X99184Y383714D01*
X99133Y383605D01*
X99082Y383499D01*
X99082Y383495D01*
X99080Y383491D01*
X99067Y383372D01*
X99053Y383254D01*
X99053Y383250D01*
X99053Y383247D01*
X99078Y383131D01*
X99102Y383014D01*
X99104Y383010D01*
X99105Y383006D01*
X99166Y382904D01*
X99226Y382801D01*
X99229Y382798D01*
X99231Y382795D01*
X99322Y382717D01*
X99412Y382639D01*
X99415Y382638D01*
X99418Y382635D01*
X99530Y382590D01*
X99639Y382545D01*
X99643Y382545D01*
X99646Y382543D01*
X99813Y382525D01*
X108093Y382525D01*
X108183Y382539D01*
X108274Y382547D01*
X108303Y382559D01*
X108335Y382564D01*
X108416Y382607D01*
X108500Y382643D01*
X108532Y382669D01*
X108553Y382680D01*
X108575Y382703D01*
X108631Y382748D01*
X140234Y414351D01*
X144342Y418459D01*
X149571Y420625D01*
X218729Y420625D01*
X223958Y418459D01*
X246969Y395448D01*
X247043Y395395D01*
X247113Y395335D01*
X247143Y395323D01*
X247169Y395304D01*
X247256Y395277D01*
X247341Y395243D01*
X247382Y395239D01*
X247404Y395232D01*
X247436Y395233D01*
X247507Y395225D01*
X345742Y395225D01*
X345813Y395236D01*
X345884Y395238D01*
X345933Y395256D01*
X345985Y395264D01*
X346048Y395298D01*
X346115Y395323D01*
X346156Y395355D01*
X346202Y395380D01*
X346252Y395432D01*
X346307Y395476D01*
X346336Y395520D01*
X346372Y395558D01*
X346402Y395623D01*
X346440Y395683D01*
X346453Y395734D01*
X346475Y395781D01*
X346483Y395852D01*
X346501Y395922D01*
X346496Y395974D01*
X346502Y396025D01*
X346487Y396096D01*
X346481Y396167D01*
X346461Y396215D01*
X346450Y396266D01*
X346413Y396327D01*
X346385Y396393D01*
X346340Y396449D01*
X346324Y396477D01*
X346306Y396492D01*
X346280Y396524D01*
X345818Y396987D01*
X344878Y398281D01*
X344152Y399706D01*
X343657Y401227D01*
X343522Y402083D01*
X360426Y402083D01*
X360446Y402086D01*
X360465Y402084D01*
X360567Y402106D01*
X360669Y402123D01*
X360686Y402132D01*
X360706Y402136D01*
X360795Y402189D01*
X360886Y402238D01*
X360900Y402252D01*
X360917Y402262D01*
X360984Y402341D01*
X361055Y402416D01*
X361064Y402434D01*
X361077Y402449D01*
X361115Y402545D01*
X361159Y402639D01*
X361161Y402659D01*
X361169Y402677D01*
X361187Y402844D01*
X361187Y403607D01*
X361189Y403607D01*
X361189Y402844D01*
X361192Y402824D01*
X361190Y402805D01*
X361212Y402703D01*
X361229Y402601D01*
X361238Y402584D01*
X361242Y402564D01*
X361295Y402475D01*
X361344Y402384D01*
X361358Y402370D01*
X361368Y402353D01*
X361447Y402286D01*
X361522Y402215D01*
X361540Y402206D01*
X361555Y402193D01*
X361651Y402154D01*
X361745Y402111D01*
X361765Y402109D01*
X361783Y402101D01*
X361950Y402083D01*
X378854Y402083D01*
X378719Y401227D01*
X378224Y399706D01*
X377498Y398281D01*
X376558Y396987D01*
X376096Y396524D01*
X376054Y396466D01*
X376004Y396414D01*
X375983Y396367D01*
X375952Y396325D01*
X375931Y396256D01*
X375901Y396191D01*
X375895Y396139D01*
X375880Y396089D01*
X375882Y396018D01*
X375874Y395947D01*
X375885Y395896D01*
X375886Y395844D01*
X375911Y395776D01*
X375926Y395706D01*
X375953Y395661D01*
X375971Y395613D01*
X376015Y395557D01*
X376052Y395495D01*
X376092Y395461D01*
X376124Y395421D01*
X376185Y395382D01*
X376239Y395335D01*
X376288Y395316D01*
X376331Y395288D01*
X376401Y395270D01*
X376467Y395243D01*
X376539Y395235D01*
X376570Y395227D01*
X376593Y395229D01*
X376634Y395225D01*
X410766Y395225D01*
X410837Y395236D01*
X410908Y395238D01*
X410957Y395256D01*
X411009Y395264D01*
X411072Y395298D01*
X411139Y395323D01*
X411180Y395355D01*
X411226Y395380D01*
X411276Y395432D01*
X411331Y395476D01*
X411360Y395520D01*
X411396Y395558D01*
X411426Y395623D01*
X411464Y395683D01*
X411477Y395734D01*
X411499Y395781D01*
X411507Y395852D01*
X411525Y395922D01*
X411520Y395974D01*
X411526Y396025D01*
X411511Y396096D01*
X411505Y396167D01*
X411485Y396215D01*
X411474Y396266D01*
X411437Y396327D01*
X411409Y396393D01*
X411364Y396449D01*
X411348Y396477D01*
X411330Y396492D01*
X411304Y396524D01*
X410842Y396987D01*
X409902Y398281D01*
X409176Y399706D01*
X408681Y401227D01*
X408546Y402083D01*
X425450Y402083D01*
X425470Y402086D01*
X425489Y402084D01*
X425591Y402106D01*
X425693Y402123D01*
X425710Y402132D01*
X425730Y402136D01*
X425819Y402189D01*
X425910Y402238D01*
X425924Y402252D01*
X425941Y402262D01*
X426008Y402341D01*
X426079Y402416D01*
X426088Y402434D01*
X426101Y402449D01*
X426139Y402545D01*
X426183Y402639D01*
X426185Y402659D01*
X426193Y402677D01*
X426211Y402844D01*
X426211Y403607D01*
X426213Y403607D01*
X426213Y402844D01*
X426216Y402824D01*
X426214Y402805D01*
X426236Y402703D01*
X426253Y402601D01*
X426262Y402584D01*
X426266Y402564D01*
X426319Y402475D01*
X426368Y402384D01*
X426382Y402370D01*
X426392Y402353D01*
X426471Y402286D01*
X426546Y402215D01*
X426564Y402206D01*
X426579Y402193D01*
X426675Y402154D01*
X426769Y402111D01*
X426789Y402109D01*
X426807Y402101D01*
X426974Y402083D01*
X443878Y402083D01*
X443743Y401227D01*
X443248Y399706D01*
X442522Y398281D01*
X441582Y396987D01*
X441120Y396524D01*
X441078Y396466D01*
X441028Y396414D01*
X441007Y396367D01*
X440976Y396325D01*
X440955Y396256D01*
X440925Y396191D01*
X440919Y396139D01*
X440904Y396089D01*
X440906Y396018D01*
X440898Y395947D01*
X440909Y395896D01*
X440910Y395844D01*
X440935Y395776D01*
X440950Y395706D01*
X440977Y395661D01*
X440995Y395613D01*
X441039Y395557D01*
X441076Y395495D01*
X441116Y395461D01*
X441148Y395421D01*
X441209Y395382D01*
X441263Y395335D01*
X441312Y395316D01*
X441355Y395288D01*
X441425Y395270D01*
X441491Y395243D01*
X441563Y395235D01*
X441594Y395227D01*
X441617Y395229D01*
X441658Y395225D01*
X451376Y395225D01*
X451447Y395236D01*
X451519Y395238D01*
X451568Y395256D01*
X451619Y395264D01*
X451683Y395298D01*
X451750Y395323D01*
X451791Y395355D01*
X451837Y395380D01*
X451886Y395432D01*
X451942Y395476D01*
X451970Y395520D01*
X452006Y395558D01*
X452036Y395623D01*
X452075Y395683D01*
X452088Y395734D01*
X452110Y395781D01*
X452117Y395852D01*
X452135Y395922D01*
X452131Y395974D01*
X452137Y396025D01*
X452121Y396096D01*
X452116Y396167D01*
X452095Y396215D01*
X452084Y396266D01*
X452048Y396327D01*
X452020Y396393D01*
X451975Y396449D01*
X451958Y396477D01*
X451940Y396492D01*
X451915Y396524D01*
X450937Y397502D01*
X449869Y398971D01*
X449045Y400590D01*
X448483Y402318D01*
X448199Y404112D01*
X448199Y412497D01*
X458978Y412497D01*
X458998Y412500D01*
X459017Y412498D01*
X459119Y412520D01*
X459221Y412537D01*
X459238Y412546D01*
X459258Y412550D01*
X459347Y412603D01*
X459438Y412652D01*
X459452Y412666D01*
X459469Y412676D01*
X459536Y412755D01*
X459607Y412830D01*
X459616Y412848D01*
X459629Y412863D01*
X459667Y412959D01*
X459711Y413053D01*
X459713Y413073D01*
X459721Y413091D01*
X459739Y413258D01*
X459739Y414021D01*
X460502Y414021D01*
X460522Y414024D01*
X460541Y414022D01*
X460643Y414044D01*
X460745Y414061D01*
X460762Y414070D01*
X460782Y414074D01*
X460871Y414127D01*
X460962Y414176D01*
X460976Y414190D01*
X460993Y414200D01*
X461060Y414279D01*
X461131Y414354D01*
X461140Y414372D01*
X461153Y414387D01*
X461192Y414483D01*
X461235Y414577D01*
X461237Y414597D01*
X461245Y414615D01*
X461263Y414782D01*
X461263Y434463D01*
X462442Y434277D01*
X464170Y433715D01*
X465789Y432891D01*
X467258Y431823D01*
X468543Y430538D01*
X469611Y429069D01*
X470435Y427450D01*
X470997Y425722D01*
X471281Y423928D01*
X471281Y421559D01*
X471296Y421463D01*
X471306Y421366D01*
X471316Y421342D01*
X471320Y421316D01*
X471366Y421230D01*
X471406Y421141D01*
X471423Y421122D01*
X471436Y421099D01*
X471506Y421032D01*
X471572Y420960D01*
X471595Y420947D01*
X471614Y420929D01*
X471702Y420888D01*
X471788Y420841D01*
X471813Y420837D01*
X471837Y420826D01*
X471934Y420815D01*
X472030Y420798D01*
X472056Y420801D01*
X472081Y420799D01*
X472176Y420819D01*
X472273Y420833D01*
X472296Y420845D01*
X472322Y420851D01*
X472406Y420901D01*
X472492Y420945D01*
X472510Y420964D01*
X472533Y420977D01*
X472596Y421051D01*
X472664Y421121D01*
X472680Y421149D01*
X472693Y421164D01*
X472705Y421195D01*
X472745Y421268D01*
X473081Y422078D01*
X474392Y423389D01*
X474445Y423463D01*
X474505Y423533D01*
X474517Y423563D01*
X474536Y423589D01*
X474563Y423676D01*
X474597Y423761D01*
X474601Y423802D01*
X474608Y423824D01*
X474607Y423856D01*
X474615Y423927D01*
X474615Y425113D01*
X476218Y428982D01*
X479178Y431942D01*
X483047Y433545D01*
X487233Y433545D01*
X491102Y431942D01*
X494062Y428982D01*
X495665Y425113D01*
X495665Y423927D01*
X495679Y423837D01*
X495687Y423746D01*
X495699Y423717D01*
X495704Y423685D01*
X495747Y423604D01*
X495783Y423520D01*
X495809Y423488D01*
X495820Y423467D01*
X495843Y423445D01*
X495888Y423389D01*
X497199Y422078D01*
X499365Y416849D01*
X499365Y397367D01*
X499379Y397277D01*
X499387Y397186D01*
X499399Y397157D01*
X499404Y397125D01*
X499447Y397044D01*
X499483Y396960D01*
X499509Y396928D01*
X499520Y396907D01*
X499543Y396885D01*
X499588Y396829D01*
X500969Y395448D01*
X501043Y395395D01*
X501113Y395335D01*
X501143Y395323D01*
X501169Y395304D01*
X501256Y395277D01*
X501341Y395243D01*
X501382Y395239D01*
X501404Y395232D01*
X501436Y395233D01*
X501507Y395225D01*
X503487Y395225D01*
X503602Y395244D01*
X503718Y395261D01*
X503724Y395263D01*
X503730Y395264D01*
X503833Y395319D01*
X503937Y395372D01*
X503942Y395377D01*
X503947Y395380D01*
X504027Y395464D01*
X504110Y395548D01*
X504113Y395554D01*
X504117Y395558D01*
X504124Y395575D01*
X504190Y395695D01*
X505548Y398973D01*
X509049Y402474D01*
X513624Y404369D01*
X518576Y404369D01*
X523151Y402474D01*
X526652Y398973D01*
X528547Y394398D01*
X528547Y388273D01*
X528557Y388209D01*
X528558Y388143D01*
X528581Y388063D01*
X528586Y388031D01*
X528596Y388013D01*
X528605Y387982D01*
X530325Y383829D01*
X530325Y378171D01*
X528605Y374018D01*
X528590Y373954D01*
X528565Y373893D01*
X528556Y373810D01*
X528549Y373778D01*
X528550Y373759D01*
X528547Y373727D01*
X528547Y367602D01*
X526652Y363027D01*
X523151Y359526D01*
X518576Y357631D01*
X513624Y357631D01*
X509049Y359526D01*
X505548Y363027D01*
X504190Y366305D01*
X504129Y366405D01*
X504069Y366505D01*
X504064Y366509D01*
X504061Y366514D01*
X503971Y366589D01*
X503882Y366665D01*
X503876Y366667D01*
X503871Y366671D01*
X503763Y366713D01*
X503654Y366757D01*
X503646Y366758D01*
X503642Y366759D01*
X503623Y366760D01*
X503487Y366775D01*
X440221Y366775D01*
X440150Y366764D01*
X440079Y366762D01*
X440030Y366744D01*
X439978Y366736D01*
X439915Y366702D01*
X439848Y366677D01*
X439807Y366645D01*
X439761Y366620D01*
X439712Y366568D01*
X439656Y366524D01*
X439627Y366480D01*
X439592Y366442D01*
X439561Y366377D01*
X439523Y366317D01*
X439510Y366266D01*
X439488Y366219D01*
X439480Y366148D01*
X439463Y366078D01*
X439467Y366026D01*
X439461Y365975D01*
X439476Y365904D01*
X439482Y365833D01*
X439502Y365785D01*
X439513Y365734D01*
X439550Y365673D01*
X439578Y365607D01*
X439623Y365551D01*
X439639Y365523D01*
X439657Y365508D01*
X439683Y365476D01*
X441585Y363574D01*
X442977Y360213D01*
X442977Y356575D01*
X441585Y353214D01*
X439012Y350641D01*
X435651Y349249D01*
X416773Y349249D01*
X413412Y350641D01*
X410839Y353214D01*
X409447Y356575D01*
X409447Y360213D01*
X410839Y363574D01*
X412741Y365476D01*
X412783Y365534D01*
X412832Y365586D01*
X412854Y365633D01*
X412885Y365675D01*
X412906Y365744D01*
X412936Y365809D01*
X412942Y365861D01*
X412957Y365911D01*
X412955Y365982D01*
X412963Y366053D01*
X412952Y366104D01*
X412951Y366156D01*
X412926Y366224D01*
X412911Y366294D01*
X412884Y366339D01*
X412866Y366387D01*
X412821Y366443D01*
X412785Y366505D01*
X412745Y366539D01*
X412713Y366579D01*
X412652Y366618D01*
X412598Y366665D01*
X412549Y366684D01*
X412506Y366712D01*
X412436Y366730D01*
X412370Y366757D01*
X412298Y366765D01*
X412267Y366773D01*
X412244Y366771D01*
X412203Y366775D01*
X375197Y366775D01*
X375126Y366764D01*
X375055Y366762D01*
X375006Y366744D01*
X374954Y366736D01*
X374891Y366702D01*
X374824Y366677D01*
X374783Y366645D01*
X374737Y366620D01*
X374688Y366568D01*
X374632Y366524D01*
X374603Y366480D01*
X374568Y366442D01*
X374537Y366377D01*
X374499Y366317D01*
X374486Y366266D01*
X374464Y366219D01*
X374456Y366148D01*
X374439Y366078D01*
X374443Y366026D01*
X374437Y365975D01*
X374452Y365904D01*
X374458Y365833D01*
X374478Y365785D01*
X374489Y365734D01*
X374526Y365673D01*
X374554Y365607D01*
X374599Y365551D01*
X374615Y365523D01*
X374633Y365508D01*
X374659Y365476D01*
X376561Y363574D01*
X377953Y360213D01*
X377953Y356575D01*
X376561Y353214D01*
X373988Y350641D01*
X370627Y349249D01*
X351749Y349249D01*
G37*
%LPD*%
%LPC*%
G36*
X543864Y77660D02*
X543864Y77660D01*
X539733Y79371D01*
X536571Y82533D01*
X534860Y86664D01*
X534860Y91136D01*
X536571Y95267D01*
X539733Y98429D01*
X542073Y99398D01*
X542173Y99460D01*
X542273Y99520D01*
X542277Y99525D01*
X542282Y99528D01*
X542357Y99618D01*
X542433Y99707D01*
X542435Y99713D01*
X542439Y99718D01*
X542481Y99826D01*
X542525Y99935D01*
X542526Y99943D01*
X542527Y99947D01*
X542528Y99965D01*
X542543Y100102D01*
X542543Y125211D01*
X542529Y125302D01*
X542521Y125392D01*
X542509Y125422D01*
X542504Y125454D01*
X542461Y125535D01*
X542425Y125619D01*
X542399Y125651D01*
X542388Y125672D01*
X542365Y125694D01*
X542320Y125750D01*
X513163Y154907D01*
X513068Y154975D01*
X512974Y155045D01*
X512968Y155047D01*
X512963Y155051D01*
X512852Y155085D01*
X512740Y155121D01*
X512734Y155121D01*
X512728Y155123D01*
X512611Y155120D01*
X512494Y155119D01*
X512487Y155117D01*
X512482Y155117D01*
X512465Y155110D01*
X512333Y155072D01*
X510173Y154177D01*
X505827Y154177D01*
X501813Y155840D01*
X498740Y158913D01*
X497077Y162927D01*
X497077Y167273D01*
X498740Y171287D01*
X501813Y174360D01*
X505827Y176023D01*
X510173Y176023D01*
X511697Y175391D01*
X511764Y175376D01*
X511777Y175370D01*
X511793Y175369D01*
X511885Y175340D01*
X511911Y175341D01*
X511936Y175335D01*
X512033Y175344D01*
X512131Y175347D01*
X512155Y175356D01*
X512181Y175358D01*
X512270Y175398D01*
X512362Y175431D01*
X512382Y175448D01*
X512406Y175458D01*
X512478Y175524D01*
X512554Y175585D01*
X512568Y175607D01*
X512587Y175625D01*
X512634Y175710D01*
X512687Y175792D01*
X512693Y175817D01*
X512706Y175840D01*
X512723Y175936D01*
X512747Y176030D01*
X512745Y176056D01*
X512749Y176082D01*
X512735Y176179D01*
X512728Y176276D01*
X512717Y176300D01*
X512714Y176326D01*
X512669Y176413D01*
X512631Y176502D01*
X512611Y176527D01*
X512602Y176545D01*
X512578Y176568D01*
X512557Y176595D01*
X512551Y176604D01*
X512545Y176609D01*
X512527Y176633D01*
X505487Y183672D01*
X505413Y183725D01*
X505344Y183785D01*
X505314Y183797D01*
X505287Y183816D01*
X505201Y183843D01*
X505116Y183877D01*
X505075Y183881D01*
X505052Y183888D01*
X505020Y183887D01*
X504949Y183895D01*
X180851Y183895D01*
X180761Y183881D01*
X180670Y183873D01*
X180640Y183861D01*
X180608Y183856D01*
X180528Y183813D01*
X180444Y183777D01*
X180412Y183751D01*
X180391Y183740D01*
X180369Y183717D01*
X180313Y183672D01*
X130741Y134101D01*
X128314Y133095D01*
X100286Y133095D01*
X97859Y134101D01*
X83301Y148659D01*
X82295Y151086D01*
X82295Y158457D01*
X82281Y158547D01*
X82273Y158638D01*
X82261Y158668D01*
X82256Y158700D01*
X82213Y158780D01*
X82177Y158864D01*
X82151Y158896D01*
X82140Y158917D01*
X82117Y158939D01*
X82072Y158995D01*
X79755Y161312D01*
X79755Y168888D01*
X82072Y171205D01*
X82125Y171279D01*
X82185Y171348D01*
X82197Y171378D01*
X82216Y171405D01*
X82243Y171492D01*
X82277Y171576D01*
X82281Y171617D01*
X82288Y171640D01*
X82287Y171672D01*
X82295Y171743D01*
X82295Y183857D01*
X82281Y183947D01*
X82273Y184038D01*
X82261Y184068D01*
X82256Y184100D01*
X82213Y184180D01*
X82177Y184264D01*
X82151Y184296D01*
X82140Y184317D01*
X82117Y184339D01*
X82072Y184395D01*
X79755Y186712D01*
X79755Y194288D01*
X82072Y196605D01*
X82125Y196679D01*
X82185Y196748D01*
X82197Y196778D01*
X82216Y196805D01*
X82243Y196892D01*
X82277Y196976D01*
X82281Y197017D01*
X82288Y197040D01*
X82287Y197072D01*
X82295Y197143D01*
X82295Y209257D01*
X82281Y209347D01*
X82273Y209438D01*
X82261Y209468D01*
X82256Y209500D01*
X82213Y209580D01*
X82177Y209664D01*
X82151Y209696D01*
X82140Y209717D01*
X82117Y209739D01*
X82072Y209795D01*
X79755Y212112D01*
X79755Y219688D01*
X82072Y222005D01*
X82125Y222079D01*
X82147Y222104D01*
X82164Y222121D01*
X82165Y222126D01*
X82185Y222148D01*
X82197Y222178D01*
X82216Y222205D01*
X82243Y222292D01*
X82267Y222344D01*
X82268Y222356D01*
X82277Y222376D01*
X82281Y222417D01*
X82288Y222440D01*
X82287Y222472D01*
X82295Y222543D01*
X82295Y234657D01*
X82281Y234747D01*
X82273Y234838D01*
X82261Y234868D01*
X82256Y234900D01*
X82213Y234980D01*
X82177Y235064D01*
X82151Y235096D01*
X82140Y235117D01*
X82117Y235139D01*
X82072Y235195D01*
X79755Y237512D01*
X79755Y245088D01*
X85112Y250445D01*
X92688Y250445D01*
X98045Y245088D01*
X98045Y237512D01*
X95728Y235195D01*
X95675Y235121D01*
X95615Y235052D01*
X95603Y235022D01*
X95584Y234995D01*
X95557Y234908D01*
X95523Y234824D01*
X95519Y234783D01*
X95512Y234760D01*
X95513Y234728D01*
X95505Y234657D01*
X95505Y222543D01*
X95508Y222526D01*
X95506Y222510D01*
X95520Y222443D01*
X95527Y222362D01*
X95539Y222332D01*
X95544Y222300D01*
X95556Y222278D01*
X95558Y222270D01*
X95582Y222230D01*
X95587Y222220D01*
X95623Y222136D01*
X95649Y222104D01*
X95660Y222083D01*
X95683Y222061D01*
X95684Y222059D01*
X95686Y222057D01*
X95728Y222005D01*
X98045Y219688D01*
X98045Y212112D01*
X95728Y209795D01*
X95675Y209721D01*
X95615Y209652D01*
X95603Y209622D01*
X95584Y209595D01*
X95557Y209508D01*
X95523Y209424D01*
X95519Y209383D01*
X95512Y209360D01*
X95513Y209328D01*
X95505Y209257D01*
X95505Y197143D01*
X95519Y197053D01*
X95527Y196962D01*
X95539Y196932D01*
X95544Y196900D01*
X95587Y196820D01*
X95623Y196736D01*
X95649Y196704D01*
X95660Y196683D01*
X95683Y196661D01*
X95728Y196605D01*
X98045Y194288D01*
X98045Y186712D01*
X95728Y184395D01*
X95675Y184321D01*
X95615Y184252D01*
X95603Y184222D01*
X95584Y184195D01*
X95557Y184108D01*
X95523Y184024D01*
X95519Y183983D01*
X95512Y183960D01*
X95513Y183928D01*
X95505Y183857D01*
X95505Y171743D01*
X95519Y171653D01*
X95527Y171562D01*
X95539Y171532D01*
X95544Y171500D01*
X95587Y171420D01*
X95623Y171336D01*
X95649Y171304D01*
X95660Y171283D01*
X95683Y171261D01*
X95728Y171205D01*
X98045Y168888D01*
X98045Y161312D01*
X95728Y158995D01*
X95675Y158921D01*
X95615Y158852D01*
X95603Y158822D01*
X95584Y158795D01*
X95557Y158708D01*
X95523Y158624D01*
X95519Y158583D01*
X95512Y158560D01*
X95513Y158528D01*
X95505Y158457D01*
X95505Y155451D01*
X95519Y155361D01*
X95527Y155270D01*
X95539Y155240D01*
X95544Y155208D01*
X95587Y155127D01*
X95623Y155044D01*
X95649Y155012D01*
X95660Y154991D01*
X95683Y154969D01*
X95728Y154913D01*
X104113Y146528D01*
X104187Y146475D01*
X104256Y146415D01*
X104286Y146403D01*
X104313Y146384D01*
X104400Y146357D01*
X104484Y146323D01*
X104525Y146319D01*
X104548Y146312D01*
X104580Y146313D01*
X104651Y146305D01*
X123949Y146305D01*
X124039Y146319D01*
X124130Y146327D01*
X124160Y146339D01*
X124192Y146344D01*
X124272Y146387D01*
X124356Y146423D01*
X124388Y146449D01*
X124409Y146460D01*
X124431Y146483D01*
X124487Y146528D01*
X174059Y196099D01*
X176486Y197105D01*
X509314Y197105D01*
X511741Y196099D01*
X513706Y194134D01*
X531595Y176246D01*
X531669Y176193D01*
X531738Y176133D01*
X531768Y176121D01*
X531795Y176102D01*
X531881Y176075D01*
X531966Y176041D01*
X532007Y176037D01*
X532030Y176030D01*
X532062Y176031D01*
X532133Y176023D01*
X535573Y176023D01*
X539587Y174360D01*
X542660Y171287D01*
X544323Y167273D01*
X544323Y162927D01*
X542660Y158913D01*
X539587Y155840D01*
X535573Y154177D01*
X531227Y154177D01*
X527213Y155840D01*
X524140Y158913D01*
X522477Y162927D01*
X522477Y166367D01*
X522463Y166457D01*
X522455Y166548D01*
X522443Y166578D01*
X522438Y166610D01*
X522395Y166690D01*
X522359Y166774D01*
X522333Y166806D01*
X522322Y166827D01*
X522299Y166849D01*
X522254Y166905D01*
X519533Y169627D01*
X519454Y169683D01*
X519379Y169745D01*
X519354Y169755D01*
X519333Y169770D01*
X519240Y169799D01*
X519149Y169834D01*
X519123Y169835D01*
X519098Y169842D01*
X519001Y169840D01*
X518903Y169844D01*
X518878Y169837D01*
X518852Y169836D01*
X518761Y169803D01*
X518667Y169776D01*
X518646Y169761D01*
X518621Y169752D01*
X518545Y169691D01*
X518465Y169635D01*
X518450Y169614D01*
X518429Y169598D01*
X518376Y169516D01*
X518318Y169438D01*
X518310Y169413D01*
X518296Y169391D01*
X518272Y169297D01*
X518242Y169204D01*
X518242Y169178D01*
X518236Y169153D01*
X518244Y169056D01*
X518245Y168958D01*
X518254Y168927D01*
X518255Y168907D01*
X518268Y168877D01*
X518291Y168797D01*
X518923Y167273D01*
X518923Y162927D01*
X518028Y160767D01*
X518001Y160653D01*
X517973Y160540D01*
X517973Y160533D01*
X517972Y160527D01*
X517983Y160411D01*
X517992Y160294D01*
X517994Y160289D01*
X517995Y160282D01*
X518043Y160175D01*
X518088Y160068D01*
X518093Y160062D01*
X518095Y160058D01*
X518107Y160044D01*
X518193Y159937D01*
X549657Y128473D01*
X549657Y100102D01*
X549676Y99987D01*
X549693Y99871D01*
X549695Y99865D01*
X549696Y99859D01*
X549751Y99756D01*
X549804Y99652D01*
X549809Y99647D01*
X549812Y99642D01*
X549896Y99562D01*
X549980Y99479D01*
X549986Y99476D01*
X549990Y99472D01*
X550007Y99464D01*
X550127Y99398D01*
X552467Y98429D01*
X555629Y95267D01*
X557340Y91136D01*
X557340Y86664D01*
X555629Y82533D01*
X552467Y79371D01*
X548336Y77660D01*
X543864Y77660D01*
G37*
%LPD*%
%LPC*%
G36*
X290881Y300989D02*
X290881Y300989D01*
X278150Y313720D01*
X278076Y313773D01*
X278006Y313833D01*
X277976Y313845D01*
X277950Y313864D01*
X277863Y313891D01*
X277778Y313925D01*
X277737Y313929D01*
X277715Y313936D01*
X277683Y313935D01*
X277611Y313943D01*
X270963Y313943D01*
X270873Y313929D01*
X270782Y313921D01*
X270753Y313909D01*
X270721Y313904D01*
X270640Y313861D01*
X270556Y313825D01*
X270524Y313799D01*
X270503Y313788D01*
X270481Y313765D01*
X270425Y313720D01*
X268898Y312193D01*
X264502Y312193D01*
X261393Y315302D01*
X261393Y319698D01*
X264502Y322807D01*
X268898Y322807D01*
X270425Y321280D01*
X270499Y321227D01*
X270569Y321167D01*
X270599Y321155D01*
X270625Y321136D01*
X270712Y321109D01*
X270797Y321075D01*
X270838Y321071D01*
X270860Y321064D01*
X270892Y321065D01*
X270963Y321057D01*
X280873Y321057D01*
X293604Y308326D01*
X293678Y308273D01*
X293748Y308213D01*
X293778Y308201D01*
X293804Y308182D01*
X293891Y308155D01*
X293976Y308121D01*
X294017Y308117D01*
X294039Y308110D01*
X294071Y308111D01*
X294143Y308103D01*
X322312Y308103D01*
X322383Y308114D01*
X322455Y308116D01*
X322504Y308134D01*
X322555Y308142D01*
X322618Y308176D01*
X322686Y308201D01*
X322726Y308233D01*
X322773Y308258D01*
X322822Y308310D01*
X322878Y308354D01*
X322906Y308398D01*
X322942Y308436D01*
X322972Y308501D01*
X323011Y308561D01*
X323024Y308612D01*
X323046Y308659D01*
X323053Y308730D01*
X323071Y308800D01*
X323067Y308852D01*
X323073Y308903D01*
X323057Y308974D01*
X323052Y309045D01*
X323031Y309093D01*
X323020Y309144D01*
X322984Y309205D01*
X322955Y309271D01*
X322911Y309327D01*
X322894Y309355D01*
X322876Y309370D01*
X322851Y309402D01*
X320940Y311313D01*
X319277Y315327D01*
X319277Y319673D01*
X320940Y323687D01*
X322597Y325344D01*
X322639Y325402D01*
X322688Y325454D01*
X322710Y325501D01*
X322740Y325543D01*
X322761Y325612D01*
X322792Y325677D01*
X322797Y325729D01*
X322813Y325779D01*
X322811Y325850D01*
X322819Y325921D01*
X322808Y325972D01*
X322806Y326024D01*
X322782Y326092D01*
X322766Y326162D01*
X322740Y326207D01*
X322722Y326255D01*
X322677Y326311D01*
X322640Y326373D01*
X322601Y326407D01*
X322568Y326447D01*
X322508Y326486D01*
X322453Y326533D01*
X322405Y326552D01*
X322361Y326580D01*
X322292Y326598D01*
X322225Y326625D01*
X322154Y326633D01*
X322123Y326641D01*
X322099Y326639D01*
X322058Y326643D01*
X227127Y326643D01*
X199643Y354127D01*
X199643Y376737D01*
X199629Y376827D01*
X199621Y376918D01*
X199609Y376947D01*
X199604Y376979D01*
X199561Y377060D01*
X199525Y377144D01*
X199499Y377176D01*
X199488Y377197D01*
X199465Y377219D01*
X199420Y377275D01*
X197893Y378802D01*
X197893Y383198D01*
X201002Y386307D01*
X205398Y386307D01*
X208507Y383198D01*
X208507Y378802D01*
X206980Y377275D01*
X206927Y377201D01*
X206867Y377131D01*
X206855Y377101D01*
X206836Y377075D01*
X206809Y376988D01*
X206775Y376903D01*
X206771Y376862D01*
X206764Y376840D01*
X206765Y376808D01*
X206757Y376737D01*
X206757Y357389D01*
X206771Y357298D01*
X206779Y357208D01*
X206791Y357178D01*
X206796Y357146D01*
X206839Y357065D01*
X206875Y356981D01*
X206901Y356949D01*
X206912Y356928D01*
X206935Y356906D01*
X206980Y356850D01*
X229850Y333980D01*
X229924Y333927D01*
X229994Y333867D01*
X230024Y333855D01*
X230050Y333836D01*
X230137Y333809D01*
X230222Y333775D01*
X230263Y333771D01*
X230285Y333764D01*
X230317Y333765D01*
X230389Y333757D01*
X322792Y333757D01*
X322882Y333771D01*
X322973Y333779D01*
X323002Y333791D01*
X323034Y333796D01*
X323115Y333839D01*
X323199Y333875D01*
X323231Y333901D01*
X323252Y333912D01*
X323274Y333935D01*
X323330Y333980D01*
X323361Y334011D01*
X438639Y334011D01*
X438670Y333980D01*
X438744Y333927D01*
X438813Y333867D01*
X438844Y333855D01*
X438870Y333836D01*
X438957Y333809D01*
X439042Y333775D01*
X439083Y333771D01*
X439105Y333764D01*
X439137Y333765D01*
X439208Y333757D01*
X445973Y333757D01*
X452037Y327693D01*
X452131Y327625D01*
X452226Y327555D01*
X452232Y327553D01*
X452237Y327549D01*
X452348Y327515D01*
X452460Y327479D01*
X452466Y327479D01*
X452472Y327477D01*
X452589Y327480D01*
X452706Y327481D01*
X452713Y327483D01*
X452718Y327483D01*
X452735Y327490D01*
X452867Y327528D01*
X455027Y328423D01*
X459373Y328423D01*
X463387Y326760D01*
X466460Y323687D01*
X468123Y319673D01*
X468123Y315327D01*
X466460Y311313D01*
X463387Y308240D01*
X459373Y306577D01*
X455027Y306577D01*
X451013Y308240D01*
X447940Y311313D01*
X446277Y315327D01*
X446277Y319673D01*
X447172Y321833D01*
X447199Y321947D01*
X447227Y322060D01*
X447227Y322067D01*
X447228Y322073D01*
X447217Y322189D01*
X447208Y322306D01*
X447206Y322311D01*
X447205Y322318D01*
X447157Y322425D01*
X447112Y322532D01*
X447107Y322538D01*
X447105Y322542D01*
X447093Y322556D01*
X447007Y322663D01*
X443250Y326420D01*
X443176Y326473D01*
X443106Y326533D01*
X443076Y326545D01*
X443050Y326564D01*
X442963Y326591D01*
X442878Y326625D01*
X442837Y326629D01*
X442815Y326636D01*
X442783Y326635D01*
X442711Y326643D01*
X439942Y326643D01*
X439871Y326632D01*
X439799Y326630D01*
X439750Y326612D01*
X439699Y326604D01*
X439636Y326570D01*
X439568Y326545D01*
X439528Y326513D01*
X439481Y326488D01*
X439432Y326436D01*
X439376Y326392D01*
X439348Y326348D01*
X439312Y326310D01*
X439282Y326245D01*
X439243Y326185D01*
X439230Y326134D01*
X439208Y326087D01*
X439201Y326016D01*
X439183Y325946D01*
X439187Y325894D01*
X439181Y325843D01*
X439197Y325772D01*
X439202Y325701D01*
X439223Y325653D01*
X439234Y325602D01*
X439270Y325541D01*
X439299Y325475D01*
X439343Y325419D01*
X439360Y325391D01*
X439378Y325376D01*
X439403Y325344D01*
X441060Y323687D01*
X442723Y319673D01*
X442723Y315327D01*
X441060Y311313D01*
X437987Y308240D01*
X433973Y306577D01*
X429627Y306577D01*
X427467Y307472D01*
X427353Y307499D01*
X427240Y307527D01*
X427233Y307527D01*
X427227Y307528D01*
X427111Y307517D01*
X426994Y307508D01*
X426989Y307506D01*
X426982Y307505D01*
X426875Y307457D01*
X426768Y307412D01*
X426762Y307407D01*
X426758Y307405D01*
X426744Y307393D01*
X426637Y307307D01*
X420319Y300989D01*
X290881Y300989D01*
G37*
%LPD*%
%LPC*%
G36*
X86664Y77660D02*
X86664Y77660D01*
X82533Y79371D01*
X79371Y82533D01*
X77660Y86664D01*
X77660Y91136D01*
X79371Y95267D01*
X82533Y98429D01*
X86664Y100140D01*
X91136Y100140D01*
X95267Y98429D01*
X98429Y95267D01*
X99398Y92927D01*
X99460Y92827D01*
X99520Y92727D01*
X99525Y92723D01*
X99528Y92718D01*
X99618Y92643D01*
X99707Y92567D01*
X99713Y92565D01*
X99718Y92561D01*
X99826Y92519D01*
X99935Y92475D01*
X99943Y92474D01*
X99947Y92473D01*
X99965Y92472D01*
X100102Y92457D01*
X112511Y92457D01*
X112602Y92471D01*
X112692Y92479D01*
X112722Y92491D01*
X112754Y92496D01*
X112835Y92539D01*
X112919Y92575D01*
X112951Y92601D01*
X112972Y92612D01*
X112994Y92635D01*
X113050Y92680D01*
X176327Y155957D01*
X300654Y155957D01*
X300685Y155926D01*
X300758Y155873D01*
X300828Y155813D01*
X300858Y155801D01*
X300884Y155782D01*
X300971Y155755D01*
X301056Y155721D01*
X301097Y155717D01*
X301119Y155710D01*
X301152Y155711D01*
X301223Y155703D01*
X322312Y155703D01*
X322383Y155714D01*
X322455Y155716D01*
X322504Y155734D01*
X322555Y155742D01*
X322618Y155776D01*
X322686Y155801D01*
X322726Y155833D01*
X322773Y155858D01*
X322822Y155910D01*
X322878Y155954D01*
X322906Y155998D01*
X322942Y156036D01*
X322972Y156101D01*
X323011Y156161D01*
X323024Y156212D01*
X323046Y156259D01*
X323053Y156330D01*
X323071Y156400D01*
X323067Y156452D01*
X323073Y156503D01*
X323057Y156574D01*
X323052Y156645D01*
X323031Y156693D01*
X323020Y156744D01*
X322984Y156805D01*
X322955Y156871D01*
X322911Y156927D01*
X322894Y156955D01*
X322876Y156970D01*
X322851Y157002D01*
X320940Y158913D01*
X319277Y162927D01*
X319277Y167273D01*
X320940Y171287D01*
X324013Y174360D01*
X328027Y176023D01*
X332373Y176023D01*
X336387Y174360D01*
X339460Y171287D01*
X341123Y167273D01*
X341123Y162927D01*
X339460Y158913D01*
X337549Y157002D01*
X337507Y156944D01*
X337458Y156892D01*
X337436Y156845D01*
X337406Y156803D01*
X337385Y156734D01*
X337354Y156669D01*
X337349Y156617D01*
X337333Y156567D01*
X337335Y156496D01*
X337327Y156425D01*
X337338Y156374D01*
X337340Y156322D01*
X337364Y156254D01*
X337380Y156184D01*
X337406Y156139D01*
X337424Y156091D01*
X337469Y156035D01*
X337506Y155973D01*
X337545Y155939D01*
X337578Y155899D01*
X337638Y155860D01*
X337693Y155813D01*
X337741Y155794D01*
X337785Y155766D01*
X337854Y155748D01*
X337921Y155721D01*
X337992Y155713D01*
X338023Y155705D01*
X338047Y155707D01*
X338088Y155703D01*
X347712Y155703D01*
X347783Y155714D01*
X347855Y155716D01*
X347904Y155734D01*
X347955Y155742D01*
X348018Y155776D01*
X348086Y155801D01*
X348126Y155833D01*
X348173Y155858D01*
X348222Y155910D01*
X348278Y155954D01*
X348306Y155998D01*
X348342Y156036D01*
X348372Y156101D01*
X348411Y156161D01*
X348424Y156212D01*
X348446Y156259D01*
X348453Y156330D01*
X348471Y156400D01*
X348467Y156452D01*
X348473Y156503D01*
X348457Y156574D01*
X348452Y156645D01*
X348431Y156693D01*
X348420Y156744D01*
X348384Y156805D01*
X348355Y156871D01*
X348311Y156927D01*
X348294Y156955D01*
X348276Y156970D01*
X348251Y157002D01*
X346340Y158913D01*
X344677Y162927D01*
X344677Y167273D01*
X346340Y171287D01*
X349413Y174360D01*
X353427Y176023D01*
X357773Y176023D01*
X361787Y174360D01*
X364860Y171287D01*
X366523Y167273D01*
X366523Y162927D01*
X364860Y158913D01*
X362949Y157002D01*
X362907Y156944D01*
X362858Y156892D01*
X362836Y156845D01*
X362806Y156803D01*
X362785Y156734D01*
X362754Y156669D01*
X362749Y156617D01*
X362733Y156567D01*
X362735Y156496D01*
X362727Y156425D01*
X362738Y156374D01*
X362740Y156322D01*
X362764Y156254D01*
X362780Y156184D01*
X362806Y156139D01*
X362824Y156091D01*
X362869Y156035D01*
X362906Y155973D01*
X362945Y155939D01*
X362978Y155899D01*
X363038Y155860D01*
X363093Y155813D01*
X363141Y155794D01*
X363185Y155766D01*
X363254Y155748D01*
X363321Y155721D01*
X363392Y155713D01*
X363423Y155705D01*
X363447Y155707D01*
X363488Y155703D01*
X373112Y155703D01*
X373183Y155714D01*
X373255Y155716D01*
X373304Y155734D01*
X373355Y155742D01*
X373418Y155776D01*
X373486Y155801D01*
X373526Y155833D01*
X373573Y155858D01*
X373622Y155910D01*
X373678Y155954D01*
X373706Y155998D01*
X373742Y156036D01*
X373772Y156101D01*
X373811Y156161D01*
X373824Y156212D01*
X373846Y156259D01*
X373853Y156330D01*
X373871Y156400D01*
X373867Y156452D01*
X373873Y156503D01*
X373857Y156574D01*
X373852Y156645D01*
X373831Y156693D01*
X373820Y156744D01*
X373784Y156805D01*
X373755Y156871D01*
X373711Y156927D01*
X373694Y156955D01*
X373676Y156970D01*
X373651Y157002D01*
X371740Y158913D01*
X370077Y162927D01*
X370077Y167273D01*
X371740Y171287D01*
X374813Y174360D01*
X378827Y176023D01*
X383173Y176023D01*
X387187Y174360D01*
X390260Y171287D01*
X391923Y167273D01*
X391923Y162927D01*
X390260Y158913D01*
X388349Y157002D01*
X388307Y156944D01*
X388258Y156892D01*
X388236Y156845D01*
X388206Y156803D01*
X388185Y156734D01*
X388154Y156669D01*
X388149Y156617D01*
X388133Y156567D01*
X388135Y156496D01*
X388127Y156425D01*
X388138Y156374D01*
X388140Y156322D01*
X388164Y156254D01*
X388180Y156184D01*
X388206Y156139D01*
X388224Y156091D01*
X388269Y156035D01*
X388306Y155973D01*
X388345Y155939D01*
X388378Y155899D01*
X388438Y155860D01*
X388493Y155813D01*
X388541Y155794D01*
X388585Y155766D01*
X388654Y155748D01*
X388721Y155721D01*
X388792Y155713D01*
X388823Y155705D01*
X388847Y155707D01*
X388888Y155703D01*
X398512Y155703D01*
X398583Y155714D01*
X398655Y155716D01*
X398704Y155734D01*
X398755Y155742D01*
X398818Y155776D01*
X398886Y155801D01*
X398926Y155833D01*
X398973Y155858D01*
X399022Y155910D01*
X399078Y155954D01*
X399106Y155998D01*
X399142Y156036D01*
X399172Y156101D01*
X399211Y156161D01*
X399224Y156212D01*
X399246Y156259D01*
X399253Y156330D01*
X399271Y156400D01*
X399267Y156452D01*
X399273Y156503D01*
X399257Y156574D01*
X399252Y156645D01*
X399231Y156693D01*
X399220Y156744D01*
X399184Y156805D01*
X399155Y156871D01*
X399111Y156927D01*
X399094Y156955D01*
X399076Y156970D01*
X399051Y157002D01*
X397140Y158913D01*
X395477Y162927D01*
X395477Y167273D01*
X397140Y171287D01*
X400213Y174360D01*
X404227Y176023D01*
X408573Y176023D01*
X412587Y174360D01*
X415660Y171287D01*
X417323Y167273D01*
X417323Y162927D01*
X415660Y158913D01*
X413749Y157002D01*
X413707Y156944D01*
X413658Y156892D01*
X413636Y156845D01*
X413606Y156803D01*
X413585Y156734D01*
X413554Y156669D01*
X413549Y156617D01*
X413533Y156567D01*
X413535Y156496D01*
X413527Y156425D01*
X413538Y156374D01*
X413540Y156322D01*
X413564Y156254D01*
X413580Y156184D01*
X413606Y156139D01*
X413624Y156091D01*
X413669Y156035D01*
X413706Y155973D01*
X413745Y155939D01*
X413778Y155899D01*
X413838Y155860D01*
X413893Y155813D01*
X413941Y155794D01*
X413985Y155766D01*
X414054Y155748D01*
X414121Y155721D01*
X414192Y155713D01*
X414223Y155705D01*
X414247Y155707D01*
X414288Y155703D01*
X417057Y155703D01*
X417148Y155717D01*
X417238Y155725D01*
X417268Y155737D01*
X417300Y155742D01*
X417381Y155785D01*
X417465Y155821D01*
X417497Y155847D01*
X417518Y155858D01*
X417540Y155881D01*
X417596Y155926D01*
X421607Y159937D01*
X421676Y160032D01*
X421745Y160126D01*
X421747Y160132D01*
X421751Y160137D01*
X421785Y160249D01*
X421821Y160360D01*
X421821Y160366D01*
X421823Y160372D01*
X421820Y160489D01*
X421819Y160606D01*
X421817Y160613D01*
X421817Y160618D01*
X421810Y160635D01*
X421772Y160767D01*
X420877Y162927D01*
X420877Y167273D01*
X422540Y171287D01*
X425613Y174360D01*
X429627Y176023D01*
X433973Y176023D01*
X437987Y174360D01*
X441060Y171287D01*
X442723Y167273D01*
X442723Y162927D01*
X441060Y158913D01*
X437987Y155840D01*
X433973Y154177D01*
X429627Y154177D01*
X427467Y155072D01*
X427353Y155099D01*
X427240Y155127D01*
X427233Y155127D01*
X427227Y155128D01*
X427111Y155117D01*
X426994Y155108D01*
X426989Y155106D01*
X426982Y155105D01*
X426875Y155057D01*
X426768Y155012D01*
X426762Y155007D01*
X426758Y155005D01*
X426744Y154993D01*
X426637Y154907D01*
X420319Y148589D01*
X297961Y148589D01*
X297930Y148620D01*
X297856Y148673D01*
X297787Y148733D01*
X297756Y148745D01*
X297730Y148764D01*
X297643Y148791D01*
X297558Y148825D01*
X297517Y148829D01*
X297495Y148836D01*
X297463Y148835D01*
X297392Y148843D01*
X179589Y148843D01*
X179498Y148829D01*
X179408Y148821D01*
X179378Y148809D01*
X179346Y148804D01*
X179265Y148761D01*
X179181Y148725D01*
X179149Y148699D01*
X179128Y148688D01*
X179106Y148665D01*
X179050Y148620D01*
X115773Y85343D01*
X100102Y85343D01*
X99987Y85324D01*
X99871Y85307D01*
X99865Y85305D01*
X99859Y85304D01*
X99756Y85249D01*
X99652Y85196D01*
X99647Y85191D01*
X99642Y85188D01*
X99562Y85104D01*
X99479Y85020D01*
X99476Y85014D01*
X99472Y85010D01*
X99464Y84993D01*
X99398Y84873D01*
X98429Y82533D01*
X95267Y79371D01*
X91136Y77660D01*
X86664Y77660D01*
G37*
%LPD*%
%LPC*%
G36*
X176327Y237743D02*
X176327Y237743D01*
X136143Y277927D01*
X136143Y313237D01*
X136129Y313327D01*
X136121Y313418D01*
X136109Y313447D01*
X136104Y313479D01*
X136061Y313560D01*
X136025Y313644D01*
X135999Y313676D01*
X135988Y313697D01*
X135965Y313719D01*
X135920Y313775D01*
X134393Y315302D01*
X134393Y319698D01*
X137502Y322807D01*
X141898Y322807D01*
X145007Y319698D01*
X145007Y315302D01*
X143480Y313775D01*
X143427Y313701D01*
X143367Y313631D01*
X143355Y313601D01*
X143336Y313575D01*
X143309Y313488D01*
X143275Y313403D01*
X143271Y313362D01*
X143264Y313340D01*
X143265Y313308D01*
X143257Y313237D01*
X143257Y281189D01*
X143271Y281098D01*
X143279Y281008D01*
X143291Y280978D01*
X143296Y280946D01*
X143339Y280865D01*
X143375Y280781D01*
X143401Y280749D01*
X143412Y280728D01*
X143435Y280706D01*
X143456Y280680D01*
X143459Y280675D01*
X143462Y280672D01*
X143480Y280650D01*
X179050Y245080D01*
X179124Y245027D01*
X179194Y244967D01*
X179224Y244955D01*
X179250Y244936D01*
X179337Y244909D01*
X179422Y244875D01*
X179463Y244871D01*
X179485Y244864D01*
X179517Y244865D01*
X179589Y244857D01*
X252211Y244857D01*
X252302Y244871D01*
X252392Y244879D01*
X252422Y244891D01*
X252454Y244896D01*
X252535Y244939D01*
X252619Y244975D01*
X252651Y245001D01*
X252672Y245012D01*
X252694Y245035D01*
X252750Y245080D01*
X290627Y282957D01*
X468111Y282957D01*
X468202Y282971D01*
X468292Y282979D01*
X468322Y282991D01*
X468354Y282996D01*
X468435Y283039D01*
X468519Y283075D01*
X468551Y283101D01*
X468572Y283112D01*
X468594Y283135D01*
X468650Y283180D01*
X497807Y312337D01*
X497875Y312431D01*
X497945Y312526D01*
X497947Y312532D01*
X497951Y312537D01*
X497985Y312647D01*
X498021Y312760D01*
X498021Y312766D01*
X498023Y312772D01*
X498020Y312889D01*
X498019Y313006D01*
X498017Y313013D01*
X498017Y313018D01*
X498010Y313035D01*
X497972Y313167D01*
X497077Y315327D01*
X497077Y319673D01*
X498740Y323687D01*
X501813Y326760D01*
X505827Y328423D01*
X510173Y328423D01*
X514187Y326760D01*
X517260Y323687D01*
X518923Y319673D01*
X518923Y315327D01*
X517260Y311313D01*
X514187Y308240D01*
X510173Y306577D01*
X505827Y306577D01*
X503667Y307472D01*
X503553Y307499D01*
X503440Y307527D01*
X503433Y307527D01*
X503427Y307528D01*
X503311Y307517D01*
X503194Y307508D01*
X503189Y307506D01*
X503182Y307505D01*
X503075Y307457D01*
X502968Y307412D01*
X502962Y307407D01*
X502958Y307405D01*
X502944Y307393D01*
X502837Y307307D01*
X471373Y275843D01*
X293889Y275843D01*
X293798Y275829D01*
X293708Y275821D01*
X293678Y275809D01*
X293646Y275804D01*
X293565Y275761D01*
X293481Y275725D01*
X293449Y275699D01*
X293428Y275688D01*
X293423Y275683D01*
X293422Y275682D01*
X293405Y275664D01*
X293350Y275620D01*
X255473Y237743D01*
X176327Y237743D01*
G37*
%LPD*%
%LPC*%
G36*
X201002Y248693D02*
X201002Y248693D01*
X197893Y251802D01*
X197893Y256198D01*
X201002Y259307D01*
X205398Y259307D01*
X206925Y257780D01*
X206999Y257727D01*
X207069Y257667D01*
X207099Y257655D01*
X207125Y257636D01*
X207212Y257609D01*
X207297Y257575D01*
X207338Y257571D01*
X207360Y257564D01*
X207392Y257565D01*
X207463Y257557D01*
X239511Y257557D01*
X239602Y257571D01*
X239692Y257579D01*
X239722Y257591D01*
X239754Y257596D01*
X239835Y257639D01*
X239919Y257675D01*
X239951Y257701D01*
X239972Y257712D01*
X239981Y257721D01*
X239982Y257722D01*
X239996Y257737D01*
X240050Y257780D01*
X275620Y293350D01*
X277927Y295657D01*
X455411Y295657D01*
X455502Y295671D01*
X455592Y295679D01*
X455622Y295691D01*
X455654Y295696D01*
X455735Y295739D01*
X455819Y295775D01*
X455851Y295801D01*
X455872Y295812D01*
X455894Y295835D01*
X455950Y295880D01*
X472407Y312337D01*
X472475Y312432D01*
X472545Y312526D01*
X472547Y312532D01*
X472551Y312537D01*
X472585Y312647D01*
X472621Y312760D01*
X472621Y312766D01*
X472623Y312772D01*
X472620Y312889D01*
X472619Y313006D01*
X472617Y313013D01*
X472617Y313018D01*
X472610Y313035D01*
X472572Y313167D01*
X471677Y315327D01*
X471677Y319673D01*
X473340Y323687D01*
X476413Y326760D01*
X480427Y328423D01*
X484773Y328423D01*
X488787Y326760D01*
X491860Y323687D01*
X493523Y319673D01*
X493523Y315327D01*
X491860Y311313D01*
X488787Y308240D01*
X484773Y306577D01*
X480427Y306577D01*
X478267Y307472D01*
X478153Y307499D01*
X478040Y307527D01*
X478033Y307527D01*
X478027Y307528D01*
X477911Y307517D01*
X477794Y307508D01*
X477789Y307506D01*
X477782Y307505D01*
X477675Y307457D01*
X477568Y307412D01*
X477562Y307407D01*
X477558Y307405D01*
X477544Y307393D01*
X477437Y307307D01*
X458673Y288543D01*
X281189Y288543D01*
X281098Y288529D01*
X281008Y288521D01*
X280978Y288509D01*
X280946Y288504D01*
X280865Y288461D01*
X280781Y288425D01*
X280749Y288399D01*
X280728Y288388D01*
X280706Y288365D01*
X280650Y288320D01*
X242773Y250443D01*
X207463Y250443D01*
X207373Y250429D01*
X207282Y250421D01*
X207253Y250409D01*
X207221Y250404D01*
X207140Y250361D01*
X207056Y250325D01*
X207024Y250299D01*
X207003Y250288D01*
X206981Y250265D01*
X206925Y250220D01*
X205398Y248693D01*
X201002Y248693D01*
G37*
%LPD*%
%LPC*%
G36*
X239064Y77660D02*
X239064Y77660D01*
X234933Y79371D01*
X231771Y82533D01*
X230060Y86664D01*
X230060Y91136D01*
X231771Y95267D01*
X234933Y98429D01*
X239064Y100140D01*
X243536Y100140D01*
X245876Y99171D01*
X245990Y99144D01*
X246103Y99116D01*
X246110Y99116D01*
X246116Y99115D01*
X246232Y99126D01*
X246349Y99135D01*
X246354Y99137D01*
X246361Y99138D01*
X246468Y99186D01*
X246575Y99231D01*
X246581Y99236D01*
X246585Y99238D01*
X246599Y99250D01*
X246706Y99336D01*
X288320Y140950D01*
X290627Y143257D01*
X430011Y143257D01*
X430102Y143271D01*
X430192Y143279D01*
X430222Y143291D01*
X430254Y143296D01*
X430335Y143339D01*
X430419Y143375D01*
X430451Y143401D01*
X430472Y143412D01*
X430494Y143435D01*
X430550Y143480D01*
X447007Y159937D01*
X447075Y160032D01*
X447145Y160126D01*
X447147Y160132D01*
X447151Y160137D01*
X447185Y160248D01*
X447221Y160360D01*
X447221Y160366D01*
X447223Y160372D01*
X447220Y160489D01*
X447219Y160606D01*
X447217Y160613D01*
X447217Y160618D01*
X447210Y160635D01*
X447172Y160767D01*
X446277Y162927D01*
X446277Y167273D01*
X447940Y171287D01*
X451013Y174360D01*
X455027Y176023D01*
X459373Y176023D01*
X463387Y174360D01*
X466460Y171287D01*
X468123Y167273D01*
X468123Y162927D01*
X466460Y158913D01*
X463387Y155840D01*
X459373Y154177D01*
X455027Y154177D01*
X452867Y155072D01*
X452753Y155099D01*
X452640Y155127D01*
X452633Y155127D01*
X452627Y155128D01*
X452511Y155117D01*
X452394Y155108D01*
X452389Y155106D01*
X452382Y155105D01*
X452275Y155057D01*
X452168Y155012D01*
X452162Y155007D01*
X452158Y155005D01*
X452144Y154993D01*
X452037Y154907D01*
X433273Y136143D01*
X293889Y136143D01*
X293798Y136129D01*
X293708Y136121D01*
X293678Y136109D01*
X293646Y136104D01*
X293565Y136061D01*
X293481Y136025D01*
X293449Y135999D01*
X293428Y135988D01*
X293406Y135965D01*
X293350Y135920D01*
X251736Y94306D01*
X251668Y94211D01*
X251598Y94117D01*
X251596Y94111D01*
X251592Y94106D01*
X251558Y93995D01*
X251522Y93883D01*
X251522Y93877D01*
X251520Y93871D01*
X251523Y93754D01*
X251524Y93637D01*
X251526Y93630D01*
X251526Y93625D01*
X251533Y93608D01*
X251571Y93476D01*
X252540Y91136D01*
X252540Y86664D01*
X250829Y82533D01*
X247667Y79371D01*
X243536Y77660D01*
X239064Y77660D01*
G37*
%LPD*%
%LPC*%
G36*
X580622Y214121D02*
X580622Y214121D01*
X573709Y215973D01*
X567512Y219552D01*
X562452Y224612D01*
X558873Y230809D01*
X557021Y237722D01*
X557021Y244878D01*
X558873Y251791D01*
X562452Y257988D01*
X567512Y263048D01*
X573709Y266627D01*
X580622Y268479D01*
X587778Y268479D01*
X594691Y266627D01*
X600888Y263048D01*
X605948Y257988D01*
X609527Y251791D01*
X611379Y244878D01*
X611379Y237722D01*
X609527Y230809D01*
X605948Y224612D01*
X600888Y219552D01*
X594691Y215973D01*
X587778Y214121D01*
X580622Y214121D01*
G37*
%LPD*%
%LPC*%
G36*
X352022Y214121D02*
X352022Y214121D01*
X345109Y215973D01*
X338912Y219552D01*
X333852Y224612D01*
X330273Y230809D01*
X328421Y237722D01*
X328421Y244878D01*
X330273Y251791D01*
X333852Y257988D01*
X338912Y263048D01*
X345109Y266627D01*
X352022Y268479D01*
X359178Y268479D01*
X366091Y266627D01*
X372288Y263048D01*
X377348Y257988D01*
X380927Y251791D01*
X382779Y244878D01*
X382779Y237722D01*
X380927Y230809D01*
X377348Y224612D01*
X372288Y219552D01*
X366091Y215973D01*
X359178Y214121D01*
X352022Y214121D01*
G37*
%LPD*%
%LPC*%
G36*
X391464Y77660D02*
X391464Y77660D01*
X387333Y79371D01*
X384171Y82533D01*
X382460Y86664D01*
X382460Y91136D01*
X384171Y95267D01*
X387333Y98429D01*
X391464Y100140D01*
X395936Y100140D01*
X400067Y98429D01*
X403229Y95267D01*
X404113Y93132D01*
X404138Y93093D01*
X404153Y93050D01*
X404202Y92989D01*
X404243Y92923D01*
X404278Y92894D01*
X404307Y92858D01*
X404373Y92816D01*
X404433Y92766D01*
X404475Y92750D01*
X404514Y92725D01*
X404590Y92706D01*
X404662Y92678D01*
X404708Y92676D01*
X404752Y92665D01*
X404830Y92671D01*
X404908Y92667D01*
X404952Y92680D01*
X404998Y92684D01*
X405069Y92714D01*
X405144Y92736D01*
X405182Y92762D01*
X405224Y92780D01*
X405331Y92866D01*
X405346Y92876D01*
X405349Y92880D01*
X405355Y92885D01*
X472407Y159937D01*
X472475Y160032D01*
X472545Y160126D01*
X472547Y160132D01*
X472551Y160137D01*
X472585Y160248D01*
X472621Y160360D01*
X472621Y160366D01*
X472623Y160372D01*
X472620Y160489D01*
X472619Y160606D01*
X472617Y160613D01*
X472617Y160618D01*
X472610Y160635D01*
X472572Y160767D01*
X471677Y162927D01*
X471677Y167273D01*
X473340Y171287D01*
X476413Y174360D01*
X480427Y176023D01*
X484773Y176023D01*
X488787Y174360D01*
X491860Y171287D01*
X493523Y167273D01*
X493523Y162927D01*
X491860Y158913D01*
X488787Y155840D01*
X484773Y154177D01*
X480427Y154177D01*
X478267Y155072D01*
X478153Y155099D01*
X478040Y155127D01*
X478033Y155127D01*
X478027Y155128D01*
X477911Y155117D01*
X477794Y155108D01*
X477789Y155106D01*
X477782Y155105D01*
X477675Y155057D01*
X477568Y155012D01*
X477562Y155007D01*
X477558Y155005D01*
X477544Y154993D01*
X477437Y154907D01*
X410180Y87650D01*
X407873Y85343D01*
X404902Y85343D01*
X404787Y85324D01*
X404671Y85307D01*
X404665Y85305D01*
X404659Y85304D01*
X404556Y85249D01*
X404452Y85196D01*
X404447Y85191D01*
X404442Y85188D01*
X404362Y85104D01*
X404279Y85020D01*
X404276Y85014D01*
X404272Y85010D01*
X404264Y84993D01*
X404198Y84873D01*
X403229Y82533D01*
X400067Y79371D01*
X395936Y77660D01*
X391464Y77660D01*
G37*
%LPD*%
%LPC*%
G36*
X532702Y416553D02*
X532702Y416553D01*
X528127Y418448D01*
X524626Y421949D01*
X522731Y426524D01*
X522731Y431476D01*
X524626Y436051D01*
X528127Y439552D01*
X532702Y441447D01*
X559498Y441447D01*
X564073Y439552D01*
X567574Y436051D01*
X569469Y431476D01*
X569469Y426524D01*
X567574Y421949D01*
X564073Y418448D01*
X559498Y416553D01*
X532702Y416553D01*
G37*
%LPD*%
%LPC*%
G36*
X79461Y333755D02*
X79461Y333755D01*
X76100Y335147D01*
X73527Y337720D01*
X72135Y341081D01*
X72135Y344719D01*
X73527Y348080D01*
X76100Y350653D01*
X79461Y352045D01*
X98339Y352045D01*
X101700Y350653D01*
X104273Y348080D01*
X105665Y344719D01*
X105665Y341081D01*
X104273Y337720D01*
X101700Y335147D01*
X98339Y333755D01*
X79461Y333755D01*
G37*
%LPD*%
%LPC*%
G36*
X239064Y27622D02*
X239064Y27622D01*
X234933Y29333D01*
X231771Y32495D01*
X230060Y36626D01*
X230060Y41098D01*
X231771Y45229D01*
X234933Y48391D01*
X239064Y50102D01*
X243536Y50102D01*
X247667Y48391D01*
X250829Y45229D01*
X252540Y41098D01*
X252540Y36626D01*
X250829Y32495D01*
X247667Y29333D01*
X243536Y27622D01*
X239064Y27622D01*
G37*
%LPD*%
%LPC*%
G36*
X391464Y27622D02*
X391464Y27622D01*
X387333Y29333D01*
X384171Y32495D01*
X382460Y36626D01*
X382460Y41098D01*
X384171Y45229D01*
X387333Y48391D01*
X391464Y50102D01*
X395936Y50102D01*
X400067Y48391D01*
X403229Y45229D01*
X404940Y41098D01*
X404940Y36626D01*
X403229Y32495D01*
X400067Y29333D01*
X395936Y27622D01*
X391464Y27622D01*
G37*
%LPD*%
%LPC*%
G36*
X543864Y27622D02*
X543864Y27622D01*
X539733Y29333D01*
X536571Y32495D01*
X534860Y36626D01*
X534860Y41098D01*
X536571Y45229D01*
X539733Y48391D01*
X543864Y50102D01*
X548336Y50102D01*
X552467Y48391D01*
X555629Y45229D01*
X557340Y41098D01*
X557340Y36626D01*
X555629Y32495D01*
X552467Y29333D01*
X548336Y27622D01*
X543864Y27622D01*
G37*
%LPD*%
%LPC*%
G36*
X86664Y27622D02*
X86664Y27622D01*
X82533Y29333D01*
X79371Y32495D01*
X77660Y36626D01*
X77660Y41098D01*
X79371Y45229D01*
X82533Y48391D01*
X86664Y50102D01*
X91136Y50102D01*
X95267Y48391D01*
X98429Y45229D01*
X100140Y41098D01*
X100140Y36626D01*
X98429Y32495D01*
X95267Y29333D01*
X91136Y27622D01*
X86664Y27622D01*
G37*
%LPD*%
%LPC*%
G36*
X607427Y306577D02*
X607427Y306577D01*
X603413Y308240D01*
X600340Y311313D01*
X598677Y315327D01*
X598677Y319673D01*
X600340Y323687D01*
X603413Y326760D01*
X607427Y328423D01*
X611773Y328423D01*
X615787Y326760D01*
X618860Y323687D01*
X620523Y319673D01*
X620523Y315327D01*
X618860Y311313D01*
X615787Y308240D01*
X611773Y306577D01*
X607427Y306577D01*
G37*
%LPD*%
%LPC*%
G36*
X582027Y306577D02*
X582027Y306577D01*
X578013Y308240D01*
X574940Y311313D01*
X573277Y315327D01*
X573277Y319673D01*
X574940Y323687D01*
X578013Y326760D01*
X582027Y328423D01*
X586373Y328423D01*
X590387Y326760D01*
X593460Y323687D01*
X595123Y319673D01*
X595123Y315327D01*
X593460Y311313D01*
X590387Y308240D01*
X586373Y306577D01*
X582027Y306577D01*
G37*
%LPD*%
%LPC*%
G36*
X607427Y154177D02*
X607427Y154177D01*
X603413Y155840D01*
X600340Y158913D01*
X598677Y162927D01*
X598677Y167273D01*
X600340Y171287D01*
X603413Y174360D01*
X607427Y176023D01*
X611773Y176023D01*
X615787Y174360D01*
X618860Y171287D01*
X620523Y167273D01*
X620523Y162927D01*
X618860Y158913D01*
X615787Y155840D01*
X611773Y154177D01*
X607427Y154177D01*
G37*
%LPD*%
%LPC*%
G36*
X556627Y154177D02*
X556627Y154177D01*
X552613Y155840D01*
X549540Y158913D01*
X547877Y162927D01*
X547877Y167273D01*
X549540Y171287D01*
X552613Y174360D01*
X556627Y176023D01*
X560973Y176023D01*
X564987Y174360D01*
X568060Y171287D01*
X569723Y167273D01*
X569723Y162927D01*
X568060Y158913D01*
X564987Y155840D01*
X560973Y154177D01*
X556627Y154177D01*
G37*
%LPD*%
%LPC*%
G36*
X110512Y206755D02*
X110512Y206755D01*
X105155Y212112D01*
X105155Y219688D01*
X110512Y225045D01*
X118088Y225045D01*
X123445Y219688D01*
X123445Y212112D01*
X118088Y206755D01*
X110512Y206755D01*
G37*
%LPD*%
%LPC*%
G36*
X110512Y181355D02*
X110512Y181355D01*
X105155Y186712D01*
X105155Y194288D01*
X110512Y199645D01*
X118088Y199645D01*
X123445Y194288D01*
X123445Y186712D01*
X118088Y181355D01*
X110512Y181355D01*
G37*
%LPD*%
%LPC*%
G36*
X110512Y155955D02*
X110512Y155955D01*
X105155Y161312D01*
X105155Y168888D01*
X110512Y174245D01*
X118088Y174245D01*
X123445Y168888D01*
X123445Y161312D01*
X118088Y155955D01*
X110512Y155955D01*
G37*
%LPD*%
%LPC*%
G36*
X110512Y232155D02*
X110512Y232155D01*
X105155Y237512D01*
X105155Y245088D01*
X110512Y250445D01*
X118088Y250445D01*
X123445Y245088D01*
X123445Y237512D01*
X118088Y232155D01*
X110512Y232155D01*
G37*
%LPD*%
%LPC*%
G36*
X577623Y382523D02*
X577623Y382523D01*
X577623Y405311D01*
X579252Y405053D01*
X581268Y404398D01*
X583156Y403436D01*
X584870Y402191D01*
X586369Y400692D01*
X587614Y398978D01*
X588576Y397090D01*
X589231Y395074D01*
X589563Y392982D01*
X589563Y382523D01*
X577623Y382523D01*
G37*
%LPD*%
%LPC*%
G36*
X577623Y379477D02*
X577623Y379477D01*
X589563Y379477D01*
X589563Y369018D01*
X589231Y366926D01*
X588576Y364910D01*
X587614Y363022D01*
X586369Y361308D01*
X584870Y359809D01*
X583156Y358564D01*
X581268Y357602D01*
X579252Y356947D01*
X577623Y356689D01*
X577623Y379477D01*
G37*
%LPD*%
%LPC*%
G36*
X562637Y382523D02*
X562637Y382523D01*
X562637Y392982D01*
X562969Y395074D01*
X563624Y397090D01*
X564586Y398978D01*
X565831Y400692D01*
X567330Y402191D01*
X569044Y403436D01*
X570932Y404398D01*
X572948Y405053D01*
X574577Y405311D01*
X574577Y382523D01*
X562637Y382523D01*
G37*
%LPD*%
%LPC*%
G36*
X572948Y356947D02*
X572948Y356947D01*
X570932Y357602D01*
X569044Y358564D01*
X567330Y359809D01*
X565831Y361308D01*
X564586Y363022D01*
X563624Y364910D01*
X562969Y366926D01*
X562637Y369018D01*
X562637Y379477D01*
X574577Y379477D01*
X574577Y356689D01*
X572948Y356947D01*
G37*
%LPD*%
%LPC*%
G36*
X448199Y415543D02*
X448199Y415543D01*
X448199Y423928D01*
X448483Y425722D01*
X449045Y427450D01*
X449869Y429069D01*
X450937Y430538D01*
X452222Y431823D01*
X453691Y432891D01*
X455310Y433715D01*
X457038Y434277D01*
X458217Y434463D01*
X458217Y415543D01*
X448199Y415543D01*
G37*
%LPD*%
%LPC*%
G36*
X362711Y405129D02*
X362711Y405129D01*
X362711Y413767D01*
X369608Y413767D01*
X371187Y413517D01*
X372708Y413022D01*
X374133Y412296D01*
X375427Y411356D01*
X376558Y410225D01*
X377498Y408931D01*
X378224Y407506D01*
X378719Y405985D01*
X378854Y405129D01*
X362711Y405129D01*
G37*
%LPD*%
%LPC*%
G36*
X427735Y405129D02*
X427735Y405129D01*
X427735Y413767D01*
X434632Y413767D01*
X436211Y413517D01*
X437732Y413022D01*
X439157Y412296D01*
X440451Y411356D01*
X441582Y410225D01*
X442522Y408931D01*
X443248Y407506D01*
X443743Y405985D01*
X443878Y405129D01*
X427735Y405129D01*
G37*
%LPD*%
%LPC*%
G36*
X90423Y395223D02*
X90423Y395223D01*
X90423Y403861D01*
X97320Y403861D01*
X98899Y403611D01*
X100420Y403116D01*
X101845Y402390D01*
X103139Y401450D01*
X104270Y400319D01*
X105210Y399025D01*
X105936Y397600D01*
X106431Y396079D01*
X106566Y395223D01*
X90423Y395223D01*
G37*
%LPD*%
%LPC*%
G36*
X408546Y405129D02*
X408546Y405129D01*
X408681Y405985D01*
X409176Y407506D01*
X409902Y408931D01*
X410842Y410225D01*
X411973Y411356D01*
X413267Y412296D01*
X414692Y413022D01*
X416213Y413517D01*
X417792Y413767D01*
X424689Y413767D01*
X424689Y405129D01*
X408546Y405129D01*
G37*
%LPD*%
%LPC*%
G36*
X343522Y405129D02*
X343522Y405129D01*
X343657Y405985D01*
X344152Y407506D01*
X344878Y408931D01*
X345818Y410225D01*
X346949Y411356D01*
X348243Y412296D01*
X349668Y413022D01*
X351189Y413517D01*
X352768Y413767D01*
X359665Y413767D01*
X359665Y405129D01*
X343522Y405129D01*
G37*
%LPD*%
%LPC*%
G36*
X71234Y395223D02*
X71234Y395223D01*
X71369Y396079D01*
X71864Y397600D01*
X72590Y399025D01*
X73530Y400319D01*
X74661Y401450D01*
X75955Y402390D01*
X77380Y403116D01*
X78901Y403611D01*
X80480Y403861D01*
X87377Y403861D01*
X87377Y395223D01*
X71234Y395223D01*
G37*
%LPD*%
%LPC*%
G36*
X166623Y90423D02*
X166623Y90423D01*
X166623Y101068D01*
X167970Y100854D01*
X169805Y100258D01*
X171524Y99383D01*
X173085Y98248D01*
X174448Y96885D01*
X175583Y95324D01*
X176458Y93605D01*
X177054Y91770D01*
X177268Y90423D01*
X166623Y90423D01*
G37*
%LPD*%
%LPC*%
G36*
X319023Y40385D02*
X319023Y40385D01*
X319023Y51030D01*
X320370Y50816D01*
X322205Y50220D01*
X323924Y49345D01*
X325485Y48210D01*
X326848Y46847D01*
X327983Y45286D01*
X328858Y43567D01*
X329454Y41732D01*
X329668Y40385D01*
X319023Y40385D01*
G37*
%LPD*%
%LPC*%
G36*
X623823Y40385D02*
X623823Y40385D01*
X623823Y51030D01*
X625170Y50816D01*
X627005Y50220D01*
X628724Y49345D01*
X630285Y48210D01*
X631648Y46847D01*
X632783Y45286D01*
X633658Y43567D01*
X634254Y41732D01*
X634468Y40385D01*
X623823Y40385D01*
G37*
%LPD*%
%LPC*%
G36*
X166623Y40385D02*
X166623Y40385D01*
X166623Y51030D01*
X167970Y50816D01*
X169805Y50220D01*
X171524Y49345D01*
X173085Y48210D01*
X174448Y46847D01*
X175583Y45286D01*
X176458Y43567D01*
X177054Y41732D01*
X177268Y40385D01*
X166623Y40385D01*
G37*
%LPD*%
%LPC*%
G36*
X471423Y40385D02*
X471423Y40385D01*
X471423Y51030D01*
X472770Y50816D01*
X474605Y50220D01*
X476324Y49345D01*
X477885Y48210D01*
X479248Y46847D01*
X480383Y45286D01*
X481258Y43567D01*
X481854Y41732D01*
X482068Y40385D01*
X471423Y40385D01*
G37*
%LPD*%
%LPC*%
G36*
X623823Y90423D02*
X623823Y90423D01*
X623823Y101068D01*
X625170Y100854D01*
X627005Y100258D01*
X628724Y99383D01*
X630285Y98248D01*
X631648Y96885D01*
X632783Y95324D01*
X633658Y93605D01*
X634254Y91770D01*
X634468Y90423D01*
X623823Y90423D01*
G37*
%LPD*%
%LPC*%
G36*
X319023Y90423D02*
X319023Y90423D01*
X319023Y101068D01*
X320370Y100854D01*
X322205Y100258D01*
X323924Y99383D01*
X325485Y98248D01*
X326848Y96885D01*
X327983Y95324D01*
X328858Y93605D01*
X329454Y91770D01*
X329668Y90423D01*
X319023Y90423D01*
G37*
%LPD*%
%LPC*%
G36*
X471423Y90423D02*
X471423Y90423D01*
X471423Y101068D01*
X472770Y100854D01*
X474605Y100258D01*
X476324Y99383D01*
X477885Y98248D01*
X479248Y96885D01*
X480383Y95324D01*
X481258Y93605D01*
X481854Y91770D01*
X482068Y90423D01*
X471423Y90423D01*
G37*
%LPD*%
%LPC*%
G36*
X319023Y87377D02*
X319023Y87377D01*
X329668Y87377D01*
X329454Y86030D01*
X328858Y84195D01*
X327983Y82476D01*
X326848Y80915D01*
X325485Y79552D01*
X323924Y78417D01*
X322205Y77542D01*
X320370Y76946D01*
X319023Y76732D01*
X319023Y87377D01*
G37*
%LPD*%
%LPC*%
G36*
X471423Y87377D02*
X471423Y87377D01*
X482068Y87377D01*
X481854Y86030D01*
X481258Y84195D01*
X480383Y82476D01*
X479248Y80915D01*
X477885Y79552D01*
X476324Y78417D01*
X474605Y77542D01*
X472770Y76946D01*
X471423Y76732D01*
X471423Y87377D01*
G37*
%LPD*%
%LPC*%
G36*
X623823Y87377D02*
X623823Y87377D01*
X634468Y87377D01*
X634254Y86030D01*
X633658Y84195D01*
X632783Y82476D01*
X631648Y80915D01*
X630285Y79552D01*
X628724Y78417D01*
X627005Y77542D01*
X625170Y76946D01*
X623823Y76732D01*
X623823Y87377D01*
G37*
%LPD*%
%LPC*%
G36*
X166623Y87377D02*
X166623Y87377D01*
X177268Y87377D01*
X177054Y86030D01*
X176458Y84195D01*
X175583Y82476D01*
X174448Y80915D01*
X173085Y79552D01*
X171524Y78417D01*
X169805Y77542D01*
X167970Y76946D01*
X166623Y76732D01*
X166623Y87377D01*
G37*
%LPD*%
%LPC*%
G36*
X610132Y40385D02*
X610132Y40385D01*
X610346Y41732D01*
X610942Y43567D01*
X611817Y45286D01*
X612952Y46847D01*
X614315Y48210D01*
X615876Y49345D01*
X617595Y50220D01*
X619430Y50816D01*
X620777Y51030D01*
X620777Y40385D01*
X610132Y40385D01*
G37*
%LPD*%
%LPC*%
G36*
X166623Y37339D02*
X166623Y37339D01*
X177268Y37339D01*
X177054Y35992D01*
X176458Y34157D01*
X175583Y32438D01*
X174448Y30877D01*
X173085Y29514D01*
X171524Y28379D01*
X169805Y27504D01*
X167970Y26908D01*
X166623Y26694D01*
X166623Y37339D01*
G37*
%LPD*%
%LPC*%
G36*
X319023Y37339D02*
X319023Y37339D01*
X329668Y37339D01*
X329454Y35992D01*
X328858Y34157D01*
X327983Y32438D01*
X326848Y30877D01*
X325485Y29514D01*
X323924Y28379D01*
X322205Y27504D01*
X320370Y26908D01*
X319023Y26694D01*
X319023Y37339D01*
G37*
%LPD*%
%LPC*%
G36*
X471423Y37339D02*
X471423Y37339D01*
X482068Y37339D01*
X481854Y35992D01*
X481258Y34157D01*
X480383Y32438D01*
X479248Y30877D01*
X477885Y29514D01*
X476324Y28379D01*
X474605Y27504D01*
X472770Y26908D01*
X471423Y26694D01*
X471423Y37339D01*
G37*
%LPD*%
%LPC*%
G36*
X623823Y37339D02*
X623823Y37339D01*
X634468Y37339D01*
X634254Y35992D01*
X633658Y34157D01*
X632783Y32438D01*
X631648Y30877D01*
X630285Y29514D01*
X628724Y28379D01*
X627005Y27504D01*
X625170Y26908D01*
X623823Y26694D01*
X623823Y37339D01*
G37*
%LPD*%
%LPC*%
G36*
X457732Y40385D02*
X457732Y40385D01*
X457946Y41732D01*
X458542Y43567D01*
X459417Y45286D01*
X460552Y46847D01*
X461915Y48210D01*
X463476Y49345D01*
X465195Y50220D01*
X467030Y50816D01*
X468377Y51030D01*
X468377Y40385D01*
X457732Y40385D01*
G37*
%LPD*%
%LPC*%
G36*
X305332Y40385D02*
X305332Y40385D01*
X305546Y41732D01*
X306142Y43567D01*
X307017Y45286D01*
X308152Y46847D01*
X309515Y48210D01*
X311076Y49345D01*
X312795Y50220D01*
X314630Y50816D01*
X315977Y51030D01*
X315977Y40385D01*
X305332Y40385D01*
G37*
%LPD*%
%LPC*%
G36*
X152932Y40385D02*
X152932Y40385D01*
X153146Y41732D01*
X153742Y43567D01*
X154617Y45286D01*
X155752Y46847D01*
X157115Y48210D01*
X158676Y49345D01*
X160395Y50220D01*
X162230Y50816D01*
X163577Y51030D01*
X163577Y40385D01*
X152932Y40385D01*
G37*
%LPD*%
%LPC*%
G36*
X305332Y90423D02*
X305332Y90423D01*
X305546Y91770D01*
X306142Y93605D01*
X307017Y95324D01*
X308152Y96885D01*
X309515Y98248D01*
X311076Y99383D01*
X312795Y100258D01*
X314630Y100854D01*
X315977Y101068D01*
X315977Y90423D01*
X305332Y90423D01*
G37*
%LPD*%
%LPC*%
G36*
X457732Y90423D02*
X457732Y90423D01*
X457946Y91770D01*
X458542Y93605D01*
X459417Y95324D01*
X460552Y96885D01*
X461915Y98248D01*
X463476Y99383D01*
X465195Y100258D01*
X467030Y100854D01*
X468377Y101068D01*
X468377Y90423D01*
X457732Y90423D01*
G37*
%LPD*%
%LPC*%
G36*
X610132Y90423D02*
X610132Y90423D01*
X610346Y91770D01*
X610942Y93605D01*
X611817Y95324D01*
X612952Y96885D01*
X614315Y98248D01*
X615876Y99383D01*
X617595Y100258D01*
X619430Y100854D01*
X620777Y101068D01*
X620777Y90423D01*
X610132Y90423D01*
G37*
%LPD*%
%LPC*%
G36*
X152932Y90423D02*
X152932Y90423D01*
X153146Y91770D01*
X153742Y93605D01*
X154617Y95324D01*
X155752Y96885D01*
X157115Y98248D01*
X158676Y99383D01*
X160395Y100258D01*
X162230Y100854D01*
X163577Y101068D01*
X163577Y90423D01*
X152932Y90423D01*
G37*
%LPD*%
%LPC*%
G36*
X467030Y76946D02*
X467030Y76946D01*
X465195Y77542D01*
X463476Y78417D01*
X461915Y79552D01*
X460552Y80915D01*
X459417Y82476D01*
X458542Y84195D01*
X457946Y86030D01*
X457732Y87377D01*
X468377Y87377D01*
X468377Y76732D01*
X467030Y76946D01*
G37*
%LPD*%
%LPC*%
G36*
X162230Y76946D02*
X162230Y76946D01*
X160395Y77542D01*
X158676Y78417D01*
X157115Y79552D01*
X155752Y80915D01*
X154617Y82476D01*
X153742Y84195D01*
X153146Y86030D01*
X152932Y87377D01*
X163577Y87377D01*
X163577Y76732D01*
X162230Y76946D01*
G37*
%LPD*%
%LPC*%
G36*
X314630Y76946D02*
X314630Y76946D01*
X312795Y77542D01*
X311076Y78417D01*
X309515Y79552D01*
X308152Y80915D01*
X307017Y82476D01*
X306142Y84195D01*
X305546Y86030D01*
X305332Y87377D01*
X315977Y87377D01*
X315977Y76732D01*
X314630Y76946D01*
G37*
%LPD*%
%LPC*%
G36*
X619430Y26908D02*
X619430Y26908D01*
X617595Y27504D01*
X615876Y28379D01*
X614315Y29514D01*
X612952Y30877D01*
X611817Y32438D01*
X610942Y34157D01*
X610346Y35992D01*
X610132Y37339D01*
X620777Y37339D01*
X620777Y26694D01*
X619430Y26908D01*
G37*
%LPD*%
%LPC*%
G36*
X467030Y26908D02*
X467030Y26908D01*
X465195Y27504D01*
X463476Y28379D01*
X461915Y29514D01*
X460552Y30877D01*
X459417Y32438D01*
X458542Y34157D01*
X457946Y35992D01*
X457732Y37339D01*
X468377Y37339D01*
X468377Y26694D01*
X467030Y26908D01*
G37*
%LPD*%
%LPC*%
G36*
X314630Y26908D02*
X314630Y26908D01*
X312795Y27504D01*
X311076Y28379D01*
X309515Y29514D01*
X308152Y30877D01*
X307017Y32438D01*
X306142Y34157D01*
X305546Y35992D01*
X305332Y37339D01*
X315977Y37339D01*
X315977Y26694D01*
X314630Y26908D01*
G37*
%LPD*%
%LPC*%
G36*
X162230Y26908D02*
X162230Y26908D01*
X160395Y27504D01*
X158676Y28379D01*
X157115Y29514D01*
X155752Y30877D01*
X154617Y32438D01*
X153742Y34157D01*
X153146Y35992D01*
X152932Y37339D01*
X163577Y37339D01*
X163577Y26694D01*
X162230Y26908D01*
G37*
%LPD*%
%LPC*%
G36*
X619430Y76946D02*
X619430Y76946D01*
X617595Y77542D01*
X615876Y78417D01*
X614315Y79552D01*
X612952Y80915D01*
X611817Y82476D01*
X610942Y84195D01*
X610346Y86030D01*
X610132Y87377D01*
X620777Y87377D01*
X620777Y76732D01*
X619430Y76946D01*
G37*
%LPD*%
%LPC*%
G36*
X534923Y319023D02*
X534923Y319023D01*
X534923Y329346D01*
X536196Y329145D01*
X537983Y328564D01*
X539657Y327711D01*
X541178Y326606D01*
X542506Y325278D01*
X543611Y323757D01*
X544464Y322083D01*
X545045Y320296D01*
X545246Y319023D01*
X534923Y319023D01*
G37*
%LPD*%
%LPC*%
G36*
X585723Y166623D02*
X585723Y166623D01*
X585723Y176946D01*
X586996Y176745D01*
X588783Y176164D01*
X590457Y175311D01*
X591978Y174206D01*
X593306Y172878D01*
X594411Y171357D01*
X595264Y169683D01*
X595845Y167896D01*
X596046Y166623D01*
X585723Y166623D01*
G37*
%LPD*%
%LPC*%
G36*
X560323Y319023D02*
X560323Y319023D01*
X560323Y329346D01*
X561596Y329145D01*
X563383Y328564D01*
X565057Y327711D01*
X566578Y326606D01*
X567906Y325278D01*
X569011Y323757D01*
X569864Y322083D01*
X570445Y320296D01*
X570646Y319023D01*
X560323Y319023D01*
G37*
%LPD*%
%LPC*%
G36*
X585723Y163577D02*
X585723Y163577D01*
X596046Y163577D01*
X595845Y162304D01*
X595264Y160517D01*
X594411Y158843D01*
X593306Y157322D01*
X591978Y155994D01*
X590457Y154889D01*
X588783Y154036D01*
X586996Y153455D01*
X585723Y153254D01*
X585723Y163577D01*
G37*
%LPD*%
%LPC*%
G36*
X534923Y315977D02*
X534923Y315977D01*
X545246Y315977D01*
X545045Y314704D01*
X544464Y312917D01*
X543611Y311243D01*
X542506Y309722D01*
X541178Y308394D01*
X539657Y307289D01*
X537983Y306436D01*
X536196Y305855D01*
X534923Y305654D01*
X534923Y315977D01*
G37*
%LPD*%
%LPC*%
G36*
X560323Y315977D02*
X560323Y315977D01*
X570646Y315977D01*
X570445Y314704D01*
X569864Y312917D01*
X569011Y311243D01*
X567906Y309722D01*
X566578Y308394D01*
X565057Y307289D01*
X563383Y306436D01*
X561596Y305855D01*
X560323Y305654D01*
X560323Y315977D01*
G37*
%LPD*%
%LPC*%
G36*
X572354Y166623D02*
X572354Y166623D01*
X572555Y167896D01*
X573136Y169683D01*
X573989Y171357D01*
X575094Y172878D01*
X576422Y174206D01*
X577943Y175311D01*
X579617Y176164D01*
X581404Y176745D01*
X582677Y176946D01*
X582677Y166623D01*
X572354Y166623D01*
G37*
%LPD*%
%LPC*%
G36*
X546954Y319023D02*
X546954Y319023D01*
X547155Y320296D01*
X547736Y322083D01*
X548589Y323757D01*
X549694Y325278D01*
X551022Y326606D01*
X552543Y327711D01*
X554217Y328564D01*
X556004Y329145D01*
X557277Y329346D01*
X557277Y319023D01*
X546954Y319023D01*
G37*
%LPD*%
%LPC*%
G36*
X521554Y319023D02*
X521554Y319023D01*
X521755Y320296D01*
X522336Y322083D01*
X523189Y323757D01*
X524294Y325278D01*
X525622Y326606D01*
X527143Y327711D01*
X528817Y328564D01*
X530604Y329145D01*
X531877Y329346D01*
X531877Y319023D01*
X521554Y319023D01*
G37*
%LPD*%
%LPC*%
G36*
X581404Y153455D02*
X581404Y153455D01*
X579617Y154036D01*
X577943Y154889D01*
X576422Y155994D01*
X575094Y157322D01*
X573989Y158843D01*
X573136Y160517D01*
X572555Y162304D01*
X572354Y163577D01*
X582677Y163577D01*
X582677Y153254D01*
X581404Y153455D01*
G37*
%LPD*%
%LPC*%
G36*
X556004Y305855D02*
X556004Y305855D01*
X554217Y306436D01*
X552543Y307289D01*
X551022Y308394D01*
X549694Y309722D01*
X548589Y311243D01*
X547736Y312917D01*
X547155Y314704D01*
X546954Y315977D01*
X557277Y315977D01*
X557277Y305654D01*
X556004Y305855D01*
G37*
%LPD*%
%LPC*%
G36*
X530604Y305855D02*
X530604Y305855D01*
X528817Y306436D01*
X527143Y307289D01*
X525622Y308394D01*
X524294Y309722D01*
X523189Y311243D01*
X522336Y312917D01*
X521755Y314704D01*
X521554Y315977D01*
X531877Y315977D01*
X531877Y305654D01*
X530604Y305855D01*
G37*
%LPD*%
%LPC*%
G36*
X265683Y418083D02*
X265683Y418083D01*
X265683Y427102D01*
X268527Y427102D01*
X274702Y420927D01*
X274702Y418083D01*
X265683Y418083D01*
G37*
%LPD*%
%LPC*%
G36*
X265683Y406018D02*
X265683Y406018D01*
X265683Y415037D01*
X274702Y415037D01*
X274702Y412193D01*
X268527Y406018D01*
X265683Y406018D01*
G37*
%LPD*%
%LPC*%
G36*
X253618Y418083D02*
X253618Y418083D01*
X253618Y420927D01*
X259793Y427102D01*
X262637Y427102D01*
X262637Y418083D01*
X253618Y418083D01*
G37*
%LPD*%
%LPC*%
G36*
X259793Y406018D02*
X259793Y406018D01*
X253618Y412193D01*
X253618Y415037D01*
X262637Y415037D01*
X262637Y406018D01*
X259793Y406018D01*
G37*
%LPD*%
%LPC*%
G36*
X264159Y416559D02*
X264159Y416559D01*
X264159Y416561D01*
X264161Y416561D01*
X264161Y416559D01*
X264159Y416559D01*
G37*
%LPD*%
%LPC*%
G36*
X576099Y380999D02*
X576099Y380999D01*
X576099Y381001D01*
X576101Y381001D01*
X576101Y380999D01*
X576099Y380999D01*
G37*
%LPD*%
%LPC*%
G36*
X165099Y88899D02*
X165099Y88899D01*
X165099Y88901D01*
X165101Y88901D01*
X165101Y88899D01*
X165099Y88899D01*
G37*
%LPD*%
%LPC*%
G36*
X584199Y165099D02*
X584199Y165099D01*
X584199Y165101D01*
X584201Y165101D01*
X584201Y165099D01*
X584199Y165099D01*
G37*
%LPD*%
%LPC*%
G36*
X558799Y317499D02*
X558799Y317499D01*
X558799Y317501D01*
X558801Y317501D01*
X558801Y317499D01*
X558799Y317499D01*
G37*
%LPD*%
%LPC*%
G36*
X533399Y317499D02*
X533399Y317499D01*
X533399Y317501D01*
X533401Y317501D01*
X533401Y317499D01*
X533399Y317499D01*
G37*
%LPD*%
%LPC*%
G36*
X317499Y88899D02*
X317499Y88899D01*
X317499Y88901D01*
X317501Y88901D01*
X317501Y88899D01*
X317499Y88899D01*
G37*
%LPD*%
%LPC*%
G36*
X622299Y38861D02*
X622299Y38861D01*
X622299Y38863D01*
X622301Y38863D01*
X622301Y38861D01*
X622299Y38861D01*
G37*
%LPD*%
%LPC*%
G36*
X469899Y38861D02*
X469899Y38861D01*
X469899Y38863D01*
X469901Y38863D01*
X469901Y38861D01*
X469899Y38861D01*
G37*
%LPD*%
%LPC*%
G36*
X317499Y38861D02*
X317499Y38861D01*
X317499Y38863D01*
X317501Y38863D01*
X317501Y38861D01*
X317499Y38861D01*
G37*
%LPD*%
%LPC*%
G36*
X165099Y38861D02*
X165099Y38861D01*
X165099Y38863D01*
X165101Y38863D01*
X165101Y38861D01*
X165099Y38861D01*
G37*
%LPD*%
%LPC*%
G36*
X622299Y88899D02*
X622299Y88899D01*
X622299Y88901D01*
X622301Y88901D01*
X622301Y88899D01*
X622299Y88899D01*
G37*
%LPD*%
%LPC*%
G36*
X469899Y88899D02*
X469899Y88899D01*
X469899Y88901D01*
X469901Y88901D01*
X469901Y88899D01*
X469899Y88899D01*
G37*
%LPD*%
D10*
X88900Y88900D03*
X88900Y38862D03*
X165100Y88900D03*
X165100Y38862D03*
X241300Y88900D03*
X241300Y38862D03*
X317500Y88900D03*
X317500Y38862D03*
X393700Y88900D03*
X393700Y38862D03*
X469900Y88900D03*
X469900Y38862D03*
X546100Y88900D03*
X546100Y38862D03*
X622300Y88900D03*
X622300Y38862D03*
D11*
X609600Y317500D03*
X584200Y317500D03*
X558800Y317500D03*
X533400Y317500D03*
X508000Y317500D03*
X482600Y317500D03*
X457200Y317500D03*
X431800Y317500D03*
X406400Y317500D03*
X381000Y317500D03*
X355600Y317500D03*
X330200Y317500D03*
X330200Y165100D03*
X355600Y165100D03*
X381000Y165100D03*
X406400Y165100D03*
X431800Y165100D03*
X457200Y165100D03*
X482600Y165100D03*
X508000Y165100D03*
X533400Y165100D03*
X558800Y165100D03*
X584200Y165100D03*
X609600Y165100D03*
D12*
X88900Y165100D03*
X88900Y190500D03*
X88900Y215900D03*
X88900Y241300D03*
X114300Y165100D03*
X114300Y190500D03*
X114300Y215900D03*
X114300Y241300D03*
D13*
X353568Y403606D02*
X368808Y403606D01*
X368808Y358394D02*
X353568Y358394D01*
X418592Y403606D02*
X433832Y403606D01*
X433832Y358394D02*
X418592Y358394D01*
D14*
X535178Y429000D02*
X557022Y429000D01*
X576100Y391922D02*
X576100Y370078D01*
X516100Y370078D02*
X516100Y391922D01*
D13*
X96520Y342900D02*
X81280Y342900D01*
X81280Y368300D02*
X96520Y368300D01*
X96520Y393700D02*
X81280Y393700D01*
D15*
X264160Y416560D03*
D16*
X264160Y381000D03*
D17*
X485140Y405020D02*
X485140Y423020D01*
X459740Y423020D02*
X459740Y405020D01*
D18*
X203200Y381000D03*
D19*
X203200Y355600D02*
X228600Y330200D01*
X324580Y330200D01*
X324834Y330454D01*
X437166Y330454D02*
X437420Y330200D01*
X444500Y330200D01*
X437166Y330454D02*
X324834Y330454D01*
X444500Y330200D02*
X457200Y317500D01*
X203200Y355600D02*
X203200Y381000D01*
D18*
X266700Y317500D03*
D19*
X279400Y317500D01*
X292354Y304546D01*
X418846Y304546D01*
X431800Y317500D01*
D20*
X508000Y190500D02*
X533400Y165100D01*
D21*
X508000Y190500D03*
D20*
X88900Y215900D02*
X88900Y241300D01*
X88900Y215900D02*
X88900Y190500D01*
X88900Y165100D01*
X88900Y152400D01*
X101600Y139700D01*
X177800Y190500D02*
X508000Y190500D01*
X127000Y139700D02*
X101600Y139700D01*
X127000Y139700D02*
X177800Y190500D01*
D19*
X546100Y127000D02*
X546100Y88900D01*
X546100Y127000D02*
X508000Y165100D01*
X482600Y165100D02*
X406400Y88900D01*
X393700Y88900D01*
X292100Y139700D02*
X241300Y88900D01*
X292100Y139700D02*
X431800Y139700D01*
X457200Y165100D01*
X299434Y152146D02*
X299180Y152400D01*
X299434Y152146D02*
X418846Y152146D01*
X431800Y165100D01*
X177800Y152400D02*
X114300Y88900D01*
X177800Y152400D02*
X299180Y152400D01*
X114300Y88900D02*
X88900Y88900D01*
D18*
X139700Y317500D03*
D19*
X292100Y279400D02*
X469900Y279400D01*
X508000Y317500D01*
X292100Y279400D02*
X254000Y241300D01*
X177800Y241300D01*
X139700Y279400D01*
X139700Y317500D01*
D18*
X203200Y254000D03*
D19*
X241300Y254000D01*
X279400Y292100D01*
X457200Y292100D01*
X482600Y317500D01*
D22*
X152400Y406400D02*
X114300Y368300D01*
X88900Y368300D01*
X152400Y406400D02*
X215900Y406400D01*
X241300Y381000D01*
X264160Y381000D01*
X495300Y381000D02*
X516100Y381000D01*
X495300Y381000D02*
X264160Y381000D01*
X485140Y391160D02*
X485140Y414020D01*
X485140Y391160D02*
X495300Y381000D01*
M02*
