G04 EAGLE Gerber RS-274X export*
G75*
%MOMM*%
%FSLAX34Y34*%
%LPD*%
%INTop Copper*%
%IPPOS*%
%AMOC8*
5,1,8,0,0,1.08239X$1,22.5*%
G01*
%ADD10C,1.943100*%
%ADD11C,1.879600*%
%ADD12P,1.649562X8X112.500000*%
%ADD13C,1.524000*%
%ADD14R,1.200000X1.200000*%
%ADD15R,1.500000X1.300000*%
%ADD16C,2.184400*%
%ADD17R,1.300000X1.500000*%
%ADD18P,1.732040X8X112.500000*%
%ADD19C,1.600200*%
%ADD20C,1.800000*%
%ADD21C,0.406400*%
%ADD22C,0.756400*%
%ADD23C,0.508000*%

G36*
X646198Y10164D02*
X646198Y10164D01*
X646217Y10162D01*
X646319Y10184D01*
X646421Y10200D01*
X646438Y10210D01*
X646458Y10214D01*
X646547Y10267D01*
X646638Y10316D01*
X646652Y10330D01*
X646669Y10340D01*
X646736Y10419D01*
X646808Y10494D01*
X646816Y10512D01*
X646829Y10527D01*
X646868Y10623D01*
X646911Y10717D01*
X646913Y10737D01*
X646921Y10755D01*
X646939Y10922D01*
X646939Y446178D01*
X646936Y446198D01*
X646938Y446217D01*
X646916Y446319D01*
X646900Y446421D01*
X646890Y446438D01*
X646886Y446458D01*
X646833Y446547D01*
X646784Y446638D01*
X646770Y446652D01*
X646760Y446669D01*
X646681Y446736D01*
X646606Y446808D01*
X646588Y446816D01*
X646573Y446829D01*
X646477Y446868D01*
X646383Y446911D01*
X646363Y446913D01*
X646345Y446921D01*
X646178Y446939D01*
X61722Y446939D01*
X61702Y446936D01*
X61683Y446938D01*
X61581Y446916D01*
X61479Y446900D01*
X61462Y446890D01*
X61442Y446886D01*
X61353Y446833D01*
X61262Y446784D01*
X61248Y446770D01*
X61231Y446760D01*
X61164Y446681D01*
X61092Y446606D01*
X61084Y446588D01*
X61071Y446573D01*
X61032Y446477D01*
X60989Y446383D01*
X60987Y446363D01*
X60979Y446345D01*
X60961Y446178D01*
X60961Y10922D01*
X60964Y10902D01*
X60962Y10883D01*
X60984Y10781D01*
X61000Y10679D01*
X61010Y10662D01*
X61014Y10642D01*
X61067Y10553D01*
X61116Y10462D01*
X61130Y10448D01*
X61140Y10431D01*
X61219Y10364D01*
X61294Y10292D01*
X61312Y10284D01*
X61327Y10271D01*
X61423Y10232D01*
X61517Y10189D01*
X61537Y10187D01*
X61555Y10179D01*
X61722Y10161D01*
X646178Y10161D01*
X646198Y10164D01*
G37*
%LPC*%
G36*
X556627Y154177D02*
X556627Y154177D01*
X552613Y155840D01*
X549540Y158913D01*
X547877Y162927D01*
X547877Y167273D01*
X549540Y171287D01*
X552613Y174360D01*
X556627Y176023D01*
X560973Y176023D01*
X563133Y175128D01*
X563247Y175101D01*
X563360Y175073D01*
X563367Y175073D01*
X563373Y175072D01*
X563489Y175083D01*
X563606Y175092D01*
X563611Y175094D01*
X563618Y175095D01*
X563725Y175143D01*
X563832Y175188D01*
X563838Y175193D01*
X563842Y175195D01*
X563856Y175207D01*
X563963Y175293D01*
X631220Y242550D01*
X631273Y242624D01*
X631333Y242694D01*
X631345Y242724D01*
X631364Y242750D01*
X631391Y242837D01*
X631425Y242922D01*
X631429Y242963D01*
X631436Y242985D01*
X631435Y243017D01*
X631443Y243089D01*
X631443Y315711D01*
X631429Y315802D01*
X631421Y315892D01*
X631409Y315922D01*
X631404Y315954D01*
X631361Y316035D01*
X631325Y316119D01*
X631299Y316151D01*
X631288Y316172D01*
X631265Y316194D01*
X631220Y316250D01*
X621050Y326420D01*
X620976Y326473D01*
X620906Y326533D01*
X620876Y326545D01*
X620850Y326564D01*
X620763Y326591D01*
X620678Y326625D01*
X620637Y326629D01*
X620615Y326636D01*
X620583Y326635D01*
X620511Y326643D01*
X617742Y326643D01*
X617671Y326632D01*
X617599Y326630D01*
X617550Y326612D01*
X617499Y326604D01*
X617436Y326570D01*
X617368Y326545D01*
X617328Y326513D01*
X617281Y326488D01*
X617232Y326436D01*
X617176Y326392D01*
X617148Y326348D01*
X617112Y326310D01*
X617082Y326245D01*
X617043Y326185D01*
X617030Y326134D01*
X617008Y326087D01*
X617001Y326016D01*
X616983Y325946D01*
X616987Y325894D01*
X616981Y325843D01*
X616997Y325772D01*
X617002Y325701D01*
X617023Y325653D01*
X617034Y325602D01*
X617070Y325541D01*
X617099Y325475D01*
X617143Y325419D01*
X617160Y325391D01*
X617178Y325376D01*
X617203Y325344D01*
X618860Y323687D01*
X620523Y319673D01*
X620523Y315327D01*
X618860Y311313D01*
X615787Y308240D01*
X611773Y306577D01*
X607427Y306577D01*
X603413Y308240D01*
X600340Y311313D01*
X598677Y315327D01*
X598677Y319673D01*
X600340Y323687D01*
X602251Y325598D01*
X602293Y325656D01*
X602342Y325708D01*
X602364Y325755D01*
X602394Y325797D01*
X602415Y325866D01*
X602446Y325931D01*
X602451Y325983D01*
X602467Y326033D01*
X602465Y326104D01*
X602473Y326175D01*
X602462Y326226D01*
X602460Y326278D01*
X602436Y326346D01*
X602420Y326416D01*
X602394Y326461D01*
X602376Y326509D01*
X602331Y326565D01*
X602294Y326627D01*
X602255Y326661D01*
X602222Y326701D01*
X602162Y326740D01*
X602107Y326787D01*
X602059Y326806D01*
X602015Y326834D01*
X601946Y326852D01*
X601879Y326879D01*
X601808Y326887D01*
X601777Y326895D01*
X601753Y326893D01*
X601712Y326897D01*
X592088Y326897D01*
X592017Y326886D01*
X591945Y326884D01*
X591896Y326866D01*
X591845Y326858D01*
X591782Y326824D01*
X591714Y326799D01*
X591674Y326767D01*
X591627Y326742D01*
X591578Y326690D01*
X591522Y326646D01*
X591494Y326602D01*
X591458Y326564D01*
X591428Y326499D01*
X591389Y326439D01*
X591376Y326388D01*
X591354Y326341D01*
X591347Y326270D01*
X591329Y326200D01*
X591333Y326148D01*
X591327Y326097D01*
X591343Y326026D01*
X591348Y325955D01*
X591369Y325907D01*
X591380Y325856D01*
X591416Y325795D01*
X591445Y325729D01*
X591489Y325673D01*
X591506Y325645D01*
X591524Y325630D01*
X591549Y325598D01*
X593460Y323687D01*
X595123Y319673D01*
X595123Y315327D01*
X593460Y311313D01*
X590387Y308240D01*
X586373Y306577D01*
X582027Y306577D01*
X578013Y308240D01*
X574940Y311313D01*
X573277Y315327D01*
X573277Y319673D01*
X574940Y323687D01*
X576851Y325598D01*
X576893Y325656D01*
X576942Y325708D01*
X576964Y325755D01*
X576994Y325797D01*
X577015Y325866D01*
X577046Y325931D01*
X577051Y325983D01*
X577067Y326033D01*
X577065Y326104D01*
X577073Y326175D01*
X577062Y326226D01*
X577060Y326278D01*
X577036Y326346D01*
X577020Y326416D01*
X576994Y326461D01*
X576976Y326509D01*
X576931Y326565D01*
X576894Y326627D01*
X576855Y326661D01*
X576822Y326701D01*
X576762Y326740D01*
X576707Y326787D01*
X576659Y326806D01*
X576615Y326834D01*
X576546Y326852D01*
X576479Y326879D01*
X576408Y326887D01*
X576377Y326895D01*
X576353Y326893D01*
X576312Y326897D01*
X568124Y326897D01*
X568054Y326886D01*
X567982Y326884D01*
X567933Y326866D01*
X567882Y326858D01*
X567818Y326824D01*
X567751Y326799D01*
X567710Y326767D01*
X567664Y326742D01*
X567615Y326691D01*
X567559Y326646D01*
X567531Y326602D01*
X567495Y326564D01*
X567465Y326499D01*
X567426Y326439D01*
X567413Y326388D01*
X567391Y326341D01*
X567383Y326270D01*
X567366Y326200D01*
X567370Y326148D01*
X567364Y326097D01*
X567379Y326026D01*
X567385Y325955D01*
X567405Y325907D01*
X567416Y325856D01*
X567453Y325795D01*
X567481Y325729D01*
X567526Y325673D01*
X567543Y325645D01*
X567560Y325630D01*
X567586Y325598D01*
X567906Y325278D01*
X569011Y323757D01*
X569864Y322083D01*
X570445Y320296D01*
X570646Y319023D01*
X559562Y319023D01*
X559542Y319020D01*
X559523Y319022D01*
X559421Y319000D01*
X559319Y318983D01*
X559302Y318974D01*
X559282Y318970D01*
X559193Y318917D01*
X559102Y318868D01*
X559088Y318854D01*
X559071Y318844D01*
X559004Y318765D01*
X558933Y318690D01*
X558924Y318672D01*
X558911Y318657D01*
X558873Y318561D01*
X558829Y318467D01*
X558827Y318447D01*
X558819Y318429D01*
X558801Y318262D01*
X558801Y317499D01*
X558799Y317499D01*
X558799Y318262D01*
X558796Y318282D01*
X558798Y318301D01*
X558776Y318403D01*
X558759Y318505D01*
X558750Y318522D01*
X558746Y318542D01*
X558693Y318631D01*
X558644Y318722D01*
X558630Y318736D01*
X558620Y318753D01*
X558541Y318820D01*
X558466Y318891D01*
X558448Y318900D01*
X558433Y318913D01*
X558337Y318952D01*
X558243Y318995D01*
X558223Y318997D01*
X558205Y319005D01*
X558038Y319023D01*
X546954Y319023D01*
X547155Y320296D01*
X547736Y322083D01*
X548589Y323757D01*
X549694Y325278D01*
X550014Y325598D01*
X550056Y325656D01*
X550105Y325708D01*
X550127Y325755D01*
X550157Y325797D01*
X550178Y325866D01*
X550209Y325931D01*
X550214Y325983D01*
X550230Y326033D01*
X550228Y326104D01*
X550236Y326175D01*
X550225Y326226D01*
X550223Y326278D01*
X550199Y326346D01*
X550184Y326416D01*
X550157Y326461D01*
X550139Y326509D01*
X550094Y326565D01*
X550057Y326627D01*
X550018Y326661D01*
X549985Y326701D01*
X549925Y326740D01*
X549870Y326787D01*
X549822Y326806D01*
X549778Y326834D01*
X549709Y326852D01*
X549642Y326879D01*
X549571Y326887D01*
X549540Y326895D01*
X549516Y326893D01*
X549476Y326897D01*
X542724Y326897D01*
X542654Y326886D01*
X542582Y326884D01*
X542533Y326866D01*
X542482Y326858D01*
X542418Y326824D01*
X542351Y326799D01*
X542310Y326767D01*
X542264Y326742D01*
X542215Y326691D01*
X542159Y326646D01*
X542131Y326602D01*
X542095Y326564D01*
X542065Y326499D01*
X542026Y326439D01*
X542013Y326388D01*
X541991Y326341D01*
X541983Y326270D01*
X541966Y326200D01*
X541970Y326148D01*
X541964Y326097D01*
X541979Y326026D01*
X541985Y325955D01*
X542005Y325907D01*
X542016Y325856D01*
X542053Y325795D01*
X542081Y325729D01*
X542126Y325673D01*
X542143Y325645D01*
X542160Y325630D01*
X542186Y325598D01*
X542506Y325278D01*
X543611Y323757D01*
X544464Y322083D01*
X545045Y320296D01*
X545246Y319023D01*
X534162Y319023D01*
X534142Y319020D01*
X534123Y319022D01*
X534021Y319000D01*
X533919Y318983D01*
X533902Y318974D01*
X533882Y318970D01*
X533793Y318917D01*
X533702Y318868D01*
X533688Y318854D01*
X533671Y318844D01*
X533604Y318765D01*
X533533Y318690D01*
X533524Y318672D01*
X533511Y318657D01*
X533473Y318561D01*
X533429Y318467D01*
X533427Y318447D01*
X533419Y318429D01*
X533401Y318262D01*
X533401Y317499D01*
X533399Y317499D01*
X533399Y318262D01*
X533396Y318282D01*
X533398Y318301D01*
X533376Y318403D01*
X533359Y318505D01*
X533350Y318522D01*
X533346Y318542D01*
X533293Y318631D01*
X533244Y318722D01*
X533230Y318736D01*
X533220Y318753D01*
X533141Y318820D01*
X533066Y318891D01*
X533048Y318900D01*
X533033Y318913D01*
X532937Y318952D01*
X532843Y318995D01*
X532823Y318997D01*
X532805Y319005D01*
X532638Y319023D01*
X521554Y319023D01*
X521755Y320296D01*
X522336Y322083D01*
X523189Y323757D01*
X524294Y325278D01*
X524614Y325598D01*
X524656Y325656D01*
X524705Y325708D01*
X524727Y325755D01*
X524757Y325797D01*
X524778Y325866D01*
X524809Y325931D01*
X524814Y325983D01*
X524830Y326033D01*
X524828Y326104D01*
X524836Y326175D01*
X524825Y326226D01*
X524823Y326278D01*
X524799Y326346D01*
X524784Y326416D01*
X524757Y326461D01*
X524739Y326509D01*
X524694Y326565D01*
X524657Y326627D01*
X524618Y326661D01*
X524585Y326701D01*
X524525Y326740D01*
X524470Y326787D01*
X524422Y326806D01*
X524378Y326834D01*
X524309Y326852D01*
X524242Y326879D01*
X524171Y326887D01*
X524140Y326895D01*
X524116Y326893D01*
X524076Y326897D01*
X515888Y326897D01*
X515817Y326886D01*
X515745Y326884D01*
X515696Y326866D01*
X515645Y326858D01*
X515582Y326824D01*
X515514Y326799D01*
X515474Y326767D01*
X515427Y326742D01*
X515378Y326690D01*
X515322Y326646D01*
X515294Y326602D01*
X515258Y326564D01*
X515228Y326499D01*
X515189Y326439D01*
X515176Y326388D01*
X515154Y326341D01*
X515147Y326270D01*
X515129Y326200D01*
X515133Y326148D01*
X515127Y326097D01*
X515143Y326026D01*
X515148Y325955D01*
X515169Y325907D01*
X515180Y325856D01*
X515216Y325795D01*
X515245Y325729D01*
X515289Y325673D01*
X515306Y325645D01*
X515324Y325630D01*
X515349Y325598D01*
X517260Y323687D01*
X518923Y319673D01*
X518923Y315327D01*
X517260Y311313D01*
X514187Y308240D01*
X510173Y306577D01*
X505827Y306577D01*
X501813Y308240D01*
X498740Y311313D01*
X497077Y315327D01*
X497077Y319673D01*
X498740Y323687D01*
X500651Y325598D01*
X500693Y325656D01*
X500742Y325708D01*
X500764Y325755D01*
X500794Y325797D01*
X500815Y325866D01*
X500846Y325931D01*
X500851Y325983D01*
X500867Y326033D01*
X500865Y326104D01*
X500873Y326175D01*
X500862Y326226D01*
X500860Y326278D01*
X500836Y326346D01*
X500820Y326416D01*
X500794Y326461D01*
X500776Y326509D01*
X500731Y326565D01*
X500694Y326627D01*
X500655Y326661D01*
X500622Y326701D01*
X500562Y326740D01*
X500507Y326787D01*
X500459Y326806D01*
X500415Y326834D01*
X500346Y326852D01*
X500279Y326879D01*
X500208Y326887D01*
X500177Y326895D01*
X500153Y326893D01*
X500112Y326897D01*
X490488Y326897D01*
X490417Y326886D01*
X490345Y326884D01*
X490296Y326866D01*
X490245Y326858D01*
X490182Y326824D01*
X490114Y326799D01*
X490074Y326767D01*
X490027Y326742D01*
X489978Y326690D01*
X489922Y326646D01*
X489894Y326602D01*
X489858Y326564D01*
X489828Y326499D01*
X489789Y326439D01*
X489776Y326388D01*
X489754Y326341D01*
X489747Y326270D01*
X489729Y326200D01*
X489733Y326148D01*
X489727Y326097D01*
X489743Y326026D01*
X489748Y325955D01*
X489769Y325907D01*
X489780Y325856D01*
X489816Y325795D01*
X489845Y325729D01*
X489889Y325673D01*
X489906Y325645D01*
X489924Y325630D01*
X489949Y325598D01*
X491860Y323687D01*
X493523Y319673D01*
X493523Y315327D01*
X491860Y311313D01*
X488787Y308240D01*
X484773Y306577D01*
X480427Y306577D01*
X476413Y308240D01*
X473340Y311313D01*
X471677Y315327D01*
X471677Y319673D01*
X473340Y323687D01*
X476413Y326760D01*
X478611Y327670D01*
X478650Y327695D01*
X478693Y327710D01*
X478745Y327752D01*
X478755Y327757D01*
X478761Y327763D01*
X478820Y327800D01*
X478849Y327835D01*
X478885Y327864D01*
X478927Y327930D01*
X478977Y327989D01*
X478993Y328032D01*
X479018Y328071D01*
X479037Y328147D01*
X479065Y328219D01*
X479067Y328265D01*
X479078Y328309D01*
X479072Y328387D01*
X479076Y328465D01*
X479063Y328509D01*
X479059Y328555D01*
X479029Y328626D01*
X479007Y328701D01*
X478981Y328739D01*
X478963Y328781D01*
X478877Y328888D01*
X478867Y328903D01*
X478863Y328906D01*
X478858Y328912D01*
X453156Y354614D01*
X453082Y354667D01*
X453012Y354727D01*
X452982Y354739D01*
X452956Y354758D01*
X452869Y354785D01*
X452784Y354819D01*
X452743Y354823D01*
X452721Y354830D01*
X452689Y354829D01*
X452617Y354837D01*
X442766Y354837D01*
X442651Y354818D01*
X442535Y354801D01*
X442529Y354799D01*
X442523Y354798D01*
X442420Y354743D01*
X442315Y354690D01*
X442311Y354685D01*
X442305Y354682D01*
X442226Y354598D01*
X442143Y354514D01*
X442140Y354508D01*
X442136Y354504D01*
X442128Y354487D01*
X442062Y354367D01*
X441585Y353214D01*
X439012Y350641D01*
X435651Y349249D01*
X416773Y349249D01*
X413412Y350641D01*
X410839Y353214D01*
X410362Y354367D01*
X410300Y354467D01*
X410240Y354567D01*
X410235Y354571D01*
X410232Y354576D01*
X410142Y354651D01*
X410053Y354727D01*
X410047Y354729D01*
X410043Y354733D01*
X409934Y354775D01*
X409825Y354819D01*
X409818Y354820D01*
X409813Y354821D01*
X409795Y354822D01*
X409658Y354837D01*
X377742Y354837D01*
X377627Y354818D01*
X377511Y354801D01*
X377505Y354799D01*
X377499Y354798D01*
X377396Y354743D01*
X377291Y354690D01*
X377287Y354685D01*
X377281Y354682D01*
X377202Y354598D01*
X377119Y354514D01*
X377116Y354508D01*
X377112Y354504D01*
X377104Y354487D01*
X377038Y354367D01*
X376561Y353214D01*
X373988Y350641D01*
X370627Y349249D01*
X351749Y349249D01*
X348388Y350641D01*
X345815Y353214D01*
X344423Y356575D01*
X344423Y360213D01*
X345815Y363574D01*
X348388Y366147D01*
X351749Y367539D01*
X370627Y367539D01*
X373988Y366147D01*
X376561Y363574D01*
X377038Y362421D01*
X377100Y362321D01*
X377160Y362221D01*
X377165Y362217D01*
X377168Y362212D01*
X377258Y362137D01*
X377347Y362061D01*
X377353Y362059D01*
X377357Y362055D01*
X377466Y362013D01*
X377575Y361969D01*
X377582Y361968D01*
X377587Y361967D01*
X377605Y361966D01*
X377742Y361951D01*
X409658Y361951D01*
X409773Y361970D01*
X409889Y361987D01*
X409895Y361989D01*
X409901Y361990D01*
X410004Y362045D01*
X410109Y362098D01*
X410113Y362103D01*
X410119Y362106D01*
X410198Y362189D01*
X410281Y362274D01*
X410284Y362280D01*
X410288Y362284D01*
X410296Y362301D01*
X410362Y362421D01*
X410839Y363574D01*
X413412Y366147D01*
X416773Y367539D01*
X435651Y367539D01*
X439012Y366147D01*
X441585Y363574D01*
X442062Y362421D01*
X442124Y362321D01*
X442184Y362221D01*
X442189Y362217D01*
X442192Y362212D01*
X442282Y362137D01*
X442371Y362061D01*
X442377Y362059D01*
X442381Y362055D01*
X442490Y362013D01*
X442599Y361969D01*
X442606Y361968D01*
X442611Y361967D01*
X442629Y361966D01*
X442766Y361951D01*
X455879Y361951D01*
X483596Y334234D01*
X483670Y334181D01*
X483740Y334121D01*
X483770Y334109D01*
X483796Y334090D01*
X483883Y334063D01*
X483968Y334029D01*
X484009Y334025D01*
X484031Y334018D01*
X484063Y334019D01*
X484135Y334011D01*
X616439Y334011D01*
X616470Y333980D01*
X616544Y333927D01*
X616613Y333867D01*
X616644Y333855D01*
X616670Y333836D01*
X616757Y333809D01*
X616842Y333775D01*
X616883Y333771D01*
X616905Y333764D01*
X616937Y333765D01*
X617008Y333757D01*
X623773Y333757D01*
X636250Y321280D01*
X638557Y318973D01*
X638557Y239827D01*
X636250Y237520D01*
X568993Y170263D01*
X568925Y170168D01*
X568855Y170074D01*
X568853Y170068D01*
X568849Y170063D01*
X568815Y169952D01*
X568779Y169840D01*
X568779Y169834D01*
X568777Y169828D01*
X568780Y169711D01*
X568781Y169594D01*
X568783Y169587D01*
X568783Y169582D01*
X568790Y169565D01*
X568828Y169433D01*
X569723Y167273D01*
X569723Y162927D01*
X568060Y158913D01*
X564987Y155840D01*
X560973Y154177D01*
X556627Y154177D01*
G37*
%LPD*%
%LPC*%
G36*
X543864Y27622D02*
X543864Y27622D01*
X539733Y29333D01*
X536571Y32495D01*
X534860Y36626D01*
X534860Y41098D01*
X536571Y45229D01*
X539733Y48391D01*
X542073Y49360D01*
X542173Y49422D01*
X542273Y49482D01*
X542277Y49487D01*
X542282Y49490D01*
X542357Y49580D01*
X542433Y49669D01*
X542435Y49675D01*
X542439Y49680D01*
X542481Y49788D01*
X542525Y49897D01*
X542526Y49905D01*
X542527Y49909D01*
X542528Y49927D01*
X542543Y50064D01*
X542543Y77698D01*
X542524Y77813D01*
X542507Y77929D01*
X542505Y77935D01*
X542504Y77941D01*
X542449Y78044D01*
X542396Y78148D01*
X542391Y78153D01*
X542388Y78158D01*
X542304Y78238D01*
X542220Y78321D01*
X542214Y78324D01*
X542210Y78328D01*
X542193Y78336D01*
X542073Y78402D01*
X539733Y79371D01*
X536571Y82533D01*
X534860Y86664D01*
X534860Y91136D01*
X535829Y93476D01*
X535856Y93590D01*
X535884Y93703D01*
X535884Y93710D01*
X535885Y93716D01*
X535874Y93832D01*
X535865Y93949D01*
X535863Y93954D01*
X535862Y93961D01*
X535814Y94068D01*
X535769Y94175D01*
X535764Y94181D01*
X535762Y94185D01*
X535750Y94199D01*
X535664Y94306D01*
X506750Y123220D01*
X506676Y123273D01*
X506606Y123333D01*
X506576Y123345D01*
X506550Y123364D01*
X506463Y123391D01*
X506378Y123425D01*
X506337Y123429D01*
X506315Y123436D01*
X506283Y123435D01*
X506211Y123443D01*
X227127Y123443D01*
X118638Y231932D01*
X118564Y231985D01*
X118494Y232045D01*
X118464Y232057D01*
X118438Y232076D01*
X118351Y232103D01*
X118266Y232137D01*
X118225Y232141D01*
X118203Y232148D01*
X118171Y232147D01*
X118099Y232155D01*
X110512Y232155D01*
X105155Y237512D01*
X105155Y245088D01*
X110512Y250445D01*
X118088Y250445D01*
X123445Y245088D01*
X123445Y237501D01*
X123459Y237410D01*
X123467Y237320D01*
X123479Y237290D01*
X123484Y237258D01*
X123527Y237177D01*
X123563Y237093D01*
X123589Y237061D01*
X123600Y237040D01*
X123623Y237018D01*
X123668Y236962D01*
X229850Y130780D01*
X229924Y130727D01*
X229994Y130667D01*
X230024Y130655D01*
X230050Y130636D01*
X230137Y130609D01*
X230222Y130575D01*
X230263Y130571D01*
X230285Y130564D01*
X230317Y130565D01*
X230389Y130557D01*
X509473Y130557D01*
X511780Y128250D01*
X540694Y99336D01*
X540789Y99268D01*
X540883Y99198D01*
X540889Y99196D01*
X540894Y99192D01*
X541005Y99158D01*
X541117Y99122D01*
X541123Y99122D01*
X541129Y99120D01*
X541246Y99123D01*
X541363Y99124D01*
X541370Y99126D01*
X541375Y99126D01*
X541392Y99133D01*
X541524Y99171D01*
X543864Y100140D01*
X548336Y100140D01*
X552467Y98429D01*
X555629Y95267D01*
X557340Y91136D01*
X557340Y86664D01*
X555629Y82533D01*
X552467Y79371D01*
X550127Y78402D01*
X550027Y78340D01*
X549927Y78280D01*
X549923Y78275D01*
X549918Y78272D01*
X549843Y78182D01*
X549767Y78093D01*
X549765Y78087D01*
X549761Y78082D01*
X549719Y77974D01*
X549675Y77865D01*
X549674Y77857D01*
X549673Y77853D01*
X549672Y77835D01*
X549657Y77698D01*
X549657Y50064D01*
X549676Y49949D01*
X549693Y49833D01*
X549695Y49827D01*
X549696Y49821D01*
X549751Y49718D01*
X549804Y49614D01*
X549809Y49609D01*
X549812Y49604D01*
X549896Y49524D01*
X549980Y49441D01*
X549986Y49438D01*
X549990Y49434D01*
X550007Y49426D01*
X550127Y49360D01*
X552467Y48391D01*
X555629Y45229D01*
X557340Y41098D01*
X557340Y36626D01*
X555629Y32495D01*
X552467Y29333D01*
X548336Y27622D01*
X543864Y27622D01*
G37*
%LPD*%
%LPC*%
G36*
X391464Y27622D02*
X391464Y27622D01*
X387333Y29333D01*
X384171Y32495D01*
X382460Y36626D01*
X382460Y41098D01*
X384171Y45229D01*
X387333Y48391D01*
X389673Y49360D01*
X389773Y49422D01*
X389873Y49482D01*
X389877Y49487D01*
X389882Y49490D01*
X389957Y49580D01*
X390033Y49669D01*
X390035Y49675D01*
X390039Y49680D01*
X390081Y49788D01*
X390125Y49897D01*
X390126Y49905D01*
X390127Y49909D01*
X390128Y49927D01*
X390143Y50064D01*
X390143Y77698D01*
X390124Y77813D01*
X390107Y77929D01*
X390105Y77935D01*
X390104Y77941D01*
X390049Y78044D01*
X389996Y78148D01*
X389991Y78153D01*
X389988Y78158D01*
X389904Y78238D01*
X389820Y78321D01*
X389814Y78324D01*
X389810Y78328D01*
X389793Y78336D01*
X389673Y78402D01*
X387333Y79371D01*
X384171Y82533D01*
X382460Y86664D01*
X382460Y91136D01*
X383429Y93476D01*
X383456Y93590D01*
X383484Y93703D01*
X383484Y93710D01*
X383485Y93716D01*
X383474Y93832D01*
X383465Y93949D01*
X383463Y93954D01*
X383462Y93961D01*
X383414Y94068D01*
X383369Y94175D01*
X383364Y94181D01*
X383362Y94185D01*
X383350Y94199D01*
X383264Y94306D01*
X367050Y110520D01*
X366976Y110573D01*
X366906Y110633D01*
X366876Y110645D01*
X366850Y110664D01*
X366763Y110691D01*
X366678Y110725D01*
X366637Y110729D01*
X366615Y110736D01*
X366583Y110735D01*
X366511Y110743D01*
X214427Y110743D01*
X118638Y206532D01*
X118564Y206585D01*
X118494Y206645D01*
X118464Y206657D01*
X118438Y206676D01*
X118351Y206703D01*
X118266Y206737D01*
X118225Y206741D01*
X118203Y206748D01*
X118171Y206747D01*
X118099Y206755D01*
X110512Y206755D01*
X105155Y212112D01*
X105155Y219688D01*
X110512Y225045D01*
X118088Y225045D01*
X123445Y219688D01*
X123445Y212101D01*
X123459Y212010D01*
X123467Y211920D01*
X123479Y211890D01*
X123484Y211858D01*
X123527Y211777D01*
X123563Y211693D01*
X123589Y211661D01*
X123600Y211640D01*
X123623Y211618D01*
X123668Y211562D01*
X217150Y118080D01*
X217224Y118027D01*
X217294Y117967D01*
X217324Y117955D01*
X217350Y117936D01*
X217437Y117909D01*
X217522Y117875D01*
X217563Y117871D01*
X217585Y117864D01*
X217617Y117865D01*
X217689Y117857D01*
X369773Y117857D01*
X388294Y99336D01*
X388388Y99268D01*
X388483Y99198D01*
X388489Y99196D01*
X388494Y99192D01*
X388605Y99158D01*
X388717Y99122D01*
X388723Y99122D01*
X388729Y99120D01*
X388846Y99123D01*
X388963Y99124D01*
X388970Y99126D01*
X388975Y99126D01*
X388992Y99133D01*
X389124Y99171D01*
X391464Y100140D01*
X395936Y100140D01*
X400067Y98429D01*
X403229Y95267D01*
X404940Y91136D01*
X404940Y86664D01*
X403229Y82533D01*
X400067Y79371D01*
X397727Y78402D01*
X397627Y78340D01*
X397527Y78280D01*
X397523Y78275D01*
X397518Y78272D01*
X397443Y78182D01*
X397367Y78093D01*
X397365Y78087D01*
X397361Y78082D01*
X397319Y77974D01*
X397275Y77865D01*
X397274Y77857D01*
X397273Y77853D01*
X397272Y77835D01*
X397257Y77698D01*
X397257Y50064D01*
X397276Y49949D01*
X397293Y49833D01*
X397295Y49827D01*
X397296Y49821D01*
X397351Y49718D01*
X397404Y49614D01*
X397409Y49609D01*
X397412Y49604D01*
X397496Y49524D01*
X397580Y49441D01*
X397586Y49438D01*
X397590Y49434D01*
X397607Y49426D01*
X397727Y49360D01*
X400067Y48391D01*
X403229Y45229D01*
X404940Y41098D01*
X404940Y36626D01*
X403229Y32495D01*
X400067Y29333D01*
X395936Y27622D01*
X391464Y27622D01*
G37*
%LPD*%
%LPC*%
G36*
X100127Y326643D02*
X100127Y326643D01*
X93238Y333532D01*
X93164Y333585D01*
X93094Y333645D01*
X93064Y333657D01*
X93038Y333676D01*
X92951Y333703D01*
X92866Y333737D01*
X92825Y333741D01*
X92803Y333748D01*
X92771Y333747D01*
X92699Y333755D01*
X79461Y333755D01*
X76100Y335147D01*
X73527Y337720D01*
X72135Y341081D01*
X72135Y344719D01*
X73527Y348080D01*
X76100Y350653D01*
X79461Y352045D01*
X98339Y352045D01*
X101700Y350653D01*
X104273Y348080D01*
X105665Y344719D01*
X105665Y341081D01*
X104273Y337720D01*
X102230Y335677D01*
X102218Y335661D01*
X102202Y335648D01*
X102146Y335561D01*
X102086Y335477D01*
X102080Y335458D01*
X102069Y335441D01*
X102044Y335341D01*
X102014Y335242D01*
X102014Y335222D01*
X102009Y335203D01*
X102017Y335100D01*
X102020Y334996D01*
X102027Y334978D01*
X102028Y334958D01*
X102069Y334863D01*
X102104Y334765D01*
X102117Y334750D01*
X102125Y334731D01*
X102230Y334600D01*
X102850Y333980D01*
X102924Y333927D01*
X102994Y333867D01*
X103024Y333855D01*
X103050Y333836D01*
X103137Y333809D01*
X103222Y333775D01*
X103263Y333771D01*
X103285Y333764D01*
X103317Y333765D01*
X103389Y333757D01*
X280811Y333757D01*
X280902Y333771D01*
X280992Y333779D01*
X281022Y333791D01*
X281054Y333796D01*
X281135Y333839D01*
X281219Y333875D01*
X281251Y333901D01*
X281272Y333912D01*
X281294Y333935D01*
X281350Y333980D01*
X299752Y352382D01*
X299805Y352456D01*
X299865Y352526D01*
X299877Y352556D01*
X299896Y352582D01*
X299923Y352669D01*
X299957Y352754D01*
X299961Y352795D01*
X299968Y352817D01*
X299967Y352849D01*
X299975Y352921D01*
X299975Y363732D01*
X300868Y364625D01*
X315132Y364625D01*
X316025Y363732D01*
X316025Y347468D01*
X315132Y346575D01*
X304321Y346575D01*
X304230Y346561D01*
X304140Y346553D01*
X304110Y346541D01*
X304078Y346536D01*
X303997Y346493D01*
X303913Y346457D01*
X303881Y346431D01*
X303860Y346420D01*
X303838Y346397D01*
X303782Y346352D01*
X284073Y326643D01*
X100127Y326643D01*
G37*
%LPD*%
%LPC*%
G36*
X239064Y27622D02*
X239064Y27622D01*
X234933Y29333D01*
X231771Y32495D01*
X230060Y36626D01*
X230060Y41098D01*
X231771Y45229D01*
X234933Y48391D01*
X237273Y49360D01*
X237373Y49422D01*
X237473Y49482D01*
X237477Y49487D01*
X237482Y49490D01*
X237557Y49580D01*
X237633Y49669D01*
X237635Y49675D01*
X237639Y49680D01*
X237681Y49788D01*
X237725Y49897D01*
X237726Y49905D01*
X237727Y49909D01*
X237728Y49927D01*
X237743Y50064D01*
X237743Y77698D01*
X237724Y77813D01*
X237707Y77929D01*
X237705Y77935D01*
X237704Y77941D01*
X237649Y78044D01*
X237596Y78148D01*
X237591Y78153D01*
X237588Y78158D01*
X237504Y78238D01*
X237420Y78321D01*
X237414Y78324D01*
X237410Y78328D01*
X237393Y78336D01*
X237273Y78402D01*
X234933Y79371D01*
X231771Y82533D01*
X230802Y84873D01*
X230740Y84973D01*
X230680Y85073D01*
X230675Y85077D01*
X230672Y85082D01*
X230582Y85157D01*
X230493Y85233D01*
X230487Y85235D01*
X230482Y85239D01*
X230374Y85281D01*
X230265Y85325D01*
X230257Y85326D01*
X230253Y85327D01*
X230235Y85328D01*
X230098Y85343D01*
X214427Y85343D01*
X118638Y181132D01*
X118564Y181185D01*
X118494Y181245D01*
X118464Y181257D01*
X118438Y181276D01*
X118351Y181303D01*
X118266Y181337D01*
X118225Y181341D01*
X118203Y181348D01*
X118171Y181347D01*
X118099Y181355D01*
X110512Y181355D01*
X105155Y186712D01*
X105155Y194288D01*
X110512Y199645D01*
X118088Y199645D01*
X123445Y194288D01*
X123445Y186701D01*
X123459Y186610D01*
X123467Y186520D01*
X123479Y186490D01*
X123484Y186458D01*
X123527Y186377D01*
X123563Y186293D01*
X123589Y186261D01*
X123600Y186240D01*
X123623Y186218D01*
X123668Y186162D01*
X217150Y92680D01*
X217224Y92627D01*
X217294Y92567D01*
X217324Y92555D01*
X217350Y92536D01*
X217437Y92509D01*
X217522Y92475D01*
X217563Y92471D01*
X217585Y92464D01*
X217617Y92465D01*
X217689Y92457D01*
X230098Y92457D01*
X230213Y92476D01*
X230329Y92493D01*
X230335Y92495D01*
X230341Y92496D01*
X230444Y92551D01*
X230548Y92604D01*
X230553Y92609D01*
X230558Y92612D01*
X230638Y92696D01*
X230721Y92780D01*
X230724Y92786D01*
X230728Y92790D01*
X230736Y92807D01*
X230802Y92927D01*
X231771Y95267D01*
X234933Y98429D01*
X239064Y100140D01*
X243536Y100140D01*
X247667Y98429D01*
X250829Y95267D01*
X252540Y91136D01*
X252540Y86664D01*
X250829Y82533D01*
X247667Y79371D01*
X245327Y78402D01*
X245227Y78340D01*
X245127Y78280D01*
X245123Y78275D01*
X245118Y78272D01*
X245043Y78182D01*
X244967Y78093D01*
X244965Y78087D01*
X244961Y78082D01*
X244919Y77974D01*
X244875Y77865D01*
X244874Y77857D01*
X244873Y77853D01*
X244872Y77835D01*
X244857Y77698D01*
X244857Y50064D01*
X244876Y49949D01*
X244893Y49833D01*
X244895Y49827D01*
X244896Y49821D01*
X244951Y49718D01*
X245004Y49614D01*
X245009Y49609D01*
X245012Y49604D01*
X245096Y49524D01*
X245180Y49441D01*
X245186Y49438D01*
X245190Y49434D01*
X245207Y49426D01*
X245327Y49360D01*
X247667Y48391D01*
X250829Y45229D01*
X252540Y41098D01*
X252540Y36626D01*
X250829Y32495D01*
X247667Y29333D01*
X243536Y27622D01*
X239064Y27622D01*
G37*
%LPD*%
%LPC*%
G36*
X352022Y214121D02*
X352022Y214121D01*
X345109Y215973D01*
X338912Y219552D01*
X333852Y224612D01*
X330273Y230809D01*
X328421Y237722D01*
X328421Y244878D01*
X330273Y251791D01*
X333852Y257988D01*
X338912Y263048D01*
X345109Y266627D01*
X352022Y268479D01*
X359178Y268479D01*
X366091Y266627D01*
X372288Y263048D01*
X377348Y257988D01*
X380927Y251791D01*
X382779Y244878D01*
X382779Y237722D01*
X380927Y230809D01*
X377348Y224612D01*
X372288Y219552D01*
X366091Y215973D01*
X359178Y214121D01*
X352022Y214121D01*
G37*
%LPD*%
%LPC*%
G36*
X580622Y214121D02*
X580622Y214121D01*
X573709Y215973D01*
X567512Y219552D01*
X562452Y224612D01*
X558873Y230809D01*
X557021Y237722D01*
X557021Y244878D01*
X558873Y251791D01*
X562452Y257988D01*
X567512Y263048D01*
X573709Y266627D01*
X580622Y268479D01*
X587778Y268479D01*
X594691Y266627D01*
X600888Y263048D01*
X605948Y257988D01*
X609527Y251791D01*
X611379Y244878D01*
X611379Y237722D01*
X609527Y230809D01*
X605948Y224612D01*
X600888Y219552D01*
X594691Y215973D01*
X587778Y214121D01*
X580622Y214121D01*
G37*
%LPD*%
%LPC*%
G36*
X86664Y27622D02*
X86664Y27622D01*
X82533Y29333D01*
X79371Y32495D01*
X77660Y36626D01*
X77660Y41098D01*
X79371Y45229D01*
X82533Y48391D01*
X84873Y49360D01*
X84973Y49422D01*
X85073Y49482D01*
X85077Y49487D01*
X85082Y49490D01*
X85157Y49580D01*
X85233Y49669D01*
X85235Y49675D01*
X85239Y49680D01*
X85281Y49788D01*
X85325Y49897D01*
X85326Y49905D01*
X85327Y49909D01*
X85328Y49927D01*
X85343Y50064D01*
X85343Y77698D01*
X85324Y77813D01*
X85307Y77929D01*
X85305Y77935D01*
X85304Y77941D01*
X85249Y78044D01*
X85196Y78148D01*
X85191Y78153D01*
X85188Y78158D01*
X85104Y78238D01*
X85020Y78321D01*
X85014Y78324D01*
X85010Y78328D01*
X84993Y78336D01*
X84873Y78402D01*
X82533Y79371D01*
X79371Y82533D01*
X77660Y86664D01*
X77660Y91136D01*
X79371Y95267D01*
X82533Y98429D01*
X84873Y99398D01*
X84973Y99460D01*
X85073Y99520D01*
X85077Y99525D01*
X85082Y99528D01*
X85157Y99618D01*
X85233Y99707D01*
X85235Y99713D01*
X85239Y99718D01*
X85281Y99826D01*
X85325Y99935D01*
X85326Y99943D01*
X85327Y99947D01*
X85328Y99965D01*
X85343Y100102D01*
X85343Y115773D01*
X110520Y140950D01*
X110573Y141024D01*
X110633Y141094D01*
X110645Y141124D01*
X110664Y141150D01*
X110691Y141237D01*
X110725Y141322D01*
X110729Y141363D01*
X110736Y141385D01*
X110735Y141417D01*
X110743Y141489D01*
X110743Y155409D01*
X110729Y155499D01*
X110721Y155590D01*
X110709Y155620D01*
X110704Y155652D01*
X110661Y155732D01*
X110625Y155816D01*
X110599Y155848D01*
X110588Y155869D01*
X110565Y155891D01*
X110520Y155947D01*
X105155Y161312D01*
X105155Y168888D01*
X110512Y174245D01*
X118088Y174245D01*
X123445Y168888D01*
X123445Y161312D01*
X118080Y155947D01*
X118027Y155873D01*
X117967Y155804D01*
X117955Y155774D01*
X117936Y155747D01*
X117909Y155660D01*
X117875Y155576D01*
X117871Y155535D01*
X117864Y155512D01*
X117865Y155480D01*
X117857Y155409D01*
X117857Y138227D01*
X92680Y113050D01*
X92627Y112976D01*
X92567Y112906D01*
X92555Y112876D01*
X92536Y112850D01*
X92509Y112763D01*
X92475Y112678D01*
X92471Y112637D01*
X92464Y112615D01*
X92465Y112583D01*
X92457Y112511D01*
X92457Y100102D01*
X92476Y99987D01*
X92493Y99871D01*
X92495Y99865D01*
X92496Y99859D01*
X92551Y99756D01*
X92604Y99652D01*
X92609Y99647D01*
X92612Y99642D01*
X92696Y99562D01*
X92780Y99479D01*
X92786Y99476D01*
X92790Y99472D01*
X92807Y99464D01*
X92927Y99398D01*
X95267Y98429D01*
X98429Y95267D01*
X100140Y91136D01*
X100140Y86664D01*
X98429Y82533D01*
X95267Y79371D01*
X92927Y78402D01*
X92827Y78340D01*
X92727Y78280D01*
X92723Y78275D01*
X92718Y78272D01*
X92643Y78182D01*
X92567Y78093D01*
X92565Y78087D01*
X92561Y78082D01*
X92519Y77974D01*
X92475Y77865D01*
X92474Y77857D01*
X92473Y77853D01*
X92472Y77835D01*
X92457Y77698D01*
X92457Y50064D01*
X92476Y49949D01*
X92493Y49833D01*
X92495Y49827D01*
X92496Y49821D01*
X92551Y49718D01*
X92604Y49614D01*
X92609Y49609D01*
X92612Y49604D01*
X92696Y49524D01*
X92780Y49441D01*
X92786Y49438D01*
X92790Y49434D01*
X92807Y49426D01*
X92927Y49360D01*
X95267Y48391D01*
X98429Y45229D01*
X100140Y41098D01*
X100140Y36626D01*
X98429Y32495D01*
X95267Y29333D01*
X91136Y27622D01*
X86664Y27622D01*
G37*
%LPD*%
%LPC*%
G36*
X404227Y306577D02*
X404227Y306577D01*
X400213Y308240D01*
X397140Y311313D01*
X395477Y315327D01*
X395477Y319673D01*
X396372Y321833D01*
X396399Y321947D01*
X396427Y322060D01*
X396427Y322067D01*
X396428Y322073D01*
X396417Y322189D01*
X396408Y322306D01*
X396406Y322311D01*
X396405Y322318D01*
X396357Y322425D01*
X396312Y322532D01*
X396307Y322538D01*
X396305Y322542D01*
X396293Y322556D01*
X396207Y322663D01*
X379750Y339120D01*
X379676Y339173D01*
X379606Y339233D01*
X379576Y339245D01*
X379550Y339264D01*
X379463Y339291D01*
X379378Y339325D01*
X379337Y339329D01*
X379315Y339336D01*
X379283Y339335D01*
X379211Y339343D01*
X341427Y339343D01*
X334418Y346352D01*
X334344Y346405D01*
X334274Y346465D01*
X334244Y346477D01*
X334218Y346496D01*
X334131Y346523D01*
X334046Y346557D01*
X334005Y346561D01*
X333983Y346568D01*
X333951Y346567D01*
X333879Y346575D01*
X319868Y346575D01*
X318975Y347468D01*
X318975Y363732D01*
X319868Y364625D01*
X334132Y364625D01*
X335025Y363732D01*
X335025Y356121D01*
X335039Y356030D01*
X335047Y355940D01*
X335059Y355910D01*
X335064Y355878D01*
X335107Y355797D01*
X335143Y355713D01*
X335169Y355681D01*
X335180Y355660D01*
X335203Y355638D01*
X335248Y355582D01*
X344150Y346680D01*
X344224Y346627D01*
X344294Y346567D01*
X344324Y346555D01*
X344350Y346536D01*
X344437Y346509D01*
X344522Y346475D01*
X344563Y346471D01*
X344585Y346464D01*
X344617Y346465D01*
X344689Y346457D01*
X382473Y346457D01*
X401237Y327693D01*
X401331Y327625D01*
X401426Y327555D01*
X401432Y327553D01*
X401437Y327549D01*
X401548Y327515D01*
X401660Y327479D01*
X401666Y327479D01*
X401672Y327477D01*
X401789Y327480D01*
X401906Y327481D01*
X401913Y327483D01*
X401918Y327483D01*
X401935Y327490D01*
X402067Y327528D01*
X404227Y328423D01*
X408573Y328423D01*
X412587Y326760D01*
X415660Y323687D01*
X417323Y319673D01*
X417323Y315327D01*
X415660Y311313D01*
X412587Y308240D01*
X408573Y306577D01*
X404227Y306577D01*
G37*
%LPD*%
%LPC*%
G36*
X532702Y416553D02*
X532702Y416553D01*
X528127Y418448D01*
X524626Y421949D01*
X522731Y426524D01*
X522731Y431476D01*
X524626Y436051D01*
X528127Y439552D01*
X532702Y441447D01*
X559498Y441447D01*
X564073Y439552D01*
X567574Y436051D01*
X569469Y431476D01*
X569469Y426524D01*
X567574Y421949D01*
X564073Y418448D01*
X559498Y416553D01*
X532702Y416553D01*
G37*
%LPD*%
%LPC*%
G36*
X513624Y357631D02*
X513624Y357631D01*
X509049Y359526D01*
X505548Y363027D01*
X503653Y367602D01*
X503653Y394398D01*
X505548Y398973D01*
X509049Y402474D01*
X513624Y404369D01*
X518576Y404369D01*
X523151Y402474D01*
X526652Y398973D01*
X528547Y394398D01*
X528547Y367602D01*
X526652Y363027D01*
X523151Y359526D01*
X518576Y357631D01*
X513624Y357631D01*
G37*
%LPD*%
%LPC*%
G36*
X483047Y394495D02*
X483047Y394495D01*
X479178Y396098D01*
X476218Y399058D01*
X474615Y402927D01*
X474615Y425113D01*
X476218Y428982D01*
X479178Y431942D01*
X483047Y433545D01*
X487233Y433545D01*
X491102Y431942D01*
X494062Y428982D01*
X495665Y425113D01*
X495665Y402927D01*
X494062Y399058D01*
X491102Y396098D01*
X487233Y394495D01*
X483047Y394495D01*
G37*
%LPD*%
%LPC*%
G36*
X196568Y210575D02*
X196568Y210575D01*
X195675Y211468D01*
X195675Y213274D01*
X195672Y213294D01*
X195674Y213313D01*
X195652Y213414D01*
X195636Y213517D01*
X195626Y213534D01*
X195622Y213554D01*
X195569Y213643D01*
X195520Y213734D01*
X195506Y213748D01*
X195496Y213765D01*
X195417Y213832D01*
X195342Y213904D01*
X195324Y213912D01*
X195309Y213925D01*
X195213Y213964D01*
X195119Y214007D01*
X195099Y214009D01*
X195081Y214017D01*
X194914Y214035D01*
X187586Y214035D01*
X187566Y214032D01*
X187547Y214034D01*
X187445Y214012D01*
X187343Y213996D01*
X187326Y213986D01*
X187306Y213982D01*
X187217Y213929D01*
X187126Y213880D01*
X187112Y213866D01*
X187095Y213856D01*
X187028Y213777D01*
X186956Y213702D01*
X186948Y213684D01*
X186935Y213669D01*
X186896Y213573D01*
X186853Y213479D01*
X186851Y213459D01*
X186843Y213441D01*
X186825Y213274D01*
X186825Y211968D01*
X185932Y211075D01*
X169668Y211075D01*
X168775Y211968D01*
X168775Y226232D01*
X169668Y227125D01*
X185932Y227125D01*
X186825Y226232D01*
X186825Y222926D01*
X186828Y222906D01*
X186826Y222887D01*
X186848Y222785D01*
X186864Y222683D01*
X186874Y222666D01*
X186878Y222646D01*
X186931Y222557D01*
X186980Y222466D01*
X186994Y222452D01*
X187004Y222435D01*
X187083Y222368D01*
X187158Y222296D01*
X187176Y222288D01*
X187191Y222275D01*
X187287Y222236D01*
X187381Y222193D01*
X187401Y222191D01*
X187419Y222183D01*
X187586Y222165D01*
X194914Y222165D01*
X194934Y222168D01*
X194953Y222166D01*
X195055Y222188D01*
X195157Y222204D01*
X195174Y222214D01*
X195194Y222218D01*
X195283Y222271D01*
X195374Y222320D01*
X195388Y222334D01*
X195405Y222344D01*
X195472Y222423D01*
X195544Y222498D01*
X195552Y222516D01*
X195565Y222531D01*
X195604Y222627D01*
X195647Y222721D01*
X195649Y222741D01*
X195657Y222759D01*
X195675Y222926D01*
X195675Y224732D01*
X196568Y225625D01*
X209832Y225625D01*
X210725Y224732D01*
X210725Y211468D01*
X209832Y210575D01*
X196568Y210575D01*
G37*
%LPD*%
%LPC*%
G36*
X196568Y337575D02*
X196568Y337575D01*
X195675Y338468D01*
X195675Y340274D01*
X195672Y340294D01*
X195674Y340313D01*
X195652Y340415D01*
X195636Y340517D01*
X195626Y340534D01*
X195622Y340554D01*
X195569Y340643D01*
X195520Y340734D01*
X195506Y340748D01*
X195496Y340765D01*
X195417Y340832D01*
X195342Y340904D01*
X195324Y340912D01*
X195309Y340925D01*
X195213Y340964D01*
X195119Y341007D01*
X195099Y341009D01*
X195081Y341017D01*
X194914Y341035D01*
X187586Y341035D01*
X187566Y341032D01*
X187547Y341034D01*
X187445Y341012D01*
X187343Y340996D01*
X187326Y340986D01*
X187306Y340982D01*
X187217Y340929D01*
X187126Y340880D01*
X187112Y340866D01*
X187095Y340856D01*
X187028Y340777D01*
X186956Y340702D01*
X186948Y340684D01*
X186935Y340669D01*
X186896Y340573D01*
X186853Y340479D01*
X186851Y340459D01*
X186843Y340441D01*
X186825Y340274D01*
X186825Y338968D01*
X185932Y338075D01*
X169668Y338075D01*
X168775Y338968D01*
X168775Y353232D01*
X169668Y354125D01*
X185932Y354125D01*
X186825Y353232D01*
X186825Y349926D01*
X186828Y349906D01*
X186826Y349887D01*
X186848Y349785D01*
X186864Y349683D01*
X186874Y349666D01*
X186878Y349646D01*
X186931Y349557D01*
X186980Y349466D01*
X186994Y349452D01*
X187004Y349435D01*
X187083Y349368D01*
X187158Y349296D01*
X187176Y349288D01*
X187191Y349275D01*
X187287Y349236D01*
X187381Y349193D01*
X187401Y349191D01*
X187419Y349183D01*
X187586Y349165D01*
X194914Y349165D01*
X194934Y349168D01*
X194953Y349166D01*
X195055Y349188D01*
X195157Y349204D01*
X195174Y349214D01*
X195194Y349218D01*
X195283Y349271D01*
X195374Y349320D01*
X195388Y349334D01*
X195405Y349344D01*
X195472Y349423D01*
X195544Y349498D01*
X195552Y349516D01*
X195565Y349531D01*
X195604Y349627D01*
X195647Y349721D01*
X195649Y349741D01*
X195657Y349759D01*
X195675Y349926D01*
X195675Y351732D01*
X196568Y352625D01*
X209832Y352625D01*
X210725Y351732D01*
X210725Y338468D01*
X209832Y337575D01*
X196568Y337575D01*
G37*
%LPD*%
%LPC*%
G36*
X260068Y274075D02*
X260068Y274075D01*
X259175Y274968D01*
X259175Y276774D01*
X259172Y276794D01*
X259174Y276813D01*
X259152Y276915D01*
X259136Y277017D01*
X259126Y277034D01*
X259122Y277054D01*
X259069Y277143D01*
X259020Y277234D01*
X259006Y277248D01*
X258996Y277265D01*
X258917Y277332D01*
X258842Y277404D01*
X258824Y277412D01*
X258809Y277425D01*
X258713Y277464D01*
X258619Y277507D01*
X258599Y277509D01*
X258581Y277517D01*
X258414Y277535D01*
X251086Y277535D01*
X251066Y277532D01*
X251047Y277534D01*
X250945Y277512D01*
X250843Y277496D01*
X250826Y277486D01*
X250806Y277482D01*
X250717Y277429D01*
X250626Y277380D01*
X250612Y277366D01*
X250595Y277356D01*
X250528Y277277D01*
X250456Y277202D01*
X250448Y277184D01*
X250435Y277169D01*
X250396Y277073D01*
X250353Y276979D01*
X250351Y276959D01*
X250343Y276941D01*
X250325Y276774D01*
X250325Y275468D01*
X249432Y274575D01*
X233168Y274575D01*
X232275Y275468D01*
X232275Y289732D01*
X233168Y290625D01*
X249432Y290625D01*
X250325Y289732D01*
X250325Y286426D01*
X250328Y286406D01*
X250326Y286387D01*
X250348Y286285D01*
X250364Y286183D01*
X250374Y286166D01*
X250378Y286146D01*
X250431Y286057D01*
X250480Y285966D01*
X250494Y285952D01*
X250504Y285935D01*
X250583Y285868D01*
X250658Y285796D01*
X250676Y285788D01*
X250691Y285775D01*
X250787Y285736D01*
X250881Y285693D01*
X250901Y285691D01*
X250919Y285683D01*
X251086Y285665D01*
X258414Y285665D01*
X258434Y285668D01*
X258453Y285666D01*
X258555Y285688D01*
X258657Y285704D01*
X258674Y285714D01*
X258694Y285718D01*
X258783Y285771D01*
X258874Y285820D01*
X258888Y285834D01*
X258905Y285844D01*
X258972Y285923D01*
X259044Y285998D01*
X259052Y286016D01*
X259065Y286031D01*
X259104Y286127D01*
X259147Y286221D01*
X259149Y286241D01*
X259157Y286259D01*
X259175Y286426D01*
X259175Y288232D01*
X260068Y289125D01*
X273332Y289125D01*
X274225Y288232D01*
X274225Y274968D01*
X273332Y274075D01*
X260068Y274075D01*
G37*
%LPD*%
%LPC*%
G36*
X133068Y274075D02*
X133068Y274075D01*
X132175Y274968D01*
X132175Y276774D01*
X132172Y276794D01*
X132174Y276813D01*
X132152Y276915D01*
X132136Y277017D01*
X132126Y277034D01*
X132122Y277054D01*
X132069Y277143D01*
X132020Y277234D01*
X132006Y277248D01*
X131996Y277265D01*
X131917Y277332D01*
X131842Y277404D01*
X131824Y277412D01*
X131809Y277425D01*
X131713Y277464D01*
X131619Y277507D01*
X131599Y277509D01*
X131581Y277517D01*
X131414Y277535D01*
X124086Y277535D01*
X124066Y277532D01*
X124047Y277534D01*
X123945Y277512D01*
X123843Y277496D01*
X123826Y277486D01*
X123806Y277482D01*
X123717Y277429D01*
X123626Y277380D01*
X123612Y277366D01*
X123595Y277356D01*
X123528Y277277D01*
X123456Y277202D01*
X123448Y277184D01*
X123435Y277169D01*
X123396Y277073D01*
X123353Y276979D01*
X123351Y276959D01*
X123343Y276941D01*
X123325Y276774D01*
X123325Y275468D01*
X122432Y274575D01*
X106168Y274575D01*
X105275Y275468D01*
X105275Y289732D01*
X106168Y290625D01*
X122432Y290625D01*
X123325Y289732D01*
X123325Y286426D01*
X123328Y286406D01*
X123326Y286387D01*
X123348Y286285D01*
X123364Y286183D01*
X123374Y286166D01*
X123378Y286146D01*
X123431Y286057D01*
X123480Y285966D01*
X123494Y285952D01*
X123504Y285935D01*
X123583Y285868D01*
X123658Y285796D01*
X123676Y285788D01*
X123691Y285775D01*
X123787Y285736D01*
X123881Y285693D01*
X123901Y285691D01*
X123919Y285683D01*
X124086Y285665D01*
X131414Y285665D01*
X131434Y285668D01*
X131453Y285666D01*
X131555Y285688D01*
X131657Y285704D01*
X131674Y285714D01*
X131694Y285718D01*
X131783Y285771D01*
X131874Y285820D01*
X131888Y285834D01*
X131905Y285844D01*
X131972Y285923D01*
X132044Y285998D01*
X132052Y286016D01*
X132065Y286031D01*
X132104Y286127D01*
X132147Y286221D01*
X132149Y286241D01*
X132157Y286259D01*
X132175Y286426D01*
X132175Y288232D01*
X133068Y289125D01*
X146332Y289125D01*
X147225Y288232D01*
X147225Y274968D01*
X146332Y274075D01*
X133068Y274075D01*
G37*
%LPD*%
%LPC*%
G36*
X79461Y359155D02*
X79461Y359155D01*
X76100Y360547D01*
X73527Y363120D01*
X72135Y366481D01*
X72135Y370119D01*
X73527Y373480D01*
X76100Y376053D01*
X79461Y377445D01*
X98339Y377445D01*
X101700Y376053D01*
X104273Y373480D01*
X105665Y370119D01*
X105665Y366481D01*
X104273Y363120D01*
X101700Y360547D01*
X98339Y359155D01*
X79461Y359155D01*
G37*
%LPD*%
%LPC*%
G36*
X531227Y154177D02*
X531227Y154177D01*
X527213Y155840D01*
X524140Y158913D01*
X522477Y162927D01*
X522477Y167273D01*
X524140Y171287D01*
X527213Y174360D01*
X531227Y176023D01*
X535573Y176023D01*
X539587Y174360D01*
X542660Y171287D01*
X544323Y167273D01*
X544323Y162927D01*
X542660Y158913D01*
X539587Y155840D01*
X535573Y154177D01*
X531227Y154177D01*
G37*
%LPD*%
%LPC*%
G36*
X455027Y154177D02*
X455027Y154177D01*
X451013Y155840D01*
X447940Y158913D01*
X446277Y162927D01*
X446277Y167273D01*
X447940Y171287D01*
X451013Y174360D01*
X455027Y176023D01*
X459373Y176023D01*
X463387Y174360D01*
X466460Y171287D01*
X468123Y167273D01*
X468123Y162927D01*
X466460Y158913D01*
X463387Y155840D01*
X459373Y154177D01*
X455027Y154177D01*
G37*
%LPD*%
%LPC*%
G36*
X505827Y154177D02*
X505827Y154177D01*
X501813Y155840D01*
X498740Y158913D01*
X497077Y162927D01*
X497077Y167273D01*
X498740Y171287D01*
X501813Y174360D01*
X505827Y176023D01*
X510173Y176023D01*
X514187Y174360D01*
X517260Y171287D01*
X518923Y167273D01*
X518923Y162927D01*
X517260Y158913D01*
X514187Y155840D01*
X510173Y154177D01*
X505827Y154177D01*
G37*
%LPD*%
%LPC*%
G36*
X480427Y154177D02*
X480427Y154177D01*
X476413Y155840D01*
X473340Y158913D01*
X471677Y162927D01*
X471677Y167273D01*
X473340Y171287D01*
X476413Y174360D01*
X480427Y176023D01*
X484773Y176023D01*
X488787Y174360D01*
X491860Y171287D01*
X493523Y167273D01*
X493523Y162927D01*
X491860Y158913D01*
X488787Y155840D01*
X484773Y154177D01*
X480427Y154177D01*
G37*
%LPD*%
%LPC*%
G36*
X607427Y154177D02*
X607427Y154177D01*
X603413Y155840D01*
X600340Y158913D01*
X598677Y162927D01*
X598677Y167273D01*
X600340Y171287D01*
X603413Y174360D01*
X607427Y176023D01*
X611773Y176023D01*
X615787Y174360D01*
X618860Y171287D01*
X620523Y167273D01*
X620523Y162927D01*
X618860Y158913D01*
X615787Y155840D01*
X611773Y154177D01*
X607427Y154177D01*
G37*
%LPD*%
%LPC*%
G36*
X328027Y154177D02*
X328027Y154177D01*
X324013Y155840D01*
X320940Y158913D01*
X319277Y162927D01*
X319277Y167273D01*
X320940Y171287D01*
X324013Y174360D01*
X328027Y176023D01*
X332373Y176023D01*
X336387Y174360D01*
X339460Y171287D01*
X341123Y167273D01*
X341123Y162927D01*
X339460Y158913D01*
X336387Y155840D01*
X332373Y154177D01*
X328027Y154177D01*
G37*
%LPD*%
%LPC*%
G36*
X378827Y306577D02*
X378827Y306577D01*
X374813Y308240D01*
X371740Y311313D01*
X370077Y315327D01*
X370077Y319673D01*
X371740Y323687D01*
X374813Y326760D01*
X378827Y328423D01*
X383173Y328423D01*
X387187Y326760D01*
X390260Y323687D01*
X391923Y319673D01*
X391923Y315327D01*
X390260Y311313D01*
X387187Y308240D01*
X383173Y306577D01*
X378827Y306577D01*
G37*
%LPD*%
%LPC*%
G36*
X353427Y306577D02*
X353427Y306577D01*
X349413Y308240D01*
X346340Y311313D01*
X344677Y315327D01*
X344677Y319673D01*
X346340Y323687D01*
X349413Y326760D01*
X353427Y328423D01*
X357773Y328423D01*
X361787Y326760D01*
X364860Y323687D01*
X366523Y319673D01*
X366523Y315327D01*
X364860Y311313D01*
X361787Y308240D01*
X357773Y306577D01*
X353427Y306577D01*
G37*
%LPD*%
%LPC*%
G36*
X328027Y306577D02*
X328027Y306577D01*
X324013Y308240D01*
X320940Y311313D01*
X319277Y315327D01*
X319277Y319673D01*
X320940Y323687D01*
X324013Y326760D01*
X328027Y328423D01*
X332373Y328423D01*
X336387Y326760D01*
X339460Y323687D01*
X341123Y319673D01*
X341123Y315327D01*
X339460Y311313D01*
X336387Y308240D01*
X332373Y306577D01*
X328027Y306577D01*
G37*
%LPD*%
%LPC*%
G36*
X455027Y306577D02*
X455027Y306577D01*
X451013Y308240D01*
X447940Y311313D01*
X446277Y315327D01*
X446277Y319673D01*
X447940Y323687D01*
X451013Y326760D01*
X455027Y328423D01*
X459373Y328423D01*
X463387Y326760D01*
X466460Y323687D01*
X468123Y319673D01*
X468123Y315327D01*
X466460Y311313D01*
X463387Y308240D01*
X459373Y306577D01*
X455027Y306577D01*
G37*
%LPD*%
%LPC*%
G36*
X429627Y306577D02*
X429627Y306577D01*
X425613Y308240D01*
X422540Y311313D01*
X420877Y315327D01*
X420877Y319673D01*
X422540Y323687D01*
X425613Y326760D01*
X429627Y328423D01*
X433973Y328423D01*
X437987Y326760D01*
X441060Y323687D01*
X442723Y319673D01*
X442723Y315327D01*
X441060Y311313D01*
X437987Y308240D01*
X433973Y306577D01*
X429627Y306577D01*
G37*
%LPD*%
%LPC*%
G36*
X404227Y154177D02*
X404227Y154177D01*
X400213Y155840D01*
X397140Y158913D01*
X395477Y162927D01*
X395477Y167273D01*
X397140Y171287D01*
X400213Y174360D01*
X404227Y176023D01*
X408573Y176023D01*
X412587Y174360D01*
X415660Y171287D01*
X417323Y167273D01*
X417323Y162927D01*
X415660Y158913D01*
X412587Y155840D01*
X408573Y154177D01*
X404227Y154177D01*
G37*
%LPD*%
%LPC*%
G36*
X378827Y154177D02*
X378827Y154177D01*
X374813Y155840D01*
X371740Y158913D01*
X370077Y162927D01*
X370077Y167273D01*
X371740Y171287D01*
X374813Y174360D01*
X378827Y176023D01*
X383173Y176023D01*
X387187Y174360D01*
X390260Y171287D01*
X391923Y167273D01*
X391923Y162927D01*
X390260Y158913D01*
X387187Y155840D01*
X383173Y154177D01*
X378827Y154177D01*
G37*
%LPD*%
%LPC*%
G36*
X429627Y154177D02*
X429627Y154177D01*
X425613Y155840D01*
X422540Y158913D01*
X420877Y162927D01*
X420877Y167273D01*
X422540Y171287D01*
X425613Y174360D01*
X429627Y176023D01*
X433973Y176023D01*
X437987Y174360D01*
X441060Y171287D01*
X442723Y167273D01*
X442723Y162927D01*
X441060Y158913D01*
X437987Y155840D01*
X433973Y154177D01*
X429627Y154177D01*
G37*
%LPD*%
%LPC*%
G36*
X353427Y154177D02*
X353427Y154177D01*
X349413Y155840D01*
X346340Y158913D01*
X344677Y162927D01*
X344677Y167273D01*
X346340Y171287D01*
X349413Y174360D01*
X353427Y176023D01*
X357773Y176023D01*
X361787Y174360D01*
X364860Y171287D01*
X366523Y167273D01*
X366523Y162927D01*
X364860Y158913D01*
X361787Y155840D01*
X357773Y154177D01*
X353427Y154177D01*
G37*
%LPD*%
%LPC*%
G36*
X133068Y295075D02*
X133068Y295075D01*
X132175Y295968D01*
X132175Y309232D01*
X133068Y310125D01*
X135382Y310125D01*
X135402Y310128D01*
X135421Y310126D01*
X135523Y310148D01*
X135625Y310164D01*
X135642Y310174D01*
X135662Y310178D01*
X135751Y310231D01*
X135842Y310280D01*
X135856Y310294D01*
X135873Y310304D01*
X135940Y310383D01*
X136012Y310458D01*
X136020Y310476D01*
X136033Y310491D01*
X136072Y310587D01*
X136115Y310681D01*
X136117Y310701D01*
X136125Y310719D01*
X136143Y310886D01*
X136143Y313237D01*
X136129Y313327D01*
X136121Y313418D01*
X136109Y313447D01*
X136104Y313479D01*
X136061Y313560D01*
X136025Y313644D01*
X135999Y313676D01*
X135988Y313697D01*
X135965Y313719D01*
X135920Y313775D01*
X134393Y315302D01*
X134393Y319698D01*
X137502Y322807D01*
X141898Y322807D01*
X145007Y319698D01*
X145007Y315302D01*
X143480Y313775D01*
X143427Y313701D01*
X143367Y313631D01*
X143355Y313601D01*
X143336Y313575D01*
X143309Y313488D01*
X143275Y313403D01*
X143271Y313362D01*
X143264Y313340D01*
X143265Y313308D01*
X143257Y313237D01*
X143257Y310886D01*
X143260Y310866D01*
X143258Y310847D01*
X143280Y310745D01*
X143296Y310643D01*
X143306Y310626D01*
X143310Y310606D01*
X143363Y310517D01*
X143412Y310426D01*
X143426Y310412D01*
X143436Y310395D01*
X143515Y310328D01*
X143590Y310256D01*
X143608Y310248D01*
X143623Y310235D01*
X143719Y310196D01*
X143813Y310153D01*
X143833Y310151D01*
X143851Y310143D01*
X144018Y310125D01*
X146332Y310125D01*
X147225Y309232D01*
X147225Y295968D01*
X146332Y295075D01*
X133068Y295075D01*
G37*
%LPD*%
%LPC*%
G36*
X196568Y231575D02*
X196568Y231575D01*
X195675Y232468D01*
X195675Y245732D01*
X196568Y246625D01*
X198882Y246625D01*
X198902Y246628D01*
X198921Y246626D01*
X199023Y246648D01*
X199125Y246664D01*
X199142Y246674D01*
X199162Y246678D01*
X199251Y246731D01*
X199342Y246780D01*
X199356Y246794D01*
X199373Y246804D01*
X199440Y246883D01*
X199512Y246958D01*
X199520Y246976D01*
X199533Y246991D01*
X199572Y247087D01*
X199615Y247181D01*
X199617Y247201D01*
X199625Y247219D01*
X199643Y247386D01*
X199643Y249737D01*
X199629Y249827D01*
X199621Y249918D01*
X199609Y249947D01*
X199604Y249979D01*
X199561Y250060D01*
X199525Y250144D01*
X199499Y250176D01*
X199488Y250197D01*
X199465Y250219D01*
X199420Y250275D01*
X197893Y251802D01*
X197893Y256198D01*
X201002Y259307D01*
X205398Y259307D01*
X208507Y256198D01*
X208507Y251802D01*
X206980Y250275D01*
X206927Y250201D01*
X206867Y250131D01*
X206855Y250101D01*
X206836Y250075D01*
X206809Y249988D01*
X206775Y249903D01*
X206771Y249862D01*
X206764Y249840D01*
X206765Y249808D01*
X206757Y249737D01*
X206757Y247386D01*
X206760Y247366D01*
X206758Y247347D01*
X206780Y247245D01*
X206796Y247143D01*
X206806Y247126D01*
X206810Y247106D01*
X206863Y247017D01*
X206912Y246926D01*
X206926Y246912D01*
X206936Y246895D01*
X207015Y246828D01*
X207090Y246756D01*
X207108Y246748D01*
X207123Y246735D01*
X207219Y246696D01*
X207313Y246653D01*
X207333Y246651D01*
X207351Y246643D01*
X207518Y246625D01*
X209832Y246625D01*
X210725Y245732D01*
X210725Y232468D01*
X209832Y231575D01*
X196568Y231575D01*
G37*
%LPD*%
%LPC*%
G36*
X260068Y295075D02*
X260068Y295075D01*
X259175Y295968D01*
X259175Y309232D01*
X260068Y310125D01*
X262382Y310125D01*
X262402Y310128D01*
X262421Y310126D01*
X262523Y310148D01*
X262625Y310164D01*
X262642Y310174D01*
X262662Y310178D01*
X262751Y310231D01*
X262842Y310280D01*
X262856Y310294D01*
X262873Y310304D01*
X262940Y310383D01*
X263012Y310458D01*
X263020Y310476D01*
X263033Y310491D01*
X263072Y310587D01*
X263115Y310681D01*
X263117Y310701D01*
X263125Y310719D01*
X263143Y310886D01*
X263143Y313237D01*
X263129Y313327D01*
X263121Y313418D01*
X263109Y313447D01*
X263104Y313479D01*
X263061Y313560D01*
X263025Y313644D01*
X262999Y313676D01*
X262988Y313697D01*
X262965Y313719D01*
X262920Y313775D01*
X261393Y315302D01*
X261393Y319698D01*
X264502Y322807D01*
X268898Y322807D01*
X272007Y319698D01*
X272007Y315302D01*
X270480Y313775D01*
X270427Y313701D01*
X270367Y313631D01*
X270355Y313601D01*
X270336Y313575D01*
X270309Y313488D01*
X270275Y313403D01*
X270271Y313362D01*
X270264Y313340D01*
X270265Y313308D01*
X270257Y313237D01*
X270257Y310886D01*
X270260Y310866D01*
X270258Y310847D01*
X270280Y310745D01*
X270296Y310643D01*
X270306Y310626D01*
X270310Y310606D01*
X270363Y310517D01*
X270412Y310426D01*
X270426Y310412D01*
X270436Y310395D01*
X270515Y310328D01*
X270590Y310256D01*
X270608Y310248D01*
X270623Y310235D01*
X270719Y310196D01*
X270813Y310153D01*
X270833Y310151D01*
X270851Y310143D01*
X271018Y310125D01*
X273332Y310125D01*
X274225Y309232D01*
X274225Y295968D01*
X273332Y295075D01*
X260068Y295075D01*
G37*
%LPD*%
%LPC*%
G36*
X196568Y358575D02*
X196568Y358575D01*
X195675Y359468D01*
X195675Y372732D01*
X196568Y373625D01*
X198882Y373625D01*
X198902Y373628D01*
X198921Y373626D01*
X199023Y373648D01*
X199125Y373664D01*
X199142Y373674D01*
X199162Y373678D01*
X199251Y373731D01*
X199342Y373780D01*
X199356Y373794D01*
X199373Y373804D01*
X199440Y373883D01*
X199512Y373958D01*
X199520Y373976D01*
X199533Y373991D01*
X199572Y374087D01*
X199615Y374181D01*
X199617Y374201D01*
X199625Y374219D01*
X199643Y374386D01*
X199643Y376737D01*
X199629Y376827D01*
X199621Y376918D01*
X199609Y376947D01*
X199604Y376979D01*
X199561Y377060D01*
X199525Y377144D01*
X199499Y377176D01*
X199488Y377197D01*
X199465Y377219D01*
X199420Y377275D01*
X197893Y378802D01*
X197893Y383198D01*
X201002Y386307D01*
X205398Y386307D01*
X208507Y383198D01*
X208507Y378802D01*
X206980Y377275D01*
X206927Y377201D01*
X206867Y377131D01*
X206855Y377101D01*
X206836Y377075D01*
X206809Y376988D01*
X206775Y376903D01*
X206771Y376862D01*
X206764Y376840D01*
X206765Y376808D01*
X206757Y376737D01*
X206757Y374386D01*
X206760Y374366D01*
X206758Y374347D01*
X206780Y374245D01*
X206796Y374143D01*
X206806Y374126D01*
X206810Y374106D01*
X206863Y374017D01*
X206912Y373926D01*
X206926Y373912D01*
X206936Y373895D01*
X207015Y373828D01*
X207090Y373756D01*
X207108Y373748D01*
X207123Y373735D01*
X207219Y373696D01*
X207313Y373653D01*
X207333Y373651D01*
X207351Y373643D01*
X207518Y373625D01*
X209832Y373625D01*
X210725Y372732D01*
X210725Y359468D01*
X209832Y358575D01*
X196568Y358575D01*
G37*
%LPD*%
%LPC*%
G36*
X262265Y371474D02*
X262265Y371474D01*
X258764Y372924D01*
X256084Y375604D01*
X254634Y379105D01*
X254634Y382895D01*
X256084Y386396D01*
X258764Y389076D01*
X262265Y390526D01*
X266055Y390526D01*
X269556Y389076D01*
X272236Y386396D01*
X273686Y382895D01*
X273686Y379105D01*
X272236Y375604D01*
X269556Y372924D01*
X266055Y371474D01*
X262265Y371474D01*
G37*
%LPD*%
%LPC*%
G36*
X85112Y181355D02*
X85112Y181355D01*
X79755Y186712D01*
X79755Y194288D01*
X85112Y199645D01*
X92688Y199645D01*
X98045Y194288D01*
X98045Y186712D01*
X92688Y181355D01*
X85112Y181355D01*
G37*
%LPD*%
%LPC*%
G36*
X85112Y232155D02*
X85112Y232155D01*
X79755Y237512D01*
X79755Y245088D01*
X85112Y250445D01*
X92688Y250445D01*
X98045Y245088D01*
X98045Y237512D01*
X92688Y232155D01*
X85112Y232155D01*
G37*
%LPD*%
%LPC*%
G36*
X85112Y155955D02*
X85112Y155955D01*
X79755Y161312D01*
X79755Y168888D01*
X85112Y174245D01*
X92688Y174245D01*
X98045Y168888D01*
X98045Y161312D01*
X92688Y155955D01*
X85112Y155955D01*
G37*
%LPD*%
%LPC*%
G36*
X85112Y206755D02*
X85112Y206755D01*
X79755Y212112D01*
X79755Y219688D01*
X85112Y225045D01*
X92688Y225045D01*
X98045Y219688D01*
X98045Y212112D01*
X92688Y206755D01*
X85112Y206755D01*
G37*
%LPD*%
%LPC*%
G36*
X577623Y382523D02*
X577623Y382523D01*
X577623Y405311D01*
X579252Y405053D01*
X581268Y404398D01*
X583156Y403436D01*
X584870Y402191D01*
X586369Y400692D01*
X587614Y398978D01*
X588576Y397090D01*
X589231Y395074D01*
X589563Y392982D01*
X589563Y382523D01*
X577623Y382523D01*
G37*
%LPD*%
%LPC*%
G36*
X577623Y379477D02*
X577623Y379477D01*
X589563Y379477D01*
X589563Y369018D01*
X589231Y366926D01*
X588576Y364910D01*
X587614Y363022D01*
X586369Y361308D01*
X584870Y359809D01*
X583156Y358564D01*
X581268Y357602D01*
X579252Y356947D01*
X577623Y356689D01*
X577623Y379477D01*
G37*
%LPD*%
%LPC*%
G36*
X562637Y382523D02*
X562637Y382523D01*
X562637Y392982D01*
X562969Y395074D01*
X563624Y397090D01*
X564586Y398978D01*
X565831Y400692D01*
X567330Y402191D01*
X569044Y403436D01*
X570932Y404398D01*
X572948Y405053D01*
X574577Y405311D01*
X574577Y382523D01*
X562637Y382523D01*
G37*
%LPD*%
%LPC*%
G36*
X572948Y356947D02*
X572948Y356947D01*
X570932Y357602D01*
X569044Y358564D01*
X567330Y359809D01*
X565831Y361308D01*
X564586Y363022D01*
X563624Y364910D01*
X562969Y366926D01*
X562637Y369018D01*
X562637Y379477D01*
X574577Y379477D01*
X574577Y356689D01*
X572948Y356947D01*
G37*
%LPD*%
%LPC*%
G36*
X461263Y415543D02*
X461263Y415543D01*
X461263Y434463D01*
X462442Y434277D01*
X464170Y433715D01*
X465789Y432891D01*
X467258Y431823D01*
X468543Y430538D01*
X469611Y429069D01*
X470435Y427450D01*
X470997Y425722D01*
X471281Y423928D01*
X471281Y415543D01*
X461263Y415543D01*
G37*
%LPD*%
%LPC*%
G36*
X461263Y412497D02*
X461263Y412497D01*
X471281Y412497D01*
X471281Y404112D01*
X470997Y402318D01*
X470435Y400590D01*
X469611Y398971D01*
X468543Y397502D01*
X467258Y396217D01*
X465789Y395149D01*
X464170Y394325D01*
X462442Y393763D01*
X461263Y393577D01*
X461263Y412497D01*
G37*
%LPD*%
%LPC*%
G36*
X448199Y415543D02*
X448199Y415543D01*
X448199Y423928D01*
X448483Y425722D01*
X449045Y427450D01*
X449869Y429069D01*
X450937Y430538D01*
X452222Y431823D01*
X453691Y432891D01*
X455310Y433715D01*
X457038Y434277D01*
X458217Y434463D01*
X458217Y415543D01*
X448199Y415543D01*
G37*
%LPD*%
%LPC*%
G36*
X457038Y393763D02*
X457038Y393763D01*
X455310Y394325D01*
X453691Y395149D01*
X452222Y396217D01*
X450937Y397502D01*
X449869Y398971D01*
X449045Y400590D01*
X448483Y402318D01*
X448199Y404112D01*
X448199Y412497D01*
X458217Y412497D01*
X458217Y393577D01*
X457038Y393763D01*
G37*
%LPD*%
%LPC*%
G36*
X362711Y405129D02*
X362711Y405129D01*
X362711Y413767D01*
X369608Y413767D01*
X371187Y413517D01*
X372708Y413022D01*
X374133Y412296D01*
X375427Y411356D01*
X376558Y410225D01*
X377498Y408931D01*
X378224Y407506D01*
X378719Y405985D01*
X378854Y405129D01*
X362711Y405129D01*
G37*
%LPD*%
%LPC*%
G36*
X427735Y405129D02*
X427735Y405129D01*
X427735Y413767D01*
X434632Y413767D01*
X436211Y413517D01*
X437732Y413022D01*
X439157Y412296D01*
X440451Y411356D01*
X441582Y410225D01*
X442522Y408931D01*
X443248Y407506D01*
X443743Y405985D01*
X443878Y405129D01*
X427735Y405129D01*
G37*
%LPD*%
%LPC*%
G36*
X90423Y395223D02*
X90423Y395223D01*
X90423Y403861D01*
X97320Y403861D01*
X98899Y403611D01*
X100420Y403116D01*
X101845Y402390D01*
X103139Y401450D01*
X104270Y400319D01*
X105210Y399025D01*
X105936Y397600D01*
X106431Y396079D01*
X106566Y395223D01*
X90423Y395223D01*
G37*
%LPD*%
%LPC*%
G36*
X408546Y405129D02*
X408546Y405129D01*
X408681Y405985D01*
X409176Y407506D01*
X409902Y408931D01*
X410842Y410225D01*
X411973Y411356D01*
X413267Y412296D01*
X414692Y413022D01*
X416213Y413517D01*
X417792Y413767D01*
X424689Y413767D01*
X424689Y405129D01*
X408546Y405129D01*
G37*
%LPD*%
%LPC*%
G36*
X343522Y405129D02*
X343522Y405129D01*
X343657Y405985D01*
X344152Y407506D01*
X344878Y408931D01*
X345818Y410225D01*
X346949Y411356D01*
X348243Y412296D01*
X349668Y413022D01*
X351189Y413517D01*
X352768Y413767D01*
X359665Y413767D01*
X359665Y405129D01*
X343522Y405129D01*
G37*
%LPD*%
%LPC*%
G36*
X71234Y395223D02*
X71234Y395223D01*
X71369Y396079D01*
X71864Y397600D01*
X72590Y399025D01*
X73530Y400319D01*
X74661Y401450D01*
X75955Y402390D01*
X77380Y403116D01*
X78901Y403611D01*
X80480Y403861D01*
X87377Y403861D01*
X87377Y395223D01*
X71234Y395223D01*
G37*
%LPD*%
%LPC*%
G36*
X427735Y393445D02*
X427735Y393445D01*
X427735Y402083D01*
X443878Y402083D01*
X443743Y401227D01*
X443248Y399706D01*
X442522Y398281D01*
X441582Y396987D01*
X440451Y395856D01*
X439157Y394916D01*
X437732Y394190D01*
X436211Y393695D01*
X434632Y393445D01*
X427735Y393445D01*
G37*
%LPD*%
%LPC*%
G36*
X362711Y393445D02*
X362711Y393445D01*
X362711Y402083D01*
X378854Y402083D01*
X378719Y401227D01*
X378224Y399706D01*
X377498Y398281D01*
X376558Y396987D01*
X375427Y395856D01*
X374133Y394916D01*
X372708Y394190D01*
X371187Y393695D01*
X369608Y393445D01*
X362711Y393445D01*
G37*
%LPD*%
%LPC*%
G36*
X90423Y383539D02*
X90423Y383539D01*
X90423Y392177D01*
X106566Y392177D01*
X106431Y391321D01*
X105936Y389800D01*
X105210Y388375D01*
X104270Y387081D01*
X103139Y385950D01*
X101845Y385010D01*
X100420Y384284D01*
X98899Y383789D01*
X97320Y383539D01*
X90423Y383539D01*
G37*
%LPD*%
%LPC*%
G36*
X417792Y393445D02*
X417792Y393445D01*
X416213Y393695D01*
X414692Y394190D01*
X413267Y394916D01*
X411973Y395856D01*
X410842Y396987D01*
X409902Y398281D01*
X409176Y399706D01*
X408681Y401227D01*
X408546Y402083D01*
X424689Y402083D01*
X424689Y393445D01*
X417792Y393445D01*
G37*
%LPD*%
%LPC*%
G36*
X352768Y393445D02*
X352768Y393445D01*
X351189Y393695D01*
X349668Y394190D01*
X348243Y394916D01*
X346949Y395856D01*
X345818Y396987D01*
X344878Y398281D01*
X344152Y399706D01*
X343657Y401227D01*
X343522Y402083D01*
X359665Y402083D01*
X359665Y393445D01*
X352768Y393445D01*
G37*
%LPD*%
%LPC*%
G36*
X80480Y383539D02*
X80480Y383539D01*
X78901Y383789D01*
X77380Y384284D01*
X75955Y385010D01*
X74661Y385950D01*
X73530Y387081D01*
X72590Y388375D01*
X71864Y389800D01*
X71369Y391321D01*
X71234Y392177D01*
X87377Y392177D01*
X87377Y383539D01*
X80480Y383539D01*
G37*
%LPD*%
%LPC*%
G36*
X319023Y90423D02*
X319023Y90423D01*
X319023Y101068D01*
X320370Y100854D01*
X322205Y100258D01*
X323924Y99383D01*
X325485Y98248D01*
X326848Y96885D01*
X327983Y95324D01*
X328858Y93605D01*
X329454Y91770D01*
X329668Y90423D01*
X319023Y90423D01*
G37*
%LPD*%
%LPC*%
G36*
X166623Y90423D02*
X166623Y90423D01*
X166623Y101068D01*
X167970Y100854D01*
X169805Y100258D01*
X171524Y99383D01*
X173085Y98248D01*
X174448Y96885D01*
X175583Y95324D01*
X176458Y93605D01*
X177054Y91770D01*
X177268Y90423D01*
X166623Y90423D01*
G37*
%LPD*%
%LPC*%
G36*
X623823Y40385D02*
X623823Y40385D01*
X623823Y51030D01*
X625170Y50816D01*
X627005Y50220D01*
X628724Y49345D01*
X630285Y48210D01*
X631648Y46847D01*
X632783Y45286D01*
X633658Y43567D01*
X634254Y41732D01*
X634468Y40385D01*
X623823Y40385D01*
G37*
%LPD*%
%LPC*%
G36*
X166623Y40385D02*
X166623Y40385D01*
X166623Y51030D01*
X167970Y50816D01*
X169805Y50220D01*
X171524Y49345D01*
X173085Y48210D01*
X174448Y46847D01*
X175583Y45286D01*
X176458Y43567D01*
X177054Y41732D01*
X177268Y40385D01*
X166623Y40385D01*
G37*
%LPD*%
%LPC*%
G36*
X471423Y40385D02*
X471423Y40385D01*
X471423Y51030D01*
X472770Y50816D01*
X474605Y50220D01*
X476324Y49345D01*
X477885Y48210D01*
X479248Y46847D01*
X480383Y45286D01*
X481258Y43567D01*
X481854Y41732D01*
X482068Y40385D01*
X471423Y40385D01*
G37*
%LPD*%
%LPC*%
G36*
X319023Y40385D02*
X319023Y40385D01*
X319023Y51030D01*
X320370Y50816D01*
X322205Y50220D01*
X323924Y49345D01*
X325485Y48210D01*
X326848Y46847D01*
X327983Y45286D01*
X328858Y43567D01*
X329454Y41732D01*
X329668Y40385D01*
X319023Y40385D01*
G37*
%LPD*%
%LPC*%
G36*
X623823Y90423D02*
X623823Y90423D01*
X623823Y101068D01*
X625170Y100854D01*
X627005Y100258D01*
X628724Y99383D01*
X630285Y98248D01*
X631648Y96885D01*
X632783Y95324D01*
X633658Y93605D01*
X634254Y91770D01*
X634468Y90423D01*
X623823Y90423D01*
G37*
%LPD*%
%LPC*%
G36*
X471423Y90423D02*
X471423Y90423D01*
X471423Y101068D01*
X472770Y100854D01*
X474605Y100258D01*
X476324Y99383D01*
X477885Y98248D01*
X479248Y96885D01*
X480383Y95324D01*
X481258Y93605D01*
X481854Y91770D01*
X482068Y90423D01*
X471423Y90423D01*
G37*
%LPD*%
%LPC*%
G36*
X457732Y40385D02*
X457732Y40385D01*
X457946Y41732D01*
X458542Y43567D01*
X459417Y45286D01*
X460552Y46847D01*
X461915Y48210D01*
X463476Y49345D01*
X465195Y50220D01*
X467030Y50816D01*
X468377Y51030D01*
X468377Y40385D01*
X457732Y40385D01*
G37*
%LPD*%
%LPC*%
G36*
X623823Y37339D02*
X623823Y37339D01*
X634468Y37339D01*
X634254Y35992D01*
X633658Y34157D01*
X632783Y32438D01*
X631648Y30877D01*
X630285Y29514D01*
X628724Y28379D01*
X627005Y27504D01*
X625170Y26908D01*
X623823Y26694D01*
X623823Y37339D01*
G37*
%LPD*%
%LPC*%
G36*
X471423Y37339D02*
X471423Y37339D01*
X482068Y37339D01*
X481854Y35992D01*
X481258Y34157D01*
X480383Y32438D01*
X479248Y30877D01*
X477885Y29514D01*
X476324Y28379D01*
X474605Y27504D01*
X472770Y26908D01*
X471423Y26694D01*
X471423Y37339D01*
G37*
%LPD*%
%LPC*%
G36*
X305332Y90423D02*
X305332Y90423D01*
X305546Y91770D01*
X306142Y93605D01*
X307017Y95324D01*
X308152Y96885D01*
X309515Y98248D01*
X311076Y99383D01*
X312795Y100258D01*
X314630Y100854D01*
X315977Y101068D01*
X315977Y90423D01*
X305332Y90423D01*
G37*
%LPD*%
%LPC*%
G36*
X319023Y37339D02*
X319023Y37339D01*
X329668Y37339D01*
X329454Y35992D01*
X328858Y34157D01*
X327983Y32438D01*
X326848Y30877D01*
X325485Y29514D01*
X323924Y28379D01*
X322205Y27504D01*
X320370Y26908D01*
X319023Y26694D01*
X319023Y37339D01*
G37*
%LPD*%
%LPC*%
G36*
X166623Y37339D02*
X166623Y37339D01*
X177268Y37339D01*
X177054Y35992D01*
X176458Y34157D01*
X175583Y32438D01*
X174448Y30877D01*
X173085Y29514D01*
X171524Y28379D01*
X169805Y27504D01*
X167970Y26908D01*
X166623Y26694D01*
X166623Y37339D01*
G37*
%LPD*%
%LPC*%
G36*
X610132Y40385D02*
X610132Y40385D01*
X610346Y41732D01*
X610942Y43567D01*
X611817Y45286D01*
X612952Y46847D01*
X614315Y48210D01*
X615876Y49345D01*
X617595Y50220D01*
X619430Y50816D01*
X620777Y51030D01*
X620777Y40385D01*
X610132Y40385D01*
G37*
%LPD*%
%LPC*%
G36*
X457732Y90423D02*
X457732Y90423D01*
X457946Y91770D01*
X458542Y93605D01*
X459417Y95324D01*
X460552Y96885D01*
X461915Y98248D01*
X463476Y99383D01*
X465195Y100258D01*
X467030Y100854D01*
X468377Y101068D01*
X468377Y90423D01*
X457732Y90423D01*
G37*
%LPD*%
%LPC*%
G36*
X152932Y90423D02*
X152932Y90423D01*
X153146Y91770D01*
X153742Y93605D01*
X154617Y95324D01*
X155752Y96885D01*
X157115Y98248D01*
X158676Y99383D01*
X160395Y100258D01*
X162230Y100854D01*
X163577Y101068D01*
X163577Y90423D01*
X152932Y90423D01*
G37*
%LPD*%
%LPC*%
G36*
X610132Y90423D02*
X610132Y90423D01*
X610346Y91770D01*
X610942Y93605D01*
X611817Y95324D01*
X612952Y96885D01*
X614315Y98248D01*
X615876Y99383D01*
X617595Y100258D01*
X619430Y100854D01*
X620777Y101068D01*
X620777Y90423D01*
X610132Y90423D01*
G37*
%LPD*%
%LPC*%
G36*
X623823Y87377D02*
X623823Y87377D01*
X634468Y87377D01*
X634254Y86030D01*
X633658Y84195D01*
X632783Y82476D01*
X631648Y80915D01*
X630285Y79552D01*
X628724Y78417D01*
X627005Y77542D01*
X625170Y76946D01*
X623823Y76732D01*
X623823Y87377D01*
G37*
%LPD*%
%LPC*%
G36*
X471423Y87377D02*
X471423Y87377D01*
X482068Y87377D01*
X481854Y86030D01*
X481258Y84195D01*
X480383Y82476D01*
X479248Y80915D01*
X477885Y79552D01*
X476324Y78417D01*
X474605Y77542D01*
X472770Y76946D01*
X471423Y76732D01*
X471423Y87377D01*
G37*
%LPD*%
%LPC*%
G36*
X319023Y87377D02*
X319023Y87377D01*
X329668Y87377D01*
X329454Y86030D01*
X328858Y84195D01*
X327983Y82476D01*
X326848Y80915D01*
X325485Y79552D01*
X323924Y78417D01*
X322205Y77542D01*
X320370Y76946D01*
X319023Y76732D01*
X319023Y87377D01*
G37*
%LPD*%
%LPC*%
G36*
X166623Y87377D02*
X166623Y87377D01*
X177268Y87377D01*
X177054Y86030D01*
X176458Y84195D01*
X175583Y82476D01*
X174448Y80915D01*
X173085Y79552D01*
X171524Y78417D01*
X169805Y77542D01*
X167970Y76946D01*
X166623Y76732D01*
X166623Y87377D01*
G37*
%LPD*%
%LPC*%
G36*
X152932Y40385D02*
X152932Y40385D01*
X153146Y41732D01*
X153742Y43567D01*
X154617Y45286D01*
X155752Y46847D01*
X157115Y48210D01*
X158676Y49345D01*
X160395Y50220D01*
X162230Y50816D01*
X163577Y51030D01*
X163577Y40385D01*
X152932Y40385D01*
G37*
%LPD*%
%LPC*%
G36*
X305332Y40385D02*
X305332Y40385D01*
X305546Y41732D01*
X306142Y43567D01*
X307017Y45286D01*
X308152Y46847D01*
X309515Y48210D01*
X311076Y49345D01*
X312795Y50220D01*
X314630Y50816D01*
X315977Y51030D01*
X315977Y40385D01*
X305332Y40385D01*
G37*
%LPD*%
%LPC*%
G36*
X162230Y26908D02*
X162230Y26908D01*
X160395Y27504D01*
X158676Y28379D01*
X157115Y29514D01*
X155752Y30877D01*
X154617Y32438D01*
X153742Y34157D01*
X153146Y35992D01*
X152932Y37339D01*
X163577Y37339D01*
X163577Y26694D01*
X162230Y26908D01*
G37*
%LPD*%
%LPC*%
G36*
X162230Y76946D02*
X162230Y76946D01*
X160395Y77542D01*
X158676Y78417D01*
X157115Y79552D01*
X155752Y80915D01*
X154617Y82476D01*
X153742Y84195D01*
X153146Y86030D01*
X152932Y87377D01*
X163577Y87377D01*
X163577Y76732D01*
X162230Y76946D01*
G37*
%LPD*%
%LPC*%
G36*
X314630Y76946D02*
X314630Y76946D01*
X312795Y77542D01*
X311076Y78417D01*
X309515Y79552D01*
X308152Y80915D01*
X307017Y82476D01*
X306142Y84195D01*
X305546Y86030D01*
X305332Y87377D01*
X315977Y87377D01*
X315977Y76732D01*
X314630Y76946D01*
G37*
%LPD*%
%LPC*%
G36*
X467030Y76946D02*
X467030Y76946D01*
X465195Y77542D01*
X463476Y78417D01*
X461915Y79552D01*
X460552Y80915D01*
X459417Y82476D01*
X458542Y84195D01*
X457946Y86030D01*
X457732Y87377D01*
X468377Y87377D01*
X468377Y76732D01*
X467030Y76946D01*
G37*
%LPD*%
%LPC*%
G36*
X314630Y26908D02*
X314630Y26908D01*
X312795Y27504D01*
X311076Y28379D01*
X309515Y29514D01*
X308152Y30877D01*
X307017Y32438D01*
X306142Y34157D01*
X305546Y35992D01*
X305332Y37339D01*
X315977Y37339D01*
X315977Y26694D01*
X314630Y26908D01*
G37*
%LPD*%
%LPC*%
G36*
X619430Y76946D02*
X619430Y76946D01*
X617595Y77542D01*
X615876Y78417D01*
X614315Y79552D01*
X612952Y80915D01*
X611817Y82476D01*
X610942Y84195D01*
X610346Y86030D01*
X610132Y87377D01*
X620777Y87377D01*
X620777Y76732D01*
X619430Y76946D01*
G37*
%LPD*%
%LPC*%
G36*
X467030Y26908D02*
X467030Y26908D01*
X465195Y27504D01*
X463476Y28379D01*
X461915Y29514D01*
X460552Y30877D01*
X459417Y32438D01*
X458542Y34157D01*
X457946Y35992D01*
X457732Y37339D01*
X468377Y37339D01*
X468377Y26694D01*
X467030Y26908D01*
G37*
%LPD*%
%LPC*%
G36*
X619430Y26908D02*
X619430Y26908D01*
X617595Y27504D01*
X615876Y28379D01*
X614315Y29514D01*
X612952Y30877D01*
X611817Y32438D01*
X610942Y34157D01*
X610346Y35992D01*
X610132Y37339D01*
X620777Y37339D01*
X620777Y26694D01*
X619430Y26908D01*
G37*
%LPD*%
%LPC*%
G36*
X585723Y166623D02*
X585723Y166623D01*
X585723Y176946D01*
X586996Y176745D01*
X588783Y176164D01*
X590457Y175311D01*
X591978Y174206D01*
X593306Y172878D01*
X594411Y171357D01*
X595264Y169683D01*
X595845Y167896D01*
X596046Y166623D01*
X585723Y166623D01*
G37*
%LPD*%
%LPC*%
G36*
X534923Y315977D02*
X534923Y315977D01*
X545246Y315977D01*
X545045Y314704D01*
X544464Y312917D01*
X543611Y311243D01*
X542506Y309722D01*
X541178Y308394D01*
X539657Y307289D01*
X537983Y306436D01*
X536196Y305855D01*
X534923Y305654D01*
X534923Y315977D01*
G37*
%LPD*%
%LPC*%
G36*
X572354Y166623D02*
X572354Y166623D01*
X572555Y167896D01*
X573136Y169683D01*
X573989Y171357D01*
X575094Y172878D01*
X576422Y174206D01*
X577943Y175311D01*
X579617Y176164D01*
X581404Y176745D01*
X582677Y176946D01*
X582677Y166623D01*
X572354Y166623D01*
G37*
%LPD*%
%LPC*%
G36*
X560323Y315977D02*
X560323Y315977D01*
X570646Y315977D01*
X570445Y314704D01*
X569864Y312917D01*
X569011Y311243D01*
X567906Y309722D01*
X566578Y308394D01*
X565057Y307289D01*
X563383Y306436D01*
X561596Y305855D01*
X560323Y305654D01*
X560323Y315977D01*
G37*
%LPD*%
%LPC*%
G36*
X585723Y163577D02*
X585723Y163577D01*
X596046Y163577D01*
X595845Y162304D01*
X595264Y160517D01*
X594411Y158843D01*
X593306Y157322D01*
X591978Y155994D01*
X590457Y154889D01*
X588783Y154036D01*
X586996Y153455D01*
X585723Y153254D01*
X585723Y163577D01*
G37*
%LPD*%
%LPC*%
G36*
X581404Y153455D02*
X581404Y153455D01*
X579617Y154036D01*
X577943Y154889D01*
X576422Y155994D01*
X575094Y157322D01*
X573989Y158843D01*
X573136Y160517D01*
X572555Y162304D01*
X572354Y163577D01*
X582677Y163577D01*
X582677Y153254D01*
X581404Y153455D01*
G37*
%LPD*%
%LPC*%
G36*
X556004Y305855D02*
X556004Y305855D01*
X554217Y306436D01*
X552543Y307289D01*
X551022Y308394D01*
X549694Y309722D01*
X548589Y311243D01*
X547736Y312917D01*
X547155Y314704D01*
X546954Y315977D01*
X557277Y315977D01*
X557277Y305654D01*
X556004Y305855D01*
G37*
%LPD*%
%LPC*%
G36*
X530604Y305855D02*
X530604Y305855D01*
X528817Y306436D01*
X527143Y307289D01*
X525622Y308394D01*
X524294Y309722D01*
X523189Y311243D01*
X522336Y312917D01*
X521755Y314704D01*
X521554Y315977D01*
X531877Y315977D01*
X531877Y305654D01*
X530604Y305855D01*
G37*
%LPD*%
%LPC*%
G36*
X179323Y366623D02*
X179323Y366623D01*
X179323Y374141D01*
X185634Y374141D01*
X186281Y373968D01*
X186860Y373633D01*
X187333Y373160D01*
X187668Y372581D01*
X187841Y371934D01*
X187841Y366623D01*
X179323Y366623D01*
G37*
%LPD*%
%LPC*%
G36*
X242823Y303123D02*
X242823Y303123D01*
X242823Y310641D01*
X249134Y310641D01*
X249781Y310468D01*
X250360Y310133D01*
X250833Y309660D01*
X251168Y309081D01*
X251341Y308434D01*
X251341Y303123D01*
X242823Y303123D01*
G37*
%LPD*%
%LPC*%
G36*
X179323Y239623D02*
X179323Y239623D01*
X179323Y247141D01*
X185634Y247141D01*
X186281Y246968D01*
X186860Y246633D01*
X187333Y246160D01*
X187668Y245581D01*
X187841Y244934D01*
X187841Y239623D01*
X179323Y239623D01*
G37*
%LPD*%
%LPC*%
G36*
X115823Y303123D02*
X115823Y303123D01*
X115823Y310641D01*
X122134Y310641D01*
X122781Y310468D01*
X123360Y310133D01*
X123833Y309660D01*
X124168Y309081D01*
X124341Y308434D01*
X124341Y303123D01*
X115823Y303123D01*
G37*
%LPD*%
%LPC*%
G36*
X231259Y303123D02*
X231259Y303123D01*
X231259Y308434D01*
X231432Y309081D01*
X231767Y309660D01*
X232240Y310133D01*
X232819Y310468D01*
X233466Y310641D01*
X239777Y310641D01*
X239777Y303123D01*
X231259Y303123D01*
G37*
%LPD*%
%LPC*%
G36*
X167759Y239623D02*
X167759Y239623D01*
X167759Y244934D01*
X167932Y245581D01*
X168267Y246160D01*
X168740Y246633D01*
X169319Y246968D01*
X169966Y247141D01*
X176277Y247141D01*
X176277Y239623D01*
X167759Y239623D01*
G37*
%LPD*%
%LPC*%
G36*
X167759Y366623D02*
X167759Y366623D01*
X167759Y371934D01*
X167932Y372581D01*
X168267Y373160D01*
X168740Y373633D01*
X169319Y373968D01*
X169966Y374141D01*
X176277Y374141D01*
X176277Y366623D01*
X167759Y366623D01*
G37*
%LPD*%
%LPC*%
G36*
X104259Y303123D02*
X104259Y303123D01*
X104259Y308434D01*
X104432Y309081D01*
X104767Y309660D01*
X105240Y310133D01*
X105819Y310468D01*
X106466Y310641D01*
X112777Y310641D01*
X112777Y303123D01*
X104259Y303123D01*
G37*
%LPD*%
%LPC*%
G36*
X242823Y292559D02*
X242823Y292559D01*
X242823Y300077D01*
X251341Y300077D01*
X251341Y294766D01*
X251168Y294119D01*
X250833Y293540D01*
X250360Y293067D01*
X249781Y292732D01*
X249134Y292559D01*
X242823Y292559D01*
G37*
%LPD*%
%LPC*%
G36*
X179323Y229059D02*
X179323Y229059D01*
X179323Y236577D01*
X187841Y236577D01*
X187841Y231266D01*
X187668Y230619D01*
X187333Y230040D01*
X186860Y229567D01*
X186281Y229232D01*
X185634Y229059D01*
X179323Y229059D01*
G37*
%LPD*%
%LPC*%
G36*
X179323Y356059D02*
X179323Y356059D01*
X179323Y363577D01*
X187841Y363577D01*
X187841Y358266D01*
X187668Y357619D01*
X187333Y357040D01*
X186860Y356567D01*
X186281Y356232D01*
X185634Y356059D01*
X179323Y356059D01*
G37*
%LPD*%
%LPC*%
G36*
X115823Y292559D02*
X115823Y292559D01*
X115823Y300077D01*
X124341Y300077D01*
X124341Y294766D01*
X124168Y294119D01*
X123833Y293540D01*
X123360Y293067D01*
X122781Y292732D01*
X122134Y292559D01*
X115823Y292559D01*
G37*
%LPD*%
%LPC*%
G36*
X106466Y292559D02*
X106466Y292559D01*
X105819Y292732D01*
X105240Y293067D01*
X104767Y293540D01*
X104432Y294119D01*
X104259Y294766D01*
X104259Y300077D01*
X112777Y300077D01*
X112777Y292559D01*
X106466Y292559D01*
G37*
%LPD*%
%LPC*%
G36*
X169966Y229059D02*
X169966Y229059D01*
X169319Y229232D01*
X168740Y229567D01*
X168267Y230040D01*
X167932Y230619D01*
X167759Y231266D01*
X167759Y236577D01*
X176277Y236577D01*
X176277Y229059D01*
X169966Y229059D01*
G37*
%LPD*%
%LPC*%
G36*
X233466Y292559D02*
X233466Y292559D01*
X232819Y292732D01*
X232240Y293067D01*
X231767Y293540D01*
X231432Y294119D01*
X231259Y294766D01*
X231259Y300077D01*
X239777Y300077D01*
X239777Y292559D01*
X233466Y292559D01*
G37*
%LPD*%
%LPC*%
G36*
X169966Y356059D02*
X169966Y356059D01*
X169319Y356232D01*
X168740Y356567D01*
X168267Y357040D01*
X167932Y357619D01*
X167759Y358266D01*
X167759Y363577D01*
X176277Y363577D01*
X176277Y356059D01*
X169966Y356059D01*
G37*
%LPD*%
%LPC*%
G36*
X265683Y418083D02*
X265683Y418083D01*
X265683Y427102D01*
X268527Y427102D01*
X274702Y420927D01*
X274702Y418083D01*
X265683Y418083D01*
G37*
%LPD*%
%LPC*%
G36*
X265683Y406018D02*
X265683Y406018D01*
X265683Y415037D01*
X274702Y415037D01*
X274702Y412193D01*
X268527Y406018D01*
X265683Y406018D01*
G37*
%LPD*%
%LPC*%
G36*
X253618Y418083D02*
X253618Y418083D01*
X253618Y420927D01*
X259793Y427102D01*
X262637Y427102D01*
X262637Y418083D01*
X253618Y418083D01*
G37*
%LPD*%
%LPC*%
G36*
X259793Y406018D02*
X259793Y406018D01*
X253618Y412193D01*
X253618Y415037D01*
X262637Y415037D01*
X262637Y406018D01*
X259793Y406018D01*
G37*
%LPD*%
%LPC*%
G36*
X264159Y416559D02*
X264159Y416559D01*
X264159Y416561D01*
X264161Y416561D01*
X264161Y416559D01*
X264159Y416559D01*
G37*
%LPD*%
%LPC*%
G36*
X459739Y414019D02*
X459739Y414019D01*
X459739Y414021D01*
X459741Y414021D01*
X459741Y414019D01*
X459739Y414019D01*
G37*
%LPD*%
%LPC*%
G36*
X361187Y403605D02*
X361187Y403605D01*
X361187Y403607D01*
X361189Y403607D01*
X361189Y403605D01*
X361187Y403605D01*
G37*
%LPD*%
%LPC*%
G36*
X88899Y393699D02*
X88899Y393699D01*
X88899Y393701D01*
X88901Y393701D01*
X88901Y393699D01*
X88899Y393699D01*
G37*
%LPD*%
%LPC*%
G36*
X165099Y88899D02*
X165099Y88899D01*
X165099Y88901D01*
X165101Y88901D01*
X165101Y88899D01*
X165099Y88899D01*
G37*
%LPD*%
%LPC*%
G36*
X584199Y165099D02*
X584199Y165099D01*
X584199Y165101D01*
X584201Y165101D01*
X584201Y165099D01*
X584199Y165099D01*
G37*
%LPD*%
%LPC*%
G36*
X317499Y88899D02*
X317499Y88899D01*
X317499Y88901D01*
X317501Y88901D01*
X317501Y88899D01*
X317499Y88899D01*
G37*
%LPD*%
%LPC*%
G36*
X622299Y38861D02*
X622299Y38861D01*
X622299Y38863D01*
X622301Y38863D01*
X622301Y38861D01*
X622299Y38861D01*
G37*
%LPD*%
%LPC*%
G36*
X469899Y38861D02*
X469899Y38861D01*
X469899Y38863D01*
X469901Y38863D01*
X469901Y38861D01*
X469899Y38861D01*
G37*
%LPD*%
%LPC*%
G36*
X317499Y38861D02*
X317499Y38861D01*
X317499Y38863D01*
X317501Y38863D01*
X317501Y38861D01*
X317499Y38861D01*
G37*
%LPD*%
%LPC*%
G36*
X165099Y38861D02*
X165099Y38861D01*
X165099Y38863D01*
X165101Y38863D01*
X165101Y38861D01*
X165099Y38861D01*
G37*
%LPD*%
%LPC*%
G36*
X622299Y88899D02*
X622299Y88899D01*
X622299Y88901D01*
X622301Y88901D01*
X622301Y88899D01*
X622299Y88899D01*
G37*
%LPD*%
%LPC*%
G36*
X469899Y88899D02*
X469899Y88899D01*
X469899Y88901D01*
X469901Y88901D01*
X469901Y88899D01*
X469899Y88899D01*
G37*
%LPD*%
%LPC*%
G36*
X426211Y403605D02*
X426211Y403605D01*
X426211Y403607D01*
X426213Y403607D01*
X426213Y403605D01*
X426211Y403605D01*
G37*
%LPD*%
%LPC*%
G36*
X576099Y380999D02*
X576099Y380999D01*
X576099Y381001D01*
X576101Y381001D01*
X576101Y380999D01*
X576099Y380999D01*
G37*
%LPD*%
%LPC*%
G36*
X177799Y365099D02*
X177799Y365099D01*
X177799Y365101D01*
X177801Y365101D01*
X177801Y365099D01*
X177799Y365099D01*
G37*
%LPD*%
%LPC*%
G36*
X177799Y238099D02*
X177799Y238099D01*
X177799Y238101D01*
X177801Y238101D01*
X177801Y238099D01*
X177799Y238099D01*
G37*
%LPD*%
%LPC*%
G36*
X114299Y301599D02*
X114299Y301599D01*
X114299Y301601D01*
X114301Y301601D01*
X114301Y301599D01*
X114299Y301599D01*
G37*
%LPD*%
%LPC*%
G36*
X241299Y301599D02*
X241299Y301599D01*
X241299Y301601D01*
X241301Y301601D01*
X241301Y301599D01*
X241299Y301599D01*
G37*
%LPD*%
D10*
X88900Y88900D03*
X88900Y38862D03*
X165100Y88900D03*
X165100Y38862D03*
X241300Y88900D03*
X241300Y38862D03*
X317500Y88900D03*
X317500Y38862D03*
X393700Y88900D03*
X393700Y38862D03*
X469900Y88900D03*
X469900Y38862D03*
X546100Y88900D03*
X546100Y38862D03*
X622300Y88900D03*
X622300Y38862D03*
D11*
X609600Y317500D03*
X584200Y317500D03*
X558800Y317500D03*
X533400Y317500D03*
X508000Y317500D03*
X482600Y317500D03*
X457200Y317500D03*
X431800Y317500D03*
X406400Y317500D03*
X381000Y317500D03*
X355600Y317500D03*
X330200Y317500D03*
X330200Y165100D03*
X355600Y165100D03*
X381000Y165100D03*
X406400Y165100D03*
X431800Y165100D03*
X457200Y165100D03*
X482600Y165100D03*
X508000Y165100D03*
X533400Y165100D03*
X558800Y165100D03*
X584200Y165100D03*
X609600Y165100D03*
D12*
X88900Y165100D03*
X88900Y190500D03*
X88900Y215900D03*
X88900Y241300D03*
X114300Y165100D03*
X114300Y190500D03*
X114300Y215900D03*
X114300Y241300D03*
D13*
X353568Y403606D02*
X368808Y403606D01*
X368808Y358394D02*
X353568Y358394D01*
X418592Y403606D02*
X433832Y403606D01*
X433832Y358394D02*
X418592Y358394D01*
D14*
X139700Y281600D03*
X139700Y302600D03*
X203200Y218100D03*
X203200Y239100D03*
X203200Y345100D03*
X203200Y366100D03*
X266700Y281600D03*
X266700Y302600D03*
D15*
X114300Y282600D03*
X114300Y301600D03*
X177800Y219100D03*
X177800Y238100D03*
X177800Y346100D03*
X177800Y365100D03*
X241300Y282600D03*
X241300Y301600D03*
D16*
X535178Y429000D02*
X557022Y429000D01*
X576100Y391922D02*
X576100Y370078D01*
X516100Y370078D02*
X516100Y391922D01*
D13*
X96520Y342900D02*
X81280Y342900D01*
X81280Y368300D02*
X96520Y368300D01*
X96520Y393700D02*
X81280Y393700D01*
D17*
X327000Y355600D03*
X308000Y355600D03*
D18*
X264160Y416560D03*
D19*
X264160Y381000D03*
D20*
X485140Y405020D02*
X485140Y423020D01*
X459740Y423020D02*
X459740Y405020D01*
D21*
X203200Y381000D02*
X203200Y366100D01*
D22*
X203200Y381000D03*
D21*
X266700Y317500D02*
X266700Y302600D01*
D22*
X266700Y317500D03*
D21*
X327000Y355600D02*
X330200Y355600D01*
X342900Y342900D01*
X381000Y342900D01*
X406400Y317500D01*
X426212Y358394D02*
X361188Y358394D01*
X426212Y358394D02*
X454406Y358394D01*
X482346Y330454D01*
X614966Y330454D02*
X615220Y330200D01*
X622300Y330200D01*
X614966Y330454D02*
X482346Y330454D01*
X622300Y330200D02*
X635000Y317500D01*
X635000Y241300D02*
X558800Y165100D01*
X635000Y241300D02*
X635000Y317500D01*
X508000Y127000D02*
X546100Y88900D01*
X546100Y38862D01*
X508000Y127000D02*
X228600Y127000D01*
X114300Y241300D01*
X368300Y114300D02*
X393700Y88900D01*
X393700Y38862D01*
X368300Y114300D02*
X215900Y114300D01*
X114300Y215900D01*
X241300Y88900D02*
X241300Y38862D01*
X241300Y88900D02*
X215900Y88900D01*
X114300Y190500D01*
X88900Y88900D02*
X88900Y38862D01*
X88900Y88900D02*
X88900Y114300D01*
X114300Y139700D01*
X114300Y165100D01*
X139700Y302600D02*
X139700Y317500D01*
D22*
X139700Y317500D03*
D21*
X203200Y254000D02*
X203200Y239100D01*
D22*
X203200Y254000D03*
D23*
X115300Y281600D02*
X114300Y282600D01*
X115300Y281600D02*
X139700Y281600D01*
X177800Y219100D02*
X178800Y218100D01*
X203200Y218100D01*
X178800Y345100D02*
X177800Y346100D01*
X178800Y345100D02*
X203200Y345100D01*
X241300Y282600D02*
X242300Y281600D01*
X266700Y281600D01*
D21*
X282600Y330200D02*
X101600Y330200D01*
X88900Y342900D01*
X282600Y330200D02*
X308000Y355600D01*
M02*
