G04 EAGLE Gerber RS-274X export*
G75*
%MOMM*%
%FSLAX34Y34*%
%LPD*%
%IN*%
%IPPOS*%
%AMOC8*
5,1,8,0,0,1.08239X$1,22.5*%
G01*
%ADD10C,0.254000*%


D10*
X50800Y0D02*
X657100Y0D01*
X657100Y457100D01*
X50800Y457100D01*
X50800Y0D01*
X531100Y425000D02*
X561100Y425000D01*
X561100Y433000D01*
X531100Y433000D01*
X531100Y425000D01*
X511100Y363500D02*
X521100Y363500D01*
X521100Y398500D01*
X511100Y398500D01*
X511100Y363500D01*
X572100Y366000D02*
X580100Y366000D01*
X580100Y396000D01*
X572100Y396000D01*
X572100Y366000D01*
X372618Y240743D02*
X372545Y239631D01*
X372400Y238526D01*
X372182Y237434D01*
X371894Y236357D01*
X371536Y235302D01*
X371109Y234273D01*
X370617Y233273D01*
X370059Y232309D01*
X369440Y231382D01*
X368762Y230498D01*
X368027Y229660D01*
X367240Y228873D01*
X366402Y228138D01*
X365518Y227460D01*
X364591Y226841D01*
X363627Y226283D01*
X362627Y225791D01*
X361598Y225364D01*
X360543Y225006D01*
X359466Y224718D01*
X358374Y224500D01*
X357269Y224355D01*
X356157Y224282D01*
X355043Y224282D01*
X353931Y224355D01*
X352826Y224500D01*
X351734Y224718D01*
X350657Y225006D01*
X349602Y225364D01*
X348573Y225791D01*
X347573Y226283D01*
X346609Y226841D01*
X345682Y227460D01*
X344798Y228138D01*
X343960Y228873D01*
X343173Y229660D01*
X342438Y230498D01*
X341760Y231382D01*
X341141Y232309D01*
X340583Y233273D01*
X340091Y234273D01*
X339664Y235302D01*
X339306Y236357D01*
X339018Y237434D01*
X338800Y238526D01*
X338655Y239631D01*
X338582Y240743D01*
X338582Y241857D01*
X338655Y242969D01*
X338800Y244074D01*
X339018Y245166D01*
X339306Y246243D01*
X339664Y247298D01*
X340091Y248327D01*
X340583Y249327D01*
X341141Y250291D01*
X341760Y251218D01*
X342438Y252102D01*
X343173Y252940D01*
X343960Y253727D01*
X344798Y254462D01*
X345682Y255140D01*
X346609Y255759D01*
X347573Y256317D01*
X348573Y256809D01*
X349602Y257236D01*
X350657Y257594D01*
X351734Y257882D01*
X352826Y258100D01*
X353931Y258245D01*
X355043Y258318D01*
X356157Y258318D01*
X357269Y258245D01*
X358374Y258100D01*
X359466Y257882D01*
X360543Y257594D01*
X361598Y257236D01*
X362627Y256809D01*
X363627Y256317D01*
X364591Y255759D01*
X365518Y255140D01*
X366402Y254462D01*
X367240Y253727D01*
X368027Y252940D01*
X368762Y252102D01*
X369440Y251218D01*
X370059Y250291D01*
X370617Y249327D01*
X371109Y248327D01*
X371536Y247298D01*
X371894Y246243D01*
X372182Y245166D01*
X372400Y244074D01*
X372545Y242969D01*
X372618Y241857D01*
X372618Y240743D01*
X601218Y240743D02*
X601145Y239631D01*
X601000Y238526D01*
X600782Y237434D01*
X600494Y236357D01*
X600136Y235302D01*
X599709Y234273D01*
X599217Y233273D01*
X598659Y232309D01*
X598040Y231382D01*
X597362Y230498D01*
X596627Y229660D01*
X595840Y228873D01*
X595002Y228138D01*
X594118Y227460D01*
X593191Y226841D01*
X592227Y226283D01*
X591227Y225791D01*
X590198Y225364D01*
X589143Y225006D01*
X588066Y224718D01*
X586974Y224500D01*
X585869Y224355D01*
X584757Y224282D01*
X583643Y224282D01*
X582531Y224355D01*
X581426Y224500D01*
X580334Y224718D01*
X579257Y225006D01*
X578202Y225364D01*
X577173Y225791D01*
X576173Y226283D01*
X575209Y226841D01*
X574282Y227460D01*
X573398Y228138D01*
X572560Y228873D01*
X571773Y229660D01*
X571038Y230498D01*
X570360Y231382D01*
X569741Y232309D01*
X569183Y233273D01*
X568691Y234273D01*
X568264Y235302D01*
X567906Y236357D01*
X567618Y237434D01*
X567400Y238526D01*
X567255Y239631D01*
X567182Y240743D01*
X567182Y241857D01*
X567255Y242969D01*
X567400Y244074D01*
X567618Y245166D01*
X567906Y246243D01*
X568264Y247298D01*
X568691Y248327D01*
X569183Y249327D01*
X569741Y250291D01*
X570360Y251218D01*
X571038Y252102D01*
X571773Y252940D01*
X572560Y253727D01*
X573398Y254462D01*
X574282Y255140D01*
X575209Y255759D01*
X576173Y256317D01*
X577173Y256809D01*
X578202Y257236D01*
X579257Y257594D01*
X580334Y257882D01*
X581426Y258100D01*
X582531Y258245D01*
X583643Y258318D01*
X584757Y258318D01*
X585869Y258245D01*
X586974Y258100D01*
X588066Y257882D01*
X589143Y257594D01*
X590198Y257236D01*
X591227Y256809D01*
X592227Y256317D01*
X593191Y255759D01*
X594118Y255140D01*
X595002Y254462D01*
X595840Y253727D01*
X596627Y252940D01*
X597362Y252102D01*
X598040Y251218D01*
X598659Y250291D01*
X599217Y249327D01*
X599709Y248327D01*
X600136Y247298D01*
X600494Y246243D01*
X600782Y245166D01*
X601000Y244074D01*
X601145Y242969D01*
X601218Y241857D01*
X601218Y240743D01*
M02*
