G04 EAGLE Gerber RS-274X export*
G75*
%MOMM*%
%FSLAX34Y34*%
%LPD*%
%INSilkscreen Bottom*%
%IPPOS*%
%AMOC8*
5,1,8,0,0,1.08239X$1,22.5*%
G01*
%ADD10C,0.508000*%


D10*
X44450Y88900D02*
X44452Y88778D01*
X44458Y88656D01*
X44468Y88534D01*
X44481Y88413D01*
X44499Y88292D01*
X44520Y88172D01*
X44546Y88052D01*
X44575Y87934D01*
X44607Y87816D01*
X44644Y87699D01*
X44684Y87584D01*
X44728Y87470D01*
X44776Y87358D01*
X44827Y87247D01*
X44882Y87138D01*
X44940Y87030D01*
X45002Y86925D01*
X45067Y86822D01*
X45135Y86720D01*
X45207Y86621D01*
X45281Y86525D01*
X45359Y86430D01*
X45440Y86339D01*
X45523Y86249D01*
X45609Y86163D01*
X45699Y86080D01*
X45790Y85999D01*
X45885Y85921D01*
X45981Y85847D01*
X46080Y85775D01*
X46182Y85707D01*
X46285Y85642D01*
X46390Y85580D01*
X46498Y85522D01*
X46607Y85467D01*
X46718Y85416D01*
X46830Y85368D01*
X46944Y85324D01*
X47059Y85284D01*
X47176Y85247D01*
X47294Y85215D01*
X47412Y85186D01*
X47532Y85160D01*
X47652Y85139D01*
X47773Y85121D01*
X47894Y85108D01*
X48016Y85098D01*
X48138Y85092D01*
X48260Y85090D01*
X48382Y85092D01*
X48504Y85098D01*
X48626Y85108D01*
X48747Y85121D01*
X48868Y85139D01*
X48988Y85160D01*
X49108Y85186D01*
X49226Y85215D01*
X49344Y85247D01*
X49461Y85284D01*
X49576Y85324D01*
X49690Y85368D01*
X49802Y85416D01*
X49913Y85467D01*
X50022Y85522D01*
X50130Y85580D01*
X50235Y85642D01*
X50338Y85707D01*
X50440Y85775D01*
X50539Y85847D01*
X50635Y85921D01*
X50730Y85999D01*
X50821Y86080D01*
X50911Y86163D01*
X50997Y86249D01*
X51080Y86339D01*
X51161Y86430D01*
X51239Y86525D01*
X51313Y86621D01*
X51385Y86720D01*
X51453Y86822D01*
X51518Y86925D01*
X51580Y87030D01*
X51638Y87138D01*
X51693Y87247D01*
X51744Y87358D01*
X51792Y87470D01*
X51836Y87584D01*
X51876Y87699D01*
X51913Y87816D01*
X51945Y87934D01*
X51974Y88052D01*
X52000Y88172D01*
X52021Y88292D01*
X52039Y88413D01*
X52052Y88534D01*
X52062Y88656D01*
X52068Y88778D01*
X52070Y88900D01*
X52068Y89022D01*
X52062Y89144D01*
X52052Y89266D01*
X52039Y89387D01*
X52021Y89508D01*
X52000Y89628D01*
X51974Y89748D01*
X51945Y89866D01*
X51913Y89984D01*
X51876Y90101D01*
X51836Y90216D01*
X51792Y90330D01*
X51744Y90442D01*
X51693Y90553D01*
X51638Y90662D01*
X51580Y90770D01*
X51518Y90875D01*
X51453Y90978D01*
X51385Y91080D01*
X51313Y91179D01*
X51239Y91275D01*
X51161Y91370D01*
X51080Y91461D01*
X50997Y91551D01*
X50911Y91637D01*
X50821Y91720D01*
X50730Y91801D01*
X50635Y91879D01*
X50539Y91953D01*
X50440Y92025D01*
X50338Y92093D01*
X50235Y92158D01*
X50130Y92220D01*
X50022Y92278D01*
X49913Y92333D01*
X49802Y92384D01*
X49690Y92432D01*
X49576Y92476D01*
X49461Y92516D01*
X49344Y92553D01*
X49226Y92585D01*
X49108Y92614D01*
X48988Y92640D01*
X48868Y92661D01*
X48747Y92679D01*
X48626Y92692D01*
X48504Y92702D01*
X48382Y92708D01*
X48260Y92710D01*
X48138Y92708D01*
X48016Y92702D01*
X47894Y92692D01*
X47773Y92679D01*
X47652Y92661D01*
X47532Y92640D01*
X47412Y92614D01*
X47294Y92585D01*
X47176Y92553D01*
X47059Y92516D01*
X46944Y92476D01*
X46830Y92432D01*
X46718Y92384D01*
X46607Y92333D01*
X46498Y92278D01*
X46390Y92220D01*
X46285Y92158D01*
X46182Y92093D01*
X46080Y92025D01*
X45981Y91953D01*
X45885Y91879D01*
X45790Y91801D01*
X45699Y91720D01*
X45609Y91637D01*
X45523Y91551D01*
X45440Y91461D01*
X45359Y91370D01*
X45281Y91275D01*
X45207Y91179D01*
X45135Y91080D01*
X45067Y90978D01*
X45002Y90875D01*
X44940Y90770D01*
X44882Y90662D01*
X44827Y90553D01*
X44776Y90442D01*
X44728Y90330D01*
X44684Y90216D01*
X44644Y90101D01*
X44607Y89984D01*
X44575Y89866D01*
X44546Y89748D01*
X44520Y89628D01*
X44499Y89508D01*
X44481Y89387D01*
X44468Y89266D01*
X44458Y89144D01*
X44452Y89022D01*
X44450Y88900D01*
M02*
