M48
;GenerationSoftware,Autodesk,EAGLE,9.5.1*%
;CreationDate,2021-05-30T00:57:13Z*%
FMAT,2
ICI,OFF
METRIC,TZ,000.000
T8C0.350
T7C0.800
T6C0.813
T5C1.000
T4C1.016
T3C1.200
T2C1.295
T1C3.404
%
G90
M71
T1
X35560Y24130
X58420Y24130
T2
X16510Y8890
X62230Y8890
X62230Y3886
X8890Y8890
X8890Y3886
X46990Y8890
X16510Y3886
X24130Y8890
X24130Y3886
X31750Y8890
X31750Y3886
X39370Y8890
X39370Y3886
X46990Y3886
X54610Y8890
X54610Y3886
T3
X48514Y41402
X45974Y41402
T4
X8890Y36830
X8890Y39370
X60960Y31750
X58420Y31750
X55880Y31750
X53340Y31750
X50800Y31750
X48260Y31750
X45720Y31750
X43180Y31750
X40640Y31750
X38100Y31750
X35560Y31750
X33020Y31750
X33020Y16510
X35560Y16510
X38100Y16510
X40640Y16510
X43180Y16510
X45720Y16510
X48260Y16510
X50800Y16510
X53340Y16510
X55880Y16510
X58420Y16510
X60960Y16510
X8890Y16510
X8890Y19050
X8890Y21590
X8890Y24130
X11430Y16510
X11430Y21590
X11430Y24130
X36119Y40361
X36119Y35839
X42621Y40361
X42621Y35839
X11430Y19050
X8890Y34290
T5
X51610Y38100
T6
X26416Y41656
X26416Y38100
T7
X54610Y42900
X57610Y38100
T8
X26670Y31750
X13970Y31750
X20320Y38100
X20320Y25400
M30